<svg xmlns="http://www.w3.org/2000/svg" viewBox="0 0 18.75 18.75"><defs><style>.a3ddee5e-6cea-4df6-a9b7-28921f15d4b6{fill:#b0c1c0;}</style></defs><g id="ad592398-5729-43cd-b60c-4f5d381252e8" data-name="Layer 2"><g id="ad02d14a-0fd3-43d1-97fd-08995ef3ef6d" data-name="Layer 2"><path class="a3ddee5e-6cea-4df6-a9b7-28921f15d4b6" d="M9.38,18.75a9.38,9.38,0,1,1,9.37-9.37,9.38,9.38,0,0,1-9.37,9.37m0-17.09a7.72,7.72,0,1,0,7.71,7.72A7.72,7.72,0,0,0,9.38,1.66"/><path class="a3ddee5e-6cea-4df6-a9b7-28921f15d4b6" d="M8.89,13.42a.82.82,0,0,1-.59-.24A.83.83,0,0,1,8.3,12l2.63-2.63L8.3,6.75a.83.83,0,0,1,0-1.17.82.82,0,0,1,1.17,0l3.22,3.21a.83.83,0,0,1,0,1.17L9.47,13.18a.82.82,0,0,1-.58.24"/><path class="a3ddee5e-6cea-4df6-a9b7-28921f15d4b6" d="M11.22,10.21H5.47a.83.83,0,0,1,0-1.66h5.75a.83.83,0,0,1,0,1.66"/></g></g></svg>