<svg xmlns="http://www.w3.org/2000/svg" viewBox="0 0 46.36 43.45"><defs><style>.f54659dc-7338-4fe4-8928-7e524e60f48e{fill:#728783;}</style></defs><g id="b9103584-19b8-48ec-933d-e32fe6963197" data-name="Layer 2"><g id="b380aef6-387a-4165-b709-69b0063bb19f" data-name="Layer 2"><path class="f54659dc-7338-4fe4-8928-7e524e60f48e" d="M39.65,35.7H35.77a.9.9,0,0,1-.9-.9V24.15a2,2,0,1,0-4,0V34.8a.9.9,0,0,1-.9.9H26.08a.9.9,0,0,1-.9-.9V24.15a2,2,0,1,0-4,0V34.8a.9.9,0,0,1-.9.9H16.4a.9.9,0,0,1-.9-.9V24.15a2,2,0,1,0-4,0V34.8a.9.9,0,0,1-.9.9H6.71a.9.9,0,0,1,0-1.8h3V24.15a3.81,3.81,0,1,1,7.61,0V33.9h2.07V24.15a3.81,3.81,0,1,1,7.61,0V33.9h2.08V24.15a3.81,3.81,0,1,1,7.61,0V33.9h3a.9.9,0,0,1,0,1.8Z"/><path class="f54659dc-7338-4fe4-8928-7e524e60f48e" d="M43.52,22.14H38.68a.9.9,0,0,1,0-1.8h3.94V18.27H3.74v2.07H7.68a.9.9,0,0,1,0,1.8H2.84a.9.9,0,0,1-.9-.9V17.37a.9.9,0,0,1,.9-.9H43.52a.9.9,0,0,1,.9.9v3.87A.9.9,0,0,1,43.52,22.14Z"/><path class="f54659dc-7338-4fe4-8928-7e524e60f48e" d="M44.49,14.39H39.65a.9.9,0,0,1-.9-.9V12.15L23.18,2,7.61,12.15v1.34a.9.9,0,0,1-.9.9H1.87a.9.9,0,0,1-.9-.9V11.93l-.71-.71A.89.89,0,0,1,0,10.59V5.74a.9.9,0,0,1,.9-.9H15.5L22.69.15a.88.88,0,0,1,1,0l7.19,4.7h14.6a.9.9,0,0,1,.9.9v4.85a.89.89,0,0,1-.26.63l-.71.71v1.56A.9.9,0,0,1,44.49,14.39Zm-3.94-1.8h3v-1a.9.9,0,0,1,.27-.63l.7-.71V6.64h-11l6.53,4.27a.9.9,0,0,1,.41.76Zm-37.78,0h3v-.92a.92.92,0,0,1,.41-.76l6.53-4.27H1.8v3.57l.7.71a.9.9,0,0,1,.27.63Z"/><path class="f54659dc-7338-4fe4-8928-7e524e60f48e" d="M3.81,40.55a.9.9,0,0,1-.9-.9V21.24a.9.9,0,0,1,.9-.9H7.68a.9.9,0,0,1,0,1.8h-3V39.65A.91.91,0,0,1,3.81,40.55Z"/><path class="f54659dc-7338-4fe4-8928-7e524e60f48e" d="M42.55,40.55a.91.91,0,0,1-.9-.9V22.14h-3a.9.9,0,0,1,0-1.8h3.87a.9.9,0,0,1,.9.9V39.65A.9.9,0,0,1,42.55,40.55Z"/><path class="f54659dc-7338-4fe4-8928-7e524e60f48e" d="M23.18,13.42A3.81,3.81,0,1,1,27,9.62,3.81,3.81,0,0,1,23.18,13.42Zm0-5.81a2,2,0,1,0,2,2A2,2,0,0,0,23.18,7.61Z"/><path class="f54659dc-7338-4fe4-8928-7e524e60f48e" d="M39.65,39.58H6.71a.9.9,0,0,1,0-1.8H39.65a.9.9,0,0,1,0,1.8Z"/><path class="f54659dc-7338-4fe4-8928-7e524e60f48e" d="M43.52,43.45H2.84a.9.9,0,0,1,0-1.8H43.52a.9.9,0,0,1,0,1.8Z"/></g></g></svg>