<svg xmlns="http://www.w3.org/2000/svg" viewBox="0 0 20.52 19.42"><defs><style>.efa7f59d-6ed2-4a6b-8d0a-bfe63d32a593{fill:#b0c1c0;}</style></defs><g id="baf0699e-18f7-4d00-afc8-da23ba422e4d" data-name="Layer 2"><g id="f423ed5d-4dfd-48f9-8ac1-3495a3df0a30" data-name="Layer 2"><path class="efa7f59d-6ed2-4a6b-8d0a-bfe63d32a593" d="M19.7,19.42H15.29a.83.83,0,0,1-.83-.82V.83A.83.83,0,0,1,15.29,0H19.7a.83.83,0,0,1,.82.83V18.6a.82.82,0,0,1-.82.82Zm-3.58-1.65h2.75V1.65H16.12V17.77Z"/><path class="efa7f59d-6ed2-4a6b-8d0a-bfe63d32a593" d="M12.46,19.42H8.06a.83.83,0,0,1-.83-.82V11a.83.83,0,0,1,.83-.83h4.4a.83.83,0,0,1,.83.83V18.6a.83.83,0,0,1-.83.82ZM8.88,17.77h2.76V11.85H8.88v5.92Z"/><path class="efa7f59d-6ed2-4a6b-8d0a-bfe63d32a593" d="M5.23,19.42H.83A.83.83,0,0,1,0,18.6V7.3a.83.83,0,0,1,.83-.83h4.4a.83.83,0,0,1,.83.83V18.6a.83.83,0,0,1-.83.82ZM1.65,17.77H4.41V8.13H1.65v9.64Z"/></g></g></svg>