<svg xmlns="http://www.w3.org/2000/svg" viewBox="0 0 15.03 19.44"><defs><style>.fbdd4aba-10f0-48a5-a876-82a339175a99{fill:#b0c1c0;}</style></defs><g id="acf8c737-00d3-472e-94d4-d5d60db3a40c" data-name="Layer 2"><g id="bf559f2d-0eba-4350-b542-d7c608e2d2a7" data-name="Layer 2"><path class="fbdd4aba-10f0-48a5-a876-82a339175a99" d="M1.65,6.63H.83A.83.83,0,1,1,.83,5h.82a.83.83,0,1,1,0,1.65Z"/><path class="fbdd4aba-10f0-48a5-a876-82a339175a99" d="M14.2,6.63h-.82a.83.83,0,1,1,0-1.65h.82a.83.83,0,1,1,0,1.65Z"/><path class="fbdd4aba-10f0-48a5-a876-82a339175a99" d="M7.92,5.06A1.65,1.65,0,1,1,9.57,3.41,1.65,1.65,0,0,1,7.92,5.06Zm0-2.48a.83.83,0,1,0,.83.83.83.83,0,0,0-.83-.83Z"/><path class="fbdd4aba-10f0-48a5-a876-82a339175a99" d="M3.84,2.58A1.29,1.29,0,1,1,5.13,1.29,1.29,1.29,0,0,1,3.84,2.58Zm0-1.75a.46.46,0,0,0-.47.46.47.47,0,0,0,.47.47.46.46,0,0,0,.46-.47A.45.45,0,0,0,3.84.83Z"/><path class="fbdd4aba-10f0-48a5-a876-82a339175a99" d="M5.53,5.15a.62.62,0,0,0,0,1.24.62.62,0,0,0,0-1.24Z"/><path class="fbdd4aba-10f0-48a5-a876-82a339175a99" d="M12.45,19.44H2.53A1.65,1.65,0,0,1,.88,17.79V5.8a.83.83,0,0,1,1.65,0v12h9.92V5.8a.83.83,0,0,1,1.65,0v12a1.65,1.65,0,0,1-1.65,1.65Z"/><path class="fbdd4aba-10f0-48a5-a876-82a339175a99" d="M10.9,7.94H8.21a.42.42,0,0,1,0-.83H10.9a.42.42,0,0,1,0,.83Z"/><path class="fbdd4aba-10f0-48a5-a876-82a339175a99" d="M10.9,10H8.21a.41.41,0,1,1,0-.82H10.9a.41.41,0,1,1,0,.82Z"/><path class="fbdd4aba-10f0-48a5-a876-82a339175a99" d="M10.9,12.07H8.21a.42.42,0,0,1,0-.83H10.9a.42.42,0,0,1,0,.83Z"/><path class="fbdd4aba-10f0-48a5-a876-82a339175a99" d="M10.9,14.14H8.21a.41.41,0,0,1-.41-.42.41.41,0,0,1,.41-.41H10.9a.41.41,0,0,1,.41.41.41.41,0,0,1-.41.42Z"/><path class="fbdd4aba-10f0-48a5-a876-82a339175a99" d="M10.9,16.2H8.21a.41.41,0,0,1-.41-.41.41.41,0,0,1,.41-.42H10.9a.41.41,0,0,1,.41.42.41.41,0,0,1-.41.41Z"/></g></g></svg>