<svg xmlns="http://www.w3.org/2000/svg" viewBox="0 0 19.55 17.9"><defs><style>.ba799f33-1f09-475b-8081-f55299b5ee3f{fill:#b0c1c0;}</style></defs><g id="b831292a-5db6-4a81-87c7-ec053b6cd8b8" data-name="Layer 2"><g id="bbc5fb81-1346-4f4a-bf6d-9ed2b1c7e020" data-name="Layer 2"><path class="ba799f33-1f09-475b-8081-f55299b5ee3f" d="M17.81,17.9H1.73A1.74,1.74,0,0,1,0,16.16V4.94A1.73,1.73,0,0,1,1.73,3.21H17.81a1.73,1.73,0,0,1,1.74,1.73V16.16a1.74,1.74,0,0,1-1.74,1.74M1.73,4.86a.09.09,0,0,0-.08.08V16.16a.09.09,0,0,0,.08.09H17.81a.09.09,0,0,0,.09-.09V4.94a.09.09,0,0,0-.09-.08Z"/><path class="ba799f33-1f09-475b-8081-f55299b5ee3f" d="M13.07,4.61a.82.82,0,0,1-.82-.82v-2a.09.09,0,0,0-.09-.09H7.38a.09.09,0,0,0-.08.09V3.79a.83.83,0,0,1-1.65,0v-2A1.74,1.74,0,0,1,7.38,0h4.78A1.74,1.74,0,0,1,13.9,1.74V3.79a.83.83,0,0,1-.83.82"/></g></g></svg>