<svg xmlns="http://www.w3.org/2000/svg" viewBox="0 0 19.28 19.52"><defs><style>.a2d1ae9d-6d40-47af-991d-3652970b41b2{fill:#b0c1c0;}</style></defs><g id="f84fe263-1c8e-4884-8fb5-bbe778717958" data-name="Layer 2"><g id="b1466754-dc13-490c-9912-a68578eb1b74" data-name="Layer 2"><path class="a2d1ae9d-6d40-47af-991d-3652970b41b2" d="M18.45,11.66a.83.83,0,0,1-.82-.83A9.19,9.19,0,0,0,8.44,1.65.83.83,0,0,1,8.44,0,10.85,10.85,0,0,1,19.28,10.83a.83.83,0,0,1-.83.83Z"/><path class="a2d1ae9d-6d40-47af-991d-3652970b41b2" d="M15.06,11.66a.83.83,0,0,1-.82-.83A5.8,5.8,0,0,0,8.44,5a.83.83,0,0,1,0-1.65,7.45,7.45,0,0,1,7.45,7.44.83.83,0,0,1-.83.83Z"/><path class="a2d1ae9d-6d40-47af-991d-3652970b41b2" d="M9,19.52A9,9,0,0,1,2.64,4.15a.82.82,0,0,1,1.16,0L15.37,15.71a.87.87,0,0,1,.24.59.83.83,0,0,1-.24.58A9,9,0,0,1,9,19.52ZM3.25,5.94A7.35,7.35,0,0,0,13.58,16.26L3.25,5.94Z"/><path class="a2d1ae9d-6d40-47af-991d-3652970b41b2" d="M9.37,11a.83.83,0,0,1-.58-1.41L9.92,8.43A.83.83,0,0,1,11.09,9.6L10,10.73a.86.86,0,0,1-.59.24Z"/></g></g></svg>