<svg xmlns="http://www.w3.org/2000/svg" viewBox="0 0 21.8 15.5"><defs><style>.e877f2ec-6bb3-41af-ae63-7241a5a99e40{fill:#b0c1c0;}</style></defs><g id="bc8228b1-7609-4580-a3eb-00f0f0161085" data-name="Layer 2"><g id="b9e03900-ee42-4a69-8759-031e3191fe13" data-name="Layer 2"><path class="e877f2ec-6bb3-41af-ae63-7241a5a99e40" d="M20.38,6.71h-19a.8.8,0,0,1-.79-.48A.62.62,0,0,1,1,5.47L10.43.12a1,1,0,0,1,.94,0l9.48,5.35a.62.62,0,0,1,.32.76.82.82,0,0,1-.79.48ZM4.09,5.35H17.71L10.9,1.51,4.09,5.35Z"/><path class="e877f2ec-6bb3-41af-ae63-7241a5a99e40" d="M3.8,13.45A.76.76,0,0,1,3,12.77V6.29a.77.77,0,0,1,.82-.68.77.77,0,0,1,.83.68v6.48a.76.76,0,0,1-.83.68Z"/><path class="e877f2ec-6bb3-41af-ae63-7241a5a99e40" d="M18,13.45a.76.76,0,0,1-.83-.68V6.29a.85.85,0,0,1,1.66,0v6.48a.76.76,0,0,1-.83.68Z"/><path class="e877f2ec-6bb3-41af-ae63-7241a5a99e40" d="M7.35,13.45a.76.76,0,0,1-.83-.68V6.29a.77.77,0,0,1,.83-.68.77.77,0,0,1,.83.68v6.48a.76.76,0,0,1-.83.68Z"/><path class="e877f2ec-6bb3-41af-ae63-7241a5a99e40" d="M10.9,13.45a.76.76,0,0,1-.83-.68V6.29a.77.77,0,0,1,.83-.68.77.77,0,0,1,.83.68v6.48a.76.76,0,0,1-.83.68Z"/><path class="e877f2ec-6bb3-41af-ae63-7241a5a99e40" d="M14.45,13.45a.76.76,0,0,1-.83-.68V6.29a.84.84,0,0,1,1.65,0v6.48a.76.76,0,0,1-.82.68Z"/><path class="e877f2ec-6bb3-41af-ae63-7241a5a99e40" d="M19.32,13.54H2.48a.77.77,0,0,1-.83-.69.77.77,0,0,1,.83-.68H19.32a.76.76,0,0,1,.82.68.76.76,0,0,1-.82.69Z"/><path class="e877f2ec-6bb3-41af-ae63-7241a5a99e40" d="M21,15.5H.83A.77.77,0,0,1,0,14.81a.77.77,0,0,1,.83-.68H21a.77.77,0,0,1,.83.68.77.77,0,0,1-.83.69Z"/></g></g></svg>