<svg xmlns="http://www.w3.org/2000/svg" viewBox="0 0 42.8 43.73"><defs><style>.bd3f3e16-03ca-4ec2-acd9-39fd49830efa{fill:#728783;}</style></defs><g id="ac6e0da2-d1d3-4c0a-a9b1-9c7d8c4a9641" data-name="Layer 2"><g id="bd503966-ffca-40db-8e91-819b4f4f92b7" data-name="Layer 2"><path class="bd3f3e16-03ca-4ec2-acd9-39fd49830efa" d="M41,19.38a.9.9,0,0,1-.89-.76A17.14,17.14,0,0,0,31.22,6.35a.91.91,0,0,1-.35-1.23.9.9,0,0,1,1.22-.35,18.89,18.89,0,0,1,9.77,13.57.91.91,0,0,1-.75,1Z"/><path class="bd3f3e16-03ca-4ec2-acd9-39fd49830efa" d="M1.84,19.38H1.7a.9.9,0,0,1-.75-1A18.9,18.9,0,0,1,10.71,4.77a.9.9,0,0,1,.88,1.58A17.11,17.11,0,0,0,2.73,18.62.9.9,0,0,1,1.84,19.38Z"/><path class="bd3f3e16-03ca-4ec2-acd9-39fd49830efa" d="M21.4,43.73a19.43,19.43,0,0,1-9.17-2.27.9.9,0,1,1,.84-1.59,17.87,17.87,0,0,0,16.66,0,.9.9,0,1,1,.84,1.59A19.45,19.45,0,0,1,21.4,43.73Z"/><path class="bd3f3e16-03ca-4ec2-acd9-39fd49830efa" d="M7.42,38.14a11.57,11.57,0,0,1-7-2,.88.88,0,0,1-.4-.74V32.17C0,30,4.25,28,7.42,28s7.43,2.08,7.43,4.21v3.21a.88.88,0,0,1-.4.74A11.6,11.6,0,0,1,7.42,38.14ZM1.8,34.89a9.87,9.87,0,0,0,5.62,1.45A9.83,9.83,0,0,0,13,34.89V32.17c-.11-.65-2.95-2.42-5.62-2.42s-5.5,1.77-5.62,2.43ZM14,35.38h0Z"/><path class="bd3f3e16-03ca-4ec2-acd9-39fd49830efa" d="M7.42,29.75A4.51,4.51,0,0,1,2.79,25.5V22.89a4.51,4.51,0,0,1,4.63-4.25,4.51,4.51,0,0,1,4.63,4.25V25.5A4.51,4.51,0,0,1,7.42,29.75Zm0-9.31A2.76,2.76,0,0,0,4.6,22.89V25.5A2.77,2.77,0,0,0,7.42,28a2.78,2.78,0,0,0,2.83-2.46V22.89A2.77,2.77,0,0,0,7.42,20.44Z"/><path class="bd3f3e16-03ca-4ec2-acd9-39fd49830efa" d="M21.4,19.5a11.08,11.08,0,0,1-7.09-2.06.9.9,0,0,1-.33-.7V13.53c0-2.13,4.25-4.21,7.42-4.21s7.42,2.08,7.42,4.21v3.21a.9.9,0,0,1-.33.7A11.08,11.08,0,0,1,21.4,19.5Zm-5.62-3.21a9.31,9.31,0,0,0,5.62,1.42A9.31,9.31,0,0,0,27,16.29V13.53c-.11-.65-2.95-2.41-5.62-2.41s-5.51,1.76-5.62,2.42Zm12.14.45h0Z"/><path class="bd3f3e16-03ca-4ec2-acd9-39fd49830efa" d="M21.4,11.12a4.52,4.52,0,0,1-4.63-4.26V4.26A4.52,4.52,0,0,1,21.4,0,4.52,4.52,0,0,1,26,4.26v2.6A4.52,4.52,0,0,1,21.4,11.12Zm0-9.32a2.77,2.77,0,0,0-2.83,2.46v2.6a2.86,2.86,0,0,0,5.66,0V4.26A2.77,2.77,0,0,0,21.4,1.8Z"/><path class="bd3f3e16-03ca-4ec2-acd9-39fd49830efa" d="M35.38,38.14a11.61,11.61,0,0,1-7-2,.87.87,0,0,1-.39-.74V32.17C28,30,32.21,28,35.38,28S42.8,30,42.8,32.17v3.21a.88.88,0,0,1-.4.74A11.57,11.57,0,0,1,35.38,38.14Zm-5.63-3.25a9.88,9.88,0,0,0,5.63,1.45A9.85,9.85,0,0,0,41,34.89V32.17c-.11-.65-3-2.42-5.62-2.42s-5.51,1.77-5.63,2.43Zm12.15.49h0Z"/><path class="bd3f3e16-03ca-4ec2-acd9-39fd49830efa" d="M35.38,29.75a4.51,4.51,0,0,1-4.63-4.25V22.89a4.65,4.65,0,0,1,9.26,0V25.5A4.51,4.51,0,0,1,35.38,29.75Zm0-9.31a2.77,2.77,0,0,0-2.83,2.45V25.5a2.86,2.86,0,0,0,5.66,0V22.89A2.77,2.77,0,0,0,35.38,20.44Z"/></g></g></svg>