<svg xmlns="http://www.w3.org/2000/svg" viewBox="0 0 49.09 38.74"><defs><style>.f5bffbe6-422d-47de-a65e-5945caa8e4d9{fill:#728783;}</style></defs><g id="ba50f56d-7789-4a55-a04e-7f1936c8024a" data-name="Layer 2"><g id="a0944c19-0f04-43bb-9122-e27ee886755b" data-name="Layer 2"><path class="f5bffbe6-422d-47de-a65e-5945caa8e4d9" d="M15.65,26.85a5.08,5.08,0,1,1,5.08-5.08A5.09,5.09,0,0,1,15.65,26.85Zm0-8.36a3.29,3.29,0,1,0,3.28,3.28A3.29,3.29,0,0,0,15.65,18.49Z"/><path class="f5bffbe6-422d-47de-a65e-5945caa8e4d9" d="M4.23,38.49a4.79,4.79,0,0,1-1.38-.19C2,38-.63,36.84.14,32.08c.11-.73.28-1.9.49-3.31.42-2.89,1-6.85,1.55-10A.9.9,0,0,1,4,19.06C3.4,22.2,2.83,26.15,2.41,29c-.21,1.42-.38,2.6-.5,3.33-.36,2.28.17,3.82,1.47,4.22a3.87,3.87,0,0,0,4.18-1.7c.69-1,3.13-5.17,4.14-7.23a.9.9,0,1,1,1.62.79c-1,2.07-3.49,6.31-4.24,7.42A5.64,5.64,0,0,1,4.23,38.49Z"/><path class="f5bffbe6-422d-47de-a65e-5945caa8e4d9" d="M32.35,10.15H16.69a.9.9,0,1,1,0-1.8H32.35a.9.9,0,0,1,0,1.8Z"/><path class="f5bffbe6-422d-47de-a65e-5945caa8e4d9" d="M28.17,22.68H19.82a.9.9,0,0,1,0-1.8h8.35a.9.9,0,1,1,0,1.8Z"/><path class="f5bffbe6-422d-47de-a65e-5945caa8e4d9" d="M12.51,3.89a.9.9,0,0,1-.9-.9c0-.65-.41-1.19-.89-1.19H8c-.49,0-.89.54-.89,1.19a.9.9,0,1,1-1.8,0A2.85,2.85,0,0,1,8,0h2.68a2.86,2.86,0,0,1,2.69,3A.9.9,0,0,1,12.51,3.89Z"/><path class="f5bffbe6-422d-47de-a65e-5945caa8e4d9" d="M9.38,17.46a.9.9,0,0,1-.9-.9V10.3a.9.9,0,0,1,1.8,0v6.26A.9.9,0,0,1,9.38,17.46Z"/><path class="f5bffbe6-422d-47de-a65e-5945caa8e4d9" d="M12.51,14.33H6.25a.9.9,0,0,1,0-1.8h6.26a.9.9,0,1,1,0,1.8Z"/><path class="f5bffbe6-422d-47de-a65e-5945caa8e4d9" d="M9.38,22.68a9.25,9.25,0,1,1,7.95-4.52.9.9,0,0,1-1.55-.93,7.35,7.35,0,0,0,1-3.8,7.45,7.45,0,1,0-7.45,7.45,7.38,7.38,0,0,0,1.87-.24.91.91,0,0,1,1.1.65.9.9,0,0,1-.65,1.09A9.06,9.06,0,0,1,9.38,22.68Z"/><path class="f5bffbe6-422d-47de-a65e-5945caa8e4d9" d="M33.4,26.85a5.08,5.08,0,1,1,5.09-5.08A5.08,5.08,0,0,1,33.4,26.85Zm0-8.36a3.29,3.29,0,1,0,3.28,3.28A3.29,3.29,0,0,0,33.4,18.49Z"/><path class="f5bffbe6-422d-47de-a65e-5945caa8e4d9" d="M44.87,38.74A5.67,5.67,0,0,1,40,36.07c-.73-1.07-3.21-5.32-4.21-7.38a.9.9,0,1,1,1.61-.79c1,2.05,3.46,6.23,4.12,7.2a3.87,3.87,0,0,0,4.2,1.73c1.3-.4,1.84-1.94,1.47-4.21-.12-.73-.29-1.92-.5-3.37-.44-3-1-7-1.59-10.19a.9.9,0,0,1,1.78-.32C47.43,21.93,48,26,48.46,29c.21,1.43.38,2.61.5,3.33.76,4.76-1.88,6-2.71,6.22A4.84,4.84,0,0,1,44.87,38.74Z"/><path class="f5bffbe6-422d-47de-a65e-5945caa8e4d9" d="M42.81,3.89A.91.91,0,0,1,41.9,3c0-.65-.4-1.19-.88-1.19H38.33c-.48,0-.89.54-.89,1.19a.9.9,0,1,1-1.8,0,2.86,2.86,0,0,1,2.69-3H41a2.86,2.86,0,0,1,2.69,3A.91.91,0,0,1,42.81,3.89Z"/><path class="f5bffbe6-422d-47de-a65e-5945caa8e4d9" d="M39.65,17.46a.9.9,0,0,1-.9-.9V14.47a.9.9,0,1,1,1.8,0v2.09A.9.9,0,0,1,39.65,17.46Z"/><path class="f5bffbe6-422d-47de-a65e-5945caa8e4d9" d="M39.65,13.28a.9.9,0,0,1-.9-.9V10.3a.9.9,0,1,1,1.8,0v2.08A.9.9,0,0,1,39.65,13.28Z"/><path class="f5bffbe6-422d-47de-a65e-5945caa8e4d9" d="M38.61,14.33H36.52a.9.9,0,1,1,0-1.8h2.09a.9.9,0,0,1,0,1.8Z"/><path class="f5bffbe6-422d-47de-a65e-5945caa8e4d9" d="M42.79,14.33H40.7a.9.9,0,1,1,0-1.8h2.09a.9.9,0,0,1,0,1.8Z"/><path class="f5bffbe6-422d-47de-a65e-5945caa8e4d9" d="M39.67,22.68a9.43,9.43,0,0,1-2.31-.29.9.9,0,0,1,.45-1.75,7.24,7.24,0,0,0,1.86.24,7.45,7.45,0,1,0-7.45-7.45,7.35,7.35,0,0,0,1.05,3.8.9.9,0,0,1-1.55.93,9.26,9.26,0,1,1,8,4.52Z"/></g></g></svg>