<svg xmlns="http://www.w3.org/2000/svg" viewBox="0 0 15.15 18.62"><defs><style>.be29970d-c323-4f50-9d4f-178ee8167964{fill:#b0c1c0;}</style></defs><g id="b20bbc8d-7707-4779-a492-53ac2275440f" data-name="Layer 2"><g id="bef4c9da-2cdf-4aab-89e6-371d18f66c09" data-name="Layer 2"><path class="be29970d-c323-4f50-9d4f-178ee8167964" d="M9.36,18.2A.41.41,0,0,1,9,17.79v-5a.41.41,0,0,1,.41-.41h5a.41.41,0,0,1,.42.41.42.42,0,0,1-.42.42H9.78v4.54a.41.41,0,0,1-.42.41"/><path class="be29970d-c323-4f50-9d4f-178ee8167964" d="M9.36,18.62H.83A.83.83,0,0,1,0,17.79V.83A.83.83,0,0,1,.83,0H14.32a.83.83,0,0,1,.83.83v12a.87.87,0,0,1-.24.59l-5,5a.87.87,0,0,1-.59.24M1.65,17H9l4.48-4.47V1.65H1.65Z"/><path class="be29970d-c323-4f50-9d4f-178ee8167964" d="M8.47,4.37H3.61a.41.41,0,0,1,0-.82H8.47a.41.41,0,0,1,0,.82"/><path class="be29970d-c323-4f50-9d4f-178ee8167964" d="M11.67,6.37H3.61A.41.41,0,0,1,3.2,6a.42.42,0,0,1,.41-.42h8.06a.41.41,0,0,1,.41.42.41.41,0,0,1-.41.41"/><path class="be29970d-c323-4f50-9d4f-178ee8167964" d="M11.67,8.37H3.61a.42.42,0,0,1,0-.83h8.06a.42.42,0,0,1,0,.83"/><path class="be29970d-c323-4f50-9d4f-178ee8167964" d="M7,10.37H3.61a.42.42,0,0,1,0-.83H7a.42.42,0,0,1,0,.83"/></g></g></svg>