<svg xmlns="http://www.w3.org/2000/svg" viewBox="0 0 17.84 17.15"><defs><style>.e574dd2f-ca31-4997-a488-33940cf93f6c{fill:#b0c1c0;}</style></defs><g id="a654245d-0127-42e9-bd8e-2be4b2862fe6" data-name="Layer 2"><g id="bf06fe20-2ce8-43ac-aeb3-7f0acc2ff298" data-name="Layer 2"><path class="e574dd2f-ca31-4997-a488-33940cf93f6c" d="M8.92,8.2A.89.89,0,0,1,8.43,8L5.75,6.57a.83.83,0,1,1,1-1.34L8.92,6.35l2.19-1.12a.83.83,0,0,1,1.16.18.84.84,0,0,1-.18,1.16L9.4,8a.84.84,0,0,1-.48.16"/><path class="e574dd2f-ca31-4997-a488-33940cf93f6c" d="M8.92,8.2a.83.83,0,0,1-.83-.83V.83A.83.83,0,0,1,8.92,0a.82.82,0,0,1,.82.83V7.37a.82.82,0,0,1-.82.83"/><path class="e574dd2f-ca31-4997-a488-33940cf93f6c" d="M17,17.15H.83A.83.83,0,0,1,0,16.32V10.47a.83.83,0,0,1,.83-.83H6.2a.82.82,0,0,1,.82.83v1.17h3.79V10.47a.83.83,0,0,1,.83-.83H17a.83.83,0,0,1,.83.83v5.85a.83.83,0,0,1-.83.83M1.65,15.49H16.18V11.3H12.46v.34a1.65,1.65,0,0,1-1.65,1.65H7a1.65,1.65,0,0,1-1.65-1.65V11.3H1.65Z"/><path class="e574dd2f-ca31-4997-a488-33940cf93f6c" d="M.83,11.3a.82.82,0,0,1-.58-.24.83.83,0,0,1,0-1.17L3,7A.82.82,0,0,1,4.17,8.18L1.42,11a.82.82,0,0,1-.59.26"/><path class="e574dd2f-ca31-4997-a488-33940cf93f6c" d="M17,11.3a.82.82,0,0,1-.59-.26L13.66,8.18a.81.81,0,0,1,0-1.16.82.82,0,0,1,1.17,0L17.6,9.89A.83.83,0,0,1,17,11.3"/></g></g></svg>