<svg xmlns="http://www.w3.org/2000/svg" viewBox="0 0 20.62 13.55"><defs><style>.b7b15c08-a5ea-45d3-858d-6469fcb90854{fill:#b0c1c0;}</style></defs><g id="ae99fe3e-9831-4de7-a7f5-84fd45af871c" data-name="Layer 2"><g id="bf292a1e-062e-4622-8cbf-63e7a5a29db1" data-name="Layer 2"><path class="b7b15c08-a5ea-45d3-858d-6469fcb90854" d="M10.09,9.72a.75.75,0,0,1-.33-.07L.5,5.62A.83.83,0,0,1,.5,4.1l9.26-4a.84.84,0,0,1,.66,0l9.26,4a.83.83,0,0,1,0,1.52l-9.26,4a.78.78,0,0,1-.33.07M2.9,4.86,10.09,8l7.19-3.13L10.09,1.73Z"/><path class="b7b15c08-a5ea-45d3-858d-6469fcb90854" d="M10.09,13.55a12.91,12.91,0,0,1-7.25-2.26.81.81,0,0,1-.36-.68V6.2a.82.82,0,0,1,.82-.83.83.83,0,0,1,.83.83v4a11.1,11.1,0,0,0,11.91,0v-4a.83.83,0,0,1,1.66,0v4.41a.82.82,0,0,1-.37.68,12.88,12.88,0,0,1-7.24,2.26"/><path class="b7b15c08-a5ea-45d3-858d-6469fcb90854" d="M19.8,11.3a.42.42,0,0,1-.42-.42V4.82a.41.41,0,0,1,.42-.41.41.41,0,0,1,.41.41v6.06a.41.41,0,0,1-.41.42"/><path class="b7b15c08-a5ea-45d3-858d-6469fcb90854" d="M19.8,11.71a.83.83,0,0,1-.83-.83V8a.83.83,0,1,1,1.65,0v2.89a.83.83,0,0,1-.82.83"/></g></g></svg>