<svg xmlns="http://www.w3.org/2000/svg" viewBox="0 0 44.43 31.96"><defs><style>.fac8aece-b670-4b0d-bc9c-c61a0a439cf7{fill:#728783;}</style></defs><g id="ae8126f0-38fa-4817-9762-ad970dba6ad3" data-name="Layer 2"><g id="a6e41483-736a-479b-b1be-23133688b614" data-name="Layer 2"><path class="fac8aece-b670-4b0d-bc9c-c61a0a439cf7" d="M22.3,32c-10,0-18.41-9.65-21.56-13.8a3.63,3.63,0,0,1,0-4.37C3.83,9.65,12.14,0,22.13,0S40.54,9.65,43.69,13.8h0a3.63,3.63,0,0,1,0,4.36C40.6,22.31,32.29,32,22.3,32ZM22.13,1.8c-9.18,0-17,9.14-20,13.07a1.82,1.82,0,0,0,0,2.2C5.16,21,13.11,30.16,22.3,30.16s17-9.15,20-13.08a1.8,1.8,0,0,0,0-2.19C39.27,11,31.31,1.8,22.13,1.8Z"/><path class="fac8aece-b670-4b0d-bc9c-c61a0a439cf7" d="M22.36,23.29A7.38,7.38,0,0,1,14.93,16a7.53,7.53,0,0,1,.17-1.56.9.9,0,0,1,1.27-.61,2,2,0,0,0,2.49-3.07.92.92,0,0,1-.17-.77.93.93,0,0,1,.5-.6A7.45,7.45,0,0,1,29.79,16,7.38,7.38,0,0,1,22.36,23.29Zm-5.63-7.51V16a5.63,5.63,0,1,0,5.63-5.51,5.5,5.5,0,0,0-1.51.2A4,4,0,0,1,21,12.86,3.85,3.85,0,0,1,18.2,15.7,4.06,4.06,0,0,1,16.73,15.78Z"/><path class="fac8aece-b670-4b0d-bc9c-c61a0a439cf7" d="M28.89,27.5a.9.9,0,0,1-.44-1.69,11.17,11.17,0,0,0,5.26-9.68c0-4.08-2.11-8-5.26-9.73a.9.9,0,1,1,.88-1.57c3.7,2.05,6.18,6.59,6.18,11.3S33,25.33,29.33,27.39A1,1,0,0,1,28.89,27.5Z"/><path class="fac8aece-b670-4b0d-bc9c-c61a0a439cf7" d="M15.54,27.5a1,1,0,0,1-.44-.11A13.05,13.05,0,0,1,8.91,16.13c0-4.71,2.49-9.25,6.19-11.3A.9.9,0,0,1,16,6.4c-3.14,1.74-5.26,5.65-5.26,9.73A11.19,11.19,0,0,0,16,25.81a.9.9,0,0,1-.43,1.69Z"/></g></g></svg>