<svg xmlns="http://www.w3.org/2000/svg" viewBox="0 0 33.71 44.36"><defs><style>.e435061f-7235-4e26-93d6-4f43e2204847{fill:#728783;}</style></defs><g id="aa3c4b32-090b-46d5-be9f-71e4bb12f8a0" data-name="Layer 2"><g id="abe6308c-acb9-4de1-8966-d2dbd95d85c6" data-name="Layer 2"><path class="e435061f-7235-4e26-93d6-4f43e2204847" d="M17.75,39H2.67A2.68,2.68,0,0,1,0,36.37V2.67A2.68,2.68,0,0,1,2.67,0H22.18a.9.9,0,0,1,.64.26l7.09,7.1a.89.89,0,0,1,.27.63v20.4a.9.9,0,0,1-1.8,0v-20L21.81,1.8H2.67a.87.87,0,0,0-.87.87v33.7a.87.87,0,0,0,.87.87H17.75a.9.9,0,0,1,0,1.8Z"/><path class="e435061f-7235-4e26-93d6-4f43e2204847" d="M26.62,9.78H21.29a.9.9,0,0,1-.9-.9V3.56a.91.91,0,0,1,1.81,0V8h4.42a.9.9,0,0,1,0,1.8Z"/><path class="e435061f-7235-4e26-93d6-4f43e2204847" d="M28.7,44.36a2.3,2.3,0,0,1-.45,0,1.77,1.77,0,0,1-1.12-.8l-2.74-4.83-2.59,2.5a1.4,1.4,0,0,1-1.51.35,1.34,1.34,0,0,1-.78-1.26V25.2a.89.89,0,0,1,.49-.8.93.93,0,0,1,.94.07l12.21,8.87a1.78,1.78,0,0,1-1,3H29.59L32,40.54a2,2,0,0,1-.76,2.62L29.84,44A2.15,2.15,0,0,1,28.7,44.36Zm-4.1-8h.13a.92.92,0,0,1,.65.45l3.3,5.82s.09,0,.2-.1l1.38-.86a.35.35,0,0,0,.16-.22l-3.17-5.49A.9.9,0,0,1,28,34.58h3.76L21.31,27V39.15L24,36.58A.88.88,0,0,1,24.6,36.33Zm7.54-1.5Z"/></g></g></svg>