<svg xmlns="http://www.w3.org/2000/svg" viewBox="0 0 19.24 19.88"><defs><style>.a2915f54-8ffd-4d45-a59a-400f6c483a22{fill:#b0c1c0;}</style></defs><g id="bf6aa788-ab79-45dd-a779-176db3efaf04" data-name="Layer 2"><g id="faf3f466-be2a-4358-8ebd-40d3e27997f1" data-name="Layer 2"><path class="a2915f54-8ffd-4d45-a59a-400f6c483a22" d="M17.28,19.88H1.61A1.61,1.61,0,0,1,0,18.27V9.32A1.62,1.62,0,0,1,1.61,7.71H17.28a1.62,1.62,0,0,1,1.61,1.61v9a1.61,1.61,0,0,1-1.61,1.61Zm0-10.56-15.63,0,0,8.9,15.59,0V9.32Z"/><path class="a2915f54-8ffd-4d45-a59a-400f6c483a22" d="M17.17,8.66l-.24,0L1.42,6.37A1.59,1.59,0,0,1,.36,5.74a1.63,1.63,0,0,1-.3-1.19L.53,1.38A1.6,1.6,0,0,1,2.35,0L17.86,2.29a1.6,1.6,0,0,1,1.36,1.82l-.46,3.17a1.62,1.62,0,0,1-1.59,1.38Zm-15.06-7L1.7,4.79,17.13,7l.46-3.13L2.11,1.65Z"/><path class="a2915f54-8ffd-4d45-a59a-400f6c483a22" d="M17.87,13H.76a.41.41,0,1,1,0-.82H17.87a.41.41,0,0,1,0,.82Z"/><path class="a2915f54-8ffd-4d45-a59a-400f6c483a22" d="M2.49,12.71a.43.43,0,0,1-.22-.06.42.42,0,0,1-.13-.57L4.3,8.65A.41.41,0,1,1,5,9.09L2.84,12.52a.42.42,0,0,1-.35.19Z"/><path class="a2915f54-8ffd-4d45-a59a-400f6c483a22" d="M6.25,12.71A.4.4,0,0,1,6,12.65a.41.41,0,0,1-.14-.57L8.05,8.65a.41.41,0,0,1,.57-.13.42.42,0,0,1,.13.57L6.59,12.52a.4.4,0,0,1-.34.19Z"/><path class="a2915f54-8ffd-4d45-a59a-400f6c483a22" d="M10,12.71a.43.43,0,0,1-.22-.06.42.42,0,0,1-.13-.57l2.16-3.43a.41.41,0,1,1,.69.44l-2.15,3.43a.42.42,0,0,1-.35.19Z"/><path class="a2915f54-8ffd-4d45-a59a-400f6c483a22" d="M13.75,12.71a.46.46,0,0,1-.22-.06.41.41,0,0,1-.12-.57l2.15-3.43a.41.41,0,0,1,.57-.13.42.42,0,0,1,.13.57L14.1,12.52a.41.41,0,0,1-.35.19Z"/><path class="a2915f54-8ffd-4d45-a59a-400f6c483a22" d="M4.66,5.63a.41.41,0,0,1-.38-.25L2.65,1.68a.41.41,0,1,1,.75-.33L5,5.05a.41.41,0,0,1-.21.54.38.38,0,0,1-.17,0Z"/><path class="a2915f54-8ffd-4d45-a59a-400f6c483a22" d="M8.37,6.17A.4.4,0,0,1,8,5.93L6.36,2.22a.41.41,0,0,1,.21-.54.41.41,0,0,1,.55.21l1.63,3.7a.41.41,0,0,1-.21.55.47.47,0,0,1-.17,0Z"/><path class="a2915f54-8ffd-4d45-a59a-400f6c483a22" d="M12.09,6.72a.41.41,0,0,1-.38-.25l-1.63-3.7a.41.41,0,1,1,.75-.34l1.64,3.71a.41.41,0,0,1-.21.54.35.35,0,0,1-.17,0Z"/><path class="a2915f54-8ffd-4d45-a59a-400f6c483a22" d="M15.81,7.26A.41.41,0,0,1,15.43,7l-1.64-3.7A.42.42,0,0,1,14,2.76a.43.43,0,0,1,.55.22l1.63,3.7a.4.4,0,0,1-.21.54.32.32,0,0,1-.16,0Z"/></g></g></svg>