<svg xmlns="http://www.w3.org/2000/svg" viewBox="0 0 29.59 40.23"><defs><style>.b023769f-67a7-4053-803a-b84da0b97e3b{fill:#728783;}</style></defs><g id="bad9b866-d90f-4684-aebe-dbc7ece76281" data-name="Layer 2"><g id="b4b6ab41-e6c5-4f85-b505-b72626334377" data-name="Layer 2"><path class="b023769f-67a7-4053-803a-b84da0b97e3b" d="M3.5,37.22a.9.9,0,0,1-.12-1.79A17.44,17.44,0,0,0,15.54,27.7a.9.9,0,0,1,1.51,1A19.25,19.25,0,0,1,3.63,37.21Z"/><path class="b023769f-67a7-4053-803a-b84da0b97e3b" d="M17.87,25.86a1,1,0,0,1-.33-.06A.91.91,0,0,1,17,24.63a17.2,17.2,0,0,0,1.21-6.36.9.9,0,0,1,1.8,0,19.08,19.08,0,0,1-1.33,7A.89.89,0,0,1,17.87,25.86Z"/><path class="b023769f-67a7-4053-803a-b84da0b97e3b" d="M27.82,27a.9.9,0,0,1-.9-.9V18.27a12.1,12.1,0,0,0-1.87-6.47.9.9,0,0,1,1.53-1,13.91,13.91,0,0,1,2.14,7.43v7.81A.9.9,0,0,1,27.82,27Z"/><path class="b023769f-67a7-4053-803a-b84da0b97e3b" d="M23.65,9.61A.88.88,0,0,1,23,9.38,12.13,12.13,0,0,0,6.92,9,.9.9,0,1,1,5.75,7.68a13.92,13.92,0,0,1,18.51.37.9.9,0,0,1-.61,1.56Z"/><path class="b023769f-67a7-4053-803a-b84da0b97e3b" d="M1.77,20a.9.9,0,0,1-.9-.9v-.87a13.83,13.83,0,0,1,2.57-8.06A.89.89,0,0,1,4.69,10a.91.91,0,0,1,.22,1.26,12,12,0,0,0-2.24,7v.87A.9.9,0,0,1,1.77,20Z"/><path class="b023769f-67a7-4053-803a-b84da0b97e3b" d="M19.14,19.17a.9.9,0,0,1-.9-.9,3.45,3.45,0,0,0-6-2.3.9.9,0,1,1-1.34-1.2A5.25,5.25,0,0,1,20,18.27.91.91,0,0,1,19.14,19.17Z"/><path class="b023769f-67a7-4053-803a-b84da0b97e3b" d="M.9,28.72a.9.9,0,1,1,0-1.8,8.61,8.61,0,0,0,8.65-8.39.9.9,0,0,1,.93-.87.91.91,0,0,1,.87.93A10.41,10.41,0,0,1,.9,28.72Z"/><path class="b023769f-67a7-4053-803a-b84da0b97e3b" d="M28.69,31.32a6.12,6.12,0,0,1-6.11-6.11V18.27a7.7,7.7,0,0,0-1.22-4.18.9.9,0,1,1,1.52-1,9.55,9.55,0,0,1,1.5,5.15v6.94a4.31,4.31,0,0,0,4.31,4.31.9.9,0,1,1,0,1.8Z"/><path class="b023769f-67a7-4053-803a-b84da0b97e3b" d="M20,12.22a.94.94,0,0,1-.54-.18,7.7,7.7,0,0,0-4.67-1.56,6.66,6.66,0,0,0-3,.76.9.9,0,0,1-1.22-.35.89.89,0,0,1,.34-1.22,8.43,8.43,0,0,1,3.91-1,9.49,9.49,0,0,1,5.75,1.92.9.9,0,0,1,.18,1.26A.87.87,0,0,1,20,12.22Z"/><path class="b023769f-67a7-4053-803a-b84da0b97e3b" d="M.9,24.38a.9.9,0,0,1,0-1.8,4.32,4.32,0,0,0,4.31-4.31,9.61,9.61,0,0,1,2.86-6.71.9.9,0,0,1,1.29,1.26A7.79,7.79,0,0,0,7,18.27,6.12,6.12,0,0,1,.9,24.38Z"/><path class="b023769f-67a7-4053-803a-b84da0b97e3b" d="M27,36.11a.55.55,0,0,1-.18,0c-2.85-.58-5.12-2.3-7.16-5.39a.9.9,0,0,1,1.51-1c1.77,2.71,3.63,4.13,6,4.62a.9.9,0,0,1,.7,1.06A.89.89,0,0,1,27,36.11Z"/><path class="b023769f-67a7-4053-803a-b84da0b97e3b" d="M7.85,40.23a.9.9,0,0,1-.16-1.79,16.38,16.38,0,0,0,6.75-3.23,4.45,4.45,0,0,1,5.66.22A17.29,17.29,0,0,0,23.87,38a.9.9,0,1,1-.79,1.62,19.35,19.35,0,0,1-4.17-2.79,2.66,2.66,0,0,0-3.39-.14A18.2,18.2,0,0,1,8,40.21Z"/><path class="b023769f-67a7-4053-803a-b84da0b97e3b" d="M11,28.72a.88.88,0,0,1-.62-.25.9.9,0,0,1,0-1.27,12.94,12.94,0,0,0,3.55-8.93V17.4a.9.9,0,1,1,1.8,0v.87a14.7,14.7,0,0,1-4,10.17A.9.9,0,0,1,11,28.72Z"/><path class="b023769f-67a7-4053-803a-b84da0b97e3b" d="M.9,33.06a.9.9,0,1,1,0-1.8,13,13,0,0,0,6.84-1.94.9.9,0,1,1,.95,1.53A14.76,14.76,0,0,1,.9,33.06Z"/><path class="b023769f-67a7-4053-803a-b84da0b97e3b" d="M28,7.88a.9.9,0,0,1-.68-.32A16.48,16.48,0,0,0,14.79,1.8a16.32,16.32,0,0,0-4.73.76A.89.89,0,0,1,8.94,2,.91.91,0,0,1,9.54.84,17.81,17.81,0,0,1,14.79,0,18.27,18.27,0,0,1,28.68,6.39a.9.9,0,0,1-.1,1.27A.88.88,0,0,1,28,7.88Z"/><path class="b023769f-67a7-4053-803a-b84da0b97e3b" d="M1.6,7.88A.88.88,0,0,1,1,7.66a.9.9,0,0,1-.1-1.27A18.88,18.88,0,0,1,6.37,1.94a.89.89,0,0,1,1.21.38.88.88,0,0,1-.37,1.21,17.1,17.1,0,0,0-4.93,4A.9.9,0,0,1,1.6,7.88Z"/></g></g></svg>