<svg xmlns="http://www.w3.org/2000/svg" viewBox="0 0 14.54 19.56"><defs><style>.bd6cab98-c360-483c-a799-e9c6acebe68b{fill:#b0c1c0;}</style></defs><g id="af8b6c0d-c7f3-4c92-be66-8d2d74c5d7a2" data-name="Layer 2"><g id="fc04d381-0065-4b6e-a9df-44c76a9b38ad" data-name="Layer 2"><path class="bd6cab98-c360-483c-a799-e9c6acebe68b" d="M.83,19.56A.83.83,0,0,1,0,18.73V.83a.83.83,0,1,1,1.65,0v17.9a.83.83,0,0,1-.82.83"/><path class="bd6cab98-c360-483c-a799-e9c6acebe68b" d="M10.35,14.86c-1.75,0-4.6-2.3-6-2.3a4.22,4.22,0,0,0-3,1.31A.69.69,0,0,1,.55,14a.69.69,0,0,1-.42-.64V3.81A.75.75,0,0,1,.34,3.3a5.65,5.65,0,0,1,4-1.68c1.75,0,4.59,2.29,6,2.29a4.24,4.24,0,0,0,3-1.31.71.71,0,0,1,.85-.09.72.72,0,0,1,.31.8C13.75,5.93,13,6.58,12.12,8.9c.82,1.85,1.58,2.25,2.31,3.38a.7.7,0,0,1-.11.89,5.63,5.63,0,0,1-4,1.69m-6-3.7c1.75,0,4.59,2.3,6,2.3a4.11,4.11,0,0,0,2.58-.94c-.71-1.16-1.43-1.54-2.21-3.31a.75.75,0,0,1,0-.53c.67-1.8,1.29-1.9,1.9-3.86a5.27,5.27,0,0,1-2.25.49C8.6,5.31,5.75,3,4.32,3A4.15,4.15,0,0,0,1.53,4.13v7.81a5.32,5.32,0,0,1,2.79-.78"/></g></g></svg>