<svg xmlns="http://www.w3.org/2000/svg" viewBox="0 0 23.97 14.46"><defs><style>.fbbc48b2-5807-4d30-ae19-83a107d3a3d6{fill:#b0c1c0;}</style></defs><g id="ecca0057-eaed-4c0c-95aa-ad871ad50923" data-name="Layer 2"><g id="b5c43da5-e94f-451d-9ad6-b3f38bafbbb0" data-name="Layer 2"><path class="fbbc48b2-5807-4d30-ae19-83a107d3a3d6" d="M9,8.06H4.88a.83.83,0,1,1,0-1.66H9A.83.83,0,1,1,9,8.06Z"/><path class="fbbc48b2-5807-4d30-ae19-83a107d3a3d6" d="M7,10.14a.83.83,0,0,1-.83-.83V5.15a.83.83,0,0,1,1.65,0V9.31a.83.83,0,0,1-.82.83Z"/><path class="fbbc48b2-5807-4d30-ae19-83a107d3a3d6" d="M17.36,4.5a1,1,0,1,0,1,1,1,1,0,0,0-1-1Z"/><path class="fbbc48b2-5807-4d30-ae19-83a107d3a3d6" d="M17.36,8a1,1,0,1,0,1,1,1,1,0,0,0-1-1Z"/><path class="fbbc48b2-5807-4d30-ae19-83a107d3a3d6" d="M19.11,6.26a1,1,0,1,0,1,1,1,1,0,0,0-1-1Z"/><path class="fbbc48b2-5807-4d30-ae19-83a107d3a3d6" d="M15.6,6.26a1,1,0,1,0,1,1,1,1,0,0,0-1-1Z"/><path class="fbbc48b2-5807-4d30-ae19-83a107d3a3d6" d="M0,5.58A5.58,5.58,0,0,1,5.58,0H18.39A5.59,5.59,0,0,1,24,5.58v3.3a5.59,5.59,0,0,1-5.58,5.58H5.58A5.58,5.58,0,0,1,0,8.88m1.65,0a3.93,3.93,0,0,0,3.93,3.93H18.39a3.93,3.93,0,0,0,3.92-3.93V5.58a3.93,3.93,0,0,0-3.92-3.93H5.58A3.93,3.93,0,0,0,1.65,5.58Z"/></g></g></svg>