<svg xmlns="http://www.w3.org/2000/svg" viewBox="0 0 19.56 15.39"><defs><style>.b6f67834-8902-482e-a086-54ba03a5acf0{fill:#b0c1c0;}</style></defs><g id="f4097e41-4ea2-427e-9003-b5fa04c585f8" data-name="Layer 2"><g id="f8364e54-06a0-4978-9df5-510d40d72317" data-name="Layer 2"><path class="b6f67834-8902-482e-a086-54ba03a5acf0" d="M15.77,12.19a.83.83,0,0,1-.82-.83V6.82a5.17,5.17,0,1,0-10.34,0v4.54a.82.82,0,0,1-.82.83A.83.83,0,0,1,3,11.36V6.82a6.82,6.82,0,0,1,13.64,0v4.54a.83.83,0,0,1-.83.83"/><path class="b6f67834-8902-482e-a086-54ba03a5acf0" d="M15.91,12.19a.83.83,0,1,1,0-1.65,1.91,1.91,0,0,0,2-1.79,1.91,1.91,0,0,0-2-1.79.83.83,0,0,1,0-1.66,3.56,3.56,0,0,1,3.65,3.45,3.55,3.55,0,0,1-3.65,3.44"/><path class="b6f67834-8902-482e-a086-54ba03a5acf0" d="M3.65,12.19A3.55,3.55,0,0,1,0,8.75,3.56,3.56,0,0,1,3.65,5.3.83.83,0,1,1,3.65,7a1.91,1.91,0,0,0-2,1.79,1.91,1.91,0,0,0,2,1.79.83.83,0,1,1,0,1.65"/><path class="b6f67834-8902-482e-a086-54ba03a5acf0" d="M12.35,15h-.23a.83.83,0,0,1-.81-.85.81.81,0,0,1,.85-.8,3,3,0,0,0,2.3-.65,1.62,1.62,0,0,0,.48-1,.83.83,0,0,1,.82-.83h0a.83.83,0,0,1,.83.81,3.27,3.27,0,0,1-1,2.25A4.52,4.52,0,0,1,12.35,15"/><path class="b6f67834-8902-482e-a086-54ba03a5acf0" d="M11.86,12.76a1.32,1.32,0,1,0,1.31,1.32,1.32,1.32,0,0,0-1.31-1.32"/></g></g></svg>