<svg xmlns="http://www.w3.org/2000/svg" viewBox="0 0 37.79 50.13"><defs><style>.e63cfad6-d6de-4591-b053-51e10fd459d0{fill:#728783;}</style></defs><g id="aa9aa006-8bcf-4727-b9d4-289461d14ddb" data-name="Layer 2"><g id="bb8542e9-b55a-4a6a-ae4e-63354b5084f5" data-name="Layer 2"><path class="e63cfad6-d6de-4591-b053-51e10fd459d0" d="M17.35,40.87a.9.9,0,0,1-.9-.9V25.58a.9.9,0,1,1,1.8,0V40A.9.9,0,0,1,17.35,40.87Z"/><path class="e63cfad6-d6de-4591-b053-51e10fd459d0" d="M21.46,35.73a.9.9,0,0,1-.9-.9V22.49a.9.9,0,0,1,1.8,0V34.83A.9.9,0,0,1,21.46,35.73Z"/><path class="e63cfad6-d6de-4591-b053-51e10fd459d0" d="M11.18,28.53a.86.86,0,0,1-.55-.19.9.9,0,0,1-.35-.71V22.49a.94.94,0,0,1,.26-.63L14.39,18V8.1A11.32,11.32,0,0,1,18.92.15a.88.88,0,0,1,1,0,11.3,11.3,0,0,1,4.52,8V18l3.85,3.85a.89.89,0,0,1,.26.63v5.14a.89.89,0,0,1-.34.71.9.9,0,0,1-.77.17l-3.16-.79A.9.9,0,0,1,24.69,26l2,.51V22.87L22.88,19a.94.94,0,0,1-.26-.64V8.1A9.75,9.75,0,0,0,19.41,2,9.75,9.75,0,0,0,16.2,8.1V18.38a.91.91,0,0,1-.27.64l-3.85,3.85v3.61l2-.5a.9.9,0,0,1,.44,1.74l-3.14.79A.82.82,0,0,1,11.18,28.53Z"/><path class="e63cfad6-d6de-4591-b053-51e10fd459d0" d="M19.41,11.06a.9.9,0,0,1-.9-.9V8.1a.9.9,0,1,1,1.8,0v2.06A.9.9,0,0,1,19.41,11.06Z"/><path class="e63cfad6-d6de-4591-b053-51e10fd459d0" d="M1.2,49.1a.91.91,0,0,1-.87-.64A8.12,8.12,0,0,1,8.1,38.05a8,8,0,0,1,4.62,1.45.9.9,0,1,1-1,1.47,6.3,6.3,0,0,0-9.63,7,.9.9,0,0,1-.6,1.12A.82.82,0,0,1,1.2,49.1Z"/><path class="e63cfad6-d6de-4591-b053-51e10fd459d0" d="M7.17,39.91a.9.9,0,0,1-.89-.74,7.45,7.45,0,0,1-.11-1.25,7.08,7.08,0,0,1,7.07-7.07.9.9,0,1,1,0,1.8A5.27,5.27,0,0,0,8,37.92a5.74,5.74,0,0,0,.08.93.9.9,0,0,1-.72,1Z"/><path class="e63cfad6-d6de-4591-b053-51e10fd459d0" d="M25.58,39a.9.9,0,0,1-.9-.9V30.72a.9.9,0,1,1,1.8,0v7.41A.9.9,0,0,1,25.58,39Z"/><path class="e63cfad6-d6de-4591-b053-51e10fd459d0" d="M36.89,50.13a.9.9,0,0,1-.9-.9,4.24,4.24,0,0,0-7.15-3.09.9.9,0,1,1-1.23-1.31,6,6,0,0,1,10.18,4.4A.9.9,0,0,1,36.89,50.13Z"/><path class="e63cfad6-d6de-4591-b053-51e10fd459d0" d="M32.74,45.09h-.1a.89.89,0,0,1-.79-1,4.41,4.41,0,0,0,0-.52,4.76,4.76,0,0,0-9-2.16.9.9,0,0,1-1.6-.82,6.56,6.56,0,0,1,12.4,3c0,.24,0,.48,0,.72A.91.91,0,0,1,32.74,45.09Z"/></g></g></svg>