<svg xmlns="http://www.w3.org/2000/svg" viewBox="0 0 20.83 19.83"><defs><style>.fbcc2f44-255e-48e1-9011-3a178c4898d3{fill:#b0c1c0;}</style></defs><g id="b9e140b0-bd3b-4ee9-bb1c-d50fd16366aa" data-name="Layer 2"><g id="ababbf98-f30e-411e-8d00-6e6319f2e058" data-name="Layer 2"><path class="fbcc2f44-255e-48e1-9011-3a178c4898d3" d="M10.45,12.4a.8.8,0,0,1-.4-.11L.42,6.9a.83.83,0,0,1,0-1.44L10,.11a.81.81,0,0,1,.81,0L20.41,5.5a.82.82,0,0,1,.42.72.83.83,0,0,1-.42.72l-9.55,5.35a.87.87,0,0,1-.41.11ZM2.52,6.18l7.93,4.44,7.86-4.4L10.38,1.77,2.52,6.18Z"/><path class="fbcc2f44-255e-48e1-9011-3a178c4898d3" d="M10.45,16.12a.8.8,0,0,1-.4-.11L.42,10.62A.81.81,0,0,1,.11,9.5a.81.81,0,0,1,1.12-.32l9.22,5.16L19.6,9.22a.82.82,0,0,1,1.13.31.84.84,0,0,1-.32,1.13L10.86,16a.87.87,0,0,1-.41.11Z"/><path class="fbcc2f44-255e-48e1-9011-3a178c4898d3" d="M10.45,19.83a.79.79,0,0,1-.4-.1L.42,14.34a.83.83,0,0,1,.81-1.44l9.22,5.16,9.15-5.13a.83.83,0,0,1,.81,1.45l-9.55,5.35a.86.86,0,0,1-.41.1Z"/></g></g></svg>