<svg xmlns="http://www.w3.org/2000/svg" viewBox="0 0 17.17 17.6"><defs><style>.b83e3bb6-767b-4633-a412-3acdd070fc24{fill:#b0c1c0;}</style></defs><g id="a14defe0-92a6-49be-a0d6-e35a36fe6891" data-name="Layer 2"><g id="f576238b-67c3-48a5-b92b-fbc953b61437" data-name="Layer 2"><path class="b83e3bb6-767b-4633-a412-3acdd070fc24" d="M13.21,14.25a.83.83,0,0,1-.67-1.31L15.33,8.8,12.54,4.66a.82.82,0,0,1,1.33-1L17,8.31a.84.84,0,0,1,0,1l-3.15,4.62a.82.82,0,0,1-.66.34"/><path class="b83e3bb6-767b-4633-a412-3acdd070fc24" d="M16.35,9.63H7.75A.83.83,0,0,1,7.75,8h8.6a.83.83,0,0,1,0,1.66"/><path class="b83e3bb6-767b-4633-a412-3acdd070fc24" d="M.83,17.6A.83.83,0,0,1,0,16.77V.83a.83.83,0,1,1,1.65,0V16.77a.83.83,0,0,1-.82.83"/><path class="b83e3bb6-767b-4633-a412-3acdd070fc24" d="M10.24,17.6H.83A.83.83,0,1,1,.83,16h9.41a.83.83,0,0,1,0,1.65"/><path class="b83e3bb6-767b-4633-a412-3acdd070fc24" d="M10.24,1.65H.83A.83.83,0,1,1,.83,0h9.41a.83.83,0,0,1,0,1.65"/></g></g></svg>