<svg xmlns="http://www.w3.org/2000/svg" viewBox="0 0 23.29 17.73"><defs><style>.ad536e2f-c069-4d6d-b7f2-b06bc9e8f86a{fill:#b0c1c0;}</style></defs><g id="acad1037-e56b-4ebc-80bc-49f3c9f2b0ae" data-name="Layer 2"><g id="e0a6be4b-fbc7-4f9a-a3c4-6ad3060dea67" data-name="Layer 2"><path class="ad536e2f-c069-4d6d-b7f2-b06bc9e8f86a" d="M21.36,9.9H11.28v-8H21.36ZM23.29,0H9.35V11.83H23.29Z"/><path class="ad536e2f-c069-4d6d-b7f2-b06bc9e8f86a" d="M15.4,14.92H10.1a1,1,0,0,1,0-1.93h5.3a1,1,0,0,1,0,1.93"/><path class="ad536e2f-c069-4d6d-b7f2-b06bc9e8f86a" d="M19.53,14.47a.81.81,0,1,1-.8.81.81.81,0,0,1,.8-.81m0-1.65A2.46,2.46,0,1,0,22,15.28a2.46,2.46,0,0,0-2.46-2.46"/><path class="ad536e2f-c069-4d6d-b7f2-b06bc9e8f86a" d="M6.15,5.75V9.88a5.4,5.4,0,0,0-4.22,2V9.71l2-4h2.2M8.08,3.82H2.77L0,9.25v5.67H2.73a3.45,3.45,0,0,1,5.35-2.53Z"/><path class="ad536e2f-c069-4d6d-b7f2-b06bc9e8f86a" d="M6.17,14.47a.81.81,0,1,1-.8.81.8.8,0,0,1,.8-.81m0-1.65a2.46,2.46,0,1,0,2.46,2.46,2.46,2.46,0,0,0-2.46-2.46"/></g></g></svg>