<svg xmlns="http://www.w3.org/2000/svg" viewBox="0 0 18.65 19.65"><defs><style>.f0d9d872-248c-4978-bcde-a768740c0d65{fill:#b0c1c0;}</style></defs><g id="a521646a-f1ae-4517-a8ed-638092c98e19" data-name="Layer 2"><g id="f78635dc-2d89-4896-b6e8-c75d35ab9598" data-name="Layer 2"><path class="f0d9d872-248c-4978-bcde-a768740c0d65" d="M9.32,19.65A45.74,45.74,0,0,1,2,19.07a2.35,2.35,0,0,1-1.82-2c-.07-.68-.14-1.35-.2-2a2.66,2.66,0,0,1,1.33-2.45A18.54,18.54,0,0,1,6.28,11l0-.19a2.14,2.14,0,0,1-.81-1.37c0-.16,0-.32-.05-.48a1.17,1.17,0,0,1-.71-1l-.2-1.92a1.13,1.13,0,0,1,.25-.86,1.26,1.26,0,0,1,.2-.2l-.06-.58a3.62,3.62,0,0,1,1-3.21A5,5,0,0,1,9.32,0a5,5,0,0,1,3.52,1.26,3.62,3.62,0,0,1,.94,3.19v.16c0,.15,0,.29,0,.42a1.8,1.8,0,0,1,.2.19,1.16,1.16,0,0,1,.25.88L14,8a1.17,1.17,0,0,1-.71,1l-.06.5a2.11,2.11,0,0,1-.8,1.35l0,.19a18.38,18.38,0,0,1,4.9,1.53A2.68,2.68,0,0,1,18.64,15l-.2,2a2.36,2.36,0,0,1-1.8,2,46.21,46.21,0,0,1-7.32.58M6.27,7.33l.11,0A.82.82,0,0,1,6.94,8L7.09,9.3a1,1,0,0,0,.37.39.8.8,0,0,1,.38.58L8,11.61a.81.81,0,0,1-.17.62.77.77,0,0,1-.55.32,16.93,16.93,0,0,0-5.23,1.5,1,1,0,0,0-.42.81c.06.69.13,1.36.2,2a.7.7,0,0,0,.45.55,44.44,44.44,0,0,0,14.05,0,.7.7,0,0,0,.43-.55l.2-2a1,1,0,0,0-.45-.83,16.77,16.77,0,0,0-5.2-1.49.77.77,0,0,1-.55-.32.81.81,0,0,1-.17-.62l.2-1.34a.82.82,0,0,1,.37-.58,1,1,0,0,0,.37-.38L11.71,8a.81.81,0,0,1,.56-.68l.11,0,.1-.92a.57.57,0,0,1-.13-.08A.82.82,0,0,1,12,5.55V5.47c.05-.34.09-.67.12-1l0-.17a2.07,2.07,0,0,0-.43-1.82,3.46,3.46,0,0,0-2.39-.82A3.45,3.45,0,0,0,7,2.44,2.05,2.05,0,0,0,6.52,4.3l.14,1.26a.84.84,0,0,1-.36.78l-.13.07Z"/></g></g></svg>