<svg xmlns="http://www.w3.org/2000/svg" viewBox="0 0 19.14 19.14"><defs><style>.ecd8ee3e-c800-4ab5-9228-3a815024e9d8{fill:#b0c1c0;}</style></defs><g id="a6422cf2-c595-4503-8e49-5658359249c6" data-name="Layer 2"><g id="b094e0c7-f410-460b-b690-bf31cfe1a981" data-name="Layer 2"><path class="ecd8ee3e-c800-4ab5-9228-3a815024e9d8" d="M1.76,1.65H.83A.83.83,0,1,1,.83,0h.93a.83.83,0,0,1,0,1.65"/><path class="ecd8ee3e-c800-4ab5-9228-3a815024e9d8" d="M11.84,1.65h-.93a.83.83,0,0,1,0-1.65h.93a.83.83,0,1,1,0,1.65"/><path class="ecd8ee3e-c800-4ab5-9228-3a815024e9d8" d="M6.33,12A6.34,6.34,0,0,1,0,5.65V.83a.83.83,0,1,1,1.65,0V5.65a4.69,4.69,0,0,0,9.37,0V.83a.83.83,0,1,1,1.65,0V5.65A6.34,6.34,0,0,1,6.33,12"/><path class="ecd8ee3e-c800-4ab5-9228-3a815024e9d8" d="M11.39,19.14a5.92,5.92,0,0,1-5.91-5.91v-1.9a.83.83,0,1,1,1.65,0v1.9a4.26,4.26,0,0,0,8.51,0v-1.9a.83.83,0,1,1,1.66,0v1.9a5.92,5.92,0,0,1-5.91,5.91"/><path class="ecd8ee3e-c800-4ab5-9228-3a815024e9d8" d="M16.41,11.33a2.74,2.74,0,1,1,2.73-2.74,2.74,2.74,0,0,1-2.73,2.74m0-3.82a1.09,1.09,0,1,0,1.08,1.08,1.08,1.08,0,0,0-1.08-1.08"/></g></g></svg>