<svg xmlns="http://www.w3.org/2000/svg" viewBox="0 0 16.42 21.73"><defs><style>.ace33934-ad88-48b1-89c0-975b2f8ae952{fill:#b0c1c0;}</style></defs><g id="b63ae381-1b1a-4fae-a6cb-a8a9efa87dd3" data-name="Layer 2"><g id="fe363f55-718a-462c-bf4b-a343b09c1bce" data-name="Layer 2"><path class="ace33934-ad88-48b1-89c0-975b2f8ae952" d="M7.17,12.51a1.61,1.61,0,0,1-1.45-.91L2.22,4.24A1.61,1.61,0,0,1,2.16,3,1.56,1.56,0,0,1,3,2.11l2.1-1a1.65,1.65,0,0,1,2.14.76l3.5,7.35a1.64,1.64,0,0,1,.06,1.23,1.57,1.57,0,0,1-.82.91l-2.1,1a1.65,1.65,0,0,1-.69.15ZM5.73,2.58l-2,1,3.5,7.24,2.06-1L5.73,2.58Z"/><path class="ace33934-ad88-48b1-89c0-975b2f8ae952" d="M3.07,2.38A.83.83,0,0,1,2.72.8L4.24.08A.83.83,0,1,1,5,1.57L3.43,2.3a.94.94,0,0,1-.36.08Z"/><path class="ace33934-ad88-48b1-89c0-975b2f8ae952" d="M7.6,13.54A.83.83,0,0,1,7.24,12L10,10.63a.83.83,0,1,1,.71,1.5L8,13.46a.85.85,0,0,1-.35.08Z"/><path class="ace33934-ad88-48b1-89c0-975b2f8ae952" d="M8.71,20.44A8.71,8.71,0,0,1,2.94,5.2L4,6.43a7.06,7.06,0,1,0,10.54,9.24l1.37.92a8.72,8.72,0,0,1-7.23,3.85Zm0-2.2A6.53,6.53,0,0,1,2.2,11.72,6.46,6.46,0,0,1,4.11,7.11L5.28,8.28a4.86,4.86,0,0,0,3.43,8.3,4.77,4.77,0,0,0,2.72-.83,4.13,4.13,0,0,0,.42-.31l1.07,1.26a6,6,0,0,1-.57.42,6.44,6.44,0,0,1-3.64,1.12Z"/><path class="ace33934-ad88-48b1-89c0-975b2f8ae952" d="M15.6,16.94H9a.83.83,0,0,1,0-1.65h6.6a.83.83,0,0,1,0,1.65Z"/><path class="ace33934-ad88-48b1-89c0-975b2f8ae952" d="M12,21.73H5.42a.83.83,0,1,1,0-1.65H12a.83.83,0,1,1,0,1.65Z"/><path class="ace33934-ad88-48b1-89c0-975b2f8ae952" d="M11,21.73H4.38a.83.83,0,1,1,0-1.65H11a.83.83,0,1,1,0,1.65Z"/></g></g></svg>