<svg xmlns="http://www.w3.org/2000/svg" viewBox="0 0 20.03 21.39"><defs><style>.acec10a8-8b75-419c-b6e7-6a63a7ab4099{fill:#b0c1c0;}</style></defs><g id="a662c266-3ac8-4474-9c21-25f15966e9f8" data-name="Layer 2"><g id="b5509f33-70ee-4eee-bf95-a715e3a1fb9b" data-name="Layer 2"><path class="acec10a8-8b75-419c-b6e7-6a63a7ab4099" d="M6.34,11.19a.76.76,0,0,1-1.52,0,.76.76,0,0,1,1.52,0"/><path class="acec10a8-8b75-419c-b6e7-6a63a7ab4099" d="M12,9a4.51,4.51,0,1,1,4.51-4.51A4.51,4.51,0,0,1,12,9m0-7.37a2.86,2.86,0,1,0,2.86,2.86A2.86,2.86,0,0,0,12,1.65"/><path class="acec10a8-8b75-419c-b6e7-6a63a7ab4099" d="M14.76,21.39H13.53a1.85,1.85,0,0,1-1.81-1.46A11.24,11.24,0,0,1,8.6,20a1.84,1.84,0,0,1-1.8,1.41H5.57a1.86,1.86,0,0,1-1.86-1.85V17.9a7.3,7.3,0,0,1-1.94-2.52A1.86,1.86,0,0,1,0,13.53V12.29a1.86,1.86,0,0,1,1.77-1.85A7.18,7.18,0,0,1,3.71,7.92V6.65A.82.82,0,0,1,4.13,6a2.55,2.55,0,0,1,2.79.26,10,10,0,0,1,2-.4l.15,1.57A8.55,8.55,0,0,0,7,7.85a.8.8,0,0,1-.88-.25,1,1,0,0,0-.8-.38V8.29A.78.78,0,0,1,5,8.92a5.46,5.46,0,0,0-1.92,2.56.8.8,0,0,1-.75.54H1.85a.27.27,0,0,0-.27.27v1.24a.27.27,0,0,0,.27.27h.46a.8.8,0,0,1,.75.54A5.53,5.53,0,0,0,5,16.9a.76.76,0,0,1,.31.62v2a.28.28,0,0,0,.28.28H6.8a.29.29,0,0,0,.28-.28v-.49a.81.81,0,0,1,.29-.62A.8.8,0,0,1,8,18.28a9.25,9.25,0,0,0,4.22-.08.81.81,0,0,1,.69.14.79.79,0,0,1,.3.62v.58a.28.28,0,0,0,.28.28h1.23a.29.29,0,0,0,.28-.28v-2.3a.8.8,0,0,1,.27-.6,5,5,0,0,0,1.85-3.73.9.9,0,0,1,.17-.52.79.79,0,0,1-.28-.45A5.76,5.76,0,0,0,13.82,8.2l.7-1.41A7.85,7.85,0,0,1,18,10a.78.78,0,0,1,.43-.73.79.79,0,0,1,.92.16,2.54,2.54,0,0,1-.6,4,6.49,6.49,0,0,1-2.1,4.21v1.95a1.85,1.85,0,0,1-1.85,1.85"/></g></g></svg>