<svg xmlns="http://www.w3.org/2000/svg" viewBox="0 0 47.04 48.18"><defs><style>.f51d4eca-bdfc-4b3d-bfd4-e6ed8825aa14{fill:#728783;}</style></defs><g id="e28d8fd2-3593-4da1-8124-9284b105a007" data-name="Layer 2"><g id="b6b37aab-d6ac-49ca-b53c-a93270ca76bc" data-name="Layer 2"><path class="f51d4eca-bdfc-4b3d-bfd4-e6ed8825aa14" d="M23.52,20.42a.9.9,0,0,1-.9-.9V2a.9.9,0,0,1,1.8,0V19.52A.9.9,0,0,1,23.52,20.42Z"/><path class="f51d4eca-bdfc-4b3d-bfd4-e6ed8825aa14" d="M23.52,48.18a.93.93,0,0,1-.64-.26L18.77,43.8A.9.9,0,0,1,20,42.53L23.52,46,27,42.53a.9.9,0,0,1,1.27,1.27l-4.11,4.12A.93.93,0,0,1,23.52,48.18Z"/><path class="f51d4eca-bdfc-4b3d-bfd4-e6ed8825aa14" d="M27.63,5.91A.85.85,0,0,1,27,5.65L23.52,2.17,20,5.65a.9.9,0,0,1-1.27-1.27L22.88.26a.91.91,0,0,1,1.28,0l4.11,4.12a.9.9,0,0,1,0,1.27A.86.86,0,0,1,27.63,5.91Z"/><path class="f51d4eca-bdfc-4b3d-bfd4-e6ed8825aa14" d="M23.52,48.18a.9.9,0,0,1-.9-.9V29.8a.9.9,0,0,1,1.8,0V47.28A.9.9,0,0,1,23.52,48.18Z"/><path class="f51d4eca-bdfc-4b3d-bfd4-e6ed8825aa14" d="M42,29.67a.93.93,0,0,1-.64-.26.91.91,0,0,1,0-1.28l3.48-3.47-3.48-3.48a.9.9,0,0,1,0-1.27.91.91,0,0,1,1.28,0L46.78,24a.9.9,0,0,1,0,1.27l-4.11,4.12A.93.93,0,0,1,42,29.67Z"/><path class="f51d4eca-bdfc-4b3d-bfd4-e6ed8825aa14" d="M46.14,25.56H28.66a.9.9,0,0,1,0-1.8H46.14a.9.9,0,1,1,0,1.8Z"/><path class="f51d4eca-bdfc-4b3d-bfd4-e6ed8825aa14" d="M5,29.67a.89.89,0,0,1-.63-.26L.26,25.29A.9.9,0,0,1,.26,24l4.12-4.11a.9.9,0,0,1,1.27,1.27L2.17,24.66l3.48,3.47a.91.91,0,0,1,0,1.28A.93.93,0,0,1,5,29.67Z"/><path class="f51d4eca-bdfc-4b3d-bfd4-e6ed8825aa14" d="M18.38,25.56H.9a.9.9,0,1,1,0-1.8H18.38a.9.9,0,0,1,0,1.8Z"/><path class="f51d4eca-bdfc-4b3d-bfd4-e6ed8825aa14" d="M25.58,23.5a.93.93,0,0,1-.64-.26.91.91,0,0,1,0-1.28L27,19.91a.9.9,0,0,1,1.27,1.27l-2.06,2.06A.89.89,0,0,1,25.58,23.5Z"/><path class="f51d4eca-bdfc-4b3d-bfd4-e6ed8825aa14" d="M33.8,20.42a.91.91,0,0,1-.9-.9V15.27H28.66a.9.9,0,1,1,0-1.8H33.8a.91.91,0,0,1,.91.9v5.15A.91.91,0,0,1,33.8,20.42Z"/><path class="f51d4eca-bdfc-4b3d-bfd4-e6ed8825aa14" d="M29.69,19.39a.91.91,0,0,1-.64-1.54l4.12-4.11A.9.9,0,0,1,34.44,15l-4.11,4.11A.9.9,0,0,1,29.69,19.39Z"/><path class="f51d4eca-bdfc-4b3d-bfd4-e6ed8825aa14" d="M21.47,23.5a.93.93,0,0,1-.64-.26l-2.06-2.06A.9.9,0,0,1,20,19.91L22.1,22a.9.9,0,0,1-.63,1.54Z"/><path class="f51d4eca-bdfc-4b3d-bfd4-e6ed8825aa14" d="M13.24,20.42a.9.9,0,0,1-.9-.9V14.37a.9.9,0,0,1,.9-.9h5.14a.9.9,0,1,1,0,1.8H14.14v4.25A.9.9,0,0,1,13.24,20.42Z"/><path class="f51d4eca-bdfc-4b3d-bfd4-e6ed8825aa14" d="M17.35,19.39a.86.86,0,0,1-.63-.27L12.6,15a.9.9,0,0,1,0-1.27.91.91,0,0,1,1.28,0L18,17.85a.91.91,0,0,1-.64,1.54Z"/><path class="f51d4eca-bdfc-4b3d-bfd4-e6ed8825aa14" d="M27.63,29.67a.89.89,0,0,1-.63-.26l-2.06-2.06a.9.9,0,0,1,1.27-1.27l2.06,2.05a.91.91,0,0,1,0,1.28A.9.9,0,0,1,27.63,29.67Z"/><path class="f51d4eca-bdfc-4b3d-bfd4-e6ed8825aa14" d="M33.8,35.84H28.66a.9.9,0,1,1,0-1.8H32.9V29.8a.91.91,0,0,1,1.81,0v5.14A.9.9,0,0,1,33.8,35.84Z"/><path class="f51d4eca-bdfc-4b3d-bfd4-e6ed8825aa14" d="M33.8,35.84a.89.89,0,0,1-.63-.26l-4.12-4.12a.9.9,0,0,1,0-1.27.91.91,0,0,1,1.28,0l4.11,4.11a.91.91,0,0,1,0,1.28A.9.9,0,0,1,33.8,35.84Z"/><path class="f51d4eca-bdfc-4b3d-bfd4-e6ed8825aa14" d="M19.41,29.67a.93.93,0,0,1-.64-.26.91.91,0,0,1,0-1.28l2.06-2.05a.9.9,0,0,1,1.27,1.27L20,29.41A.89.89,0,0,1,19.41,29.67Z"/><path class="f51d4eca-bdfc-4b3d-bfd4-e6ed8825aa14" d="M18.38,35.84H13.24a.9.9,0,0,1-.9-.9V29.8a.9.9,0,1,1,1.8,0V34h4.24a.9.9,0,0,1,0,1.8Z"/><path class="f51d4eca-bdfc-4b3d-bfd4-e6ed8825aa14" d="M13.24,35.84a.93.93,0,0,1-.64-.26.91.91,0,0,1,0-1.28l4.12-4.11A.9.9,0,0,1,18,31.46l-4.11,4.12A.93.93,0,0,1,13.24,35.84Z"/></g></g></svg>