<svg xmlns="http://www.w3.org/2000/svg" viewBox="0 0 40.94 43.73"><defs><style>.afcc7030-ff66-4f41-b0f2-535807afa7f7{fill:#728783;}</style></defs><g id="ef244617-cc5a-489c-877d-3e4aea5dcb39" data-name="Layer 2"><g id="ea2912e2-1349-47d6-af38-e3a03aec6c02" data-name="Layer 2"><path class="afcc7030-ff66-4f41-b0f2-535807afa7f7" d="M31.57,22.3h2.1a3.69,3.69,0,1,0,0-1.8h-2.1a11.1,11.1,0,0,0-2.2-5.79l3.19-3.2a3.57,3.57,0,0,0,1.89.54,3.7,3.7,0,1,0-3.7-3.7,3.57,3.57,0,0,0,.54,1.89l-3.12,3.12a11.06,11.06,0,0,0-6.8-3.06v-3a3.7,3.7,0,1,0-1.8,0v3a11.06,11.06,0,0,0-6.8,3.06L9.65,10.24a3.66,3.66,0,0,0,.54-1.89,3.7,3.7,0,1,0-3.7,3.7,3.62,3.62,0,0,0,1.89-.54l3.19,3.2A11.11,11.11,0,0,0,9.36,20.5H7.27a3.7,3.7,0,1,0,0,1.8H9.36a11.11,11.11,0,0,0,2.21,5.79l-3.19,3.2a3.62,3.62,0,0,0-1.89-.54,3.7,3.7,0,1,0,3.7,3.7,3.66,3.66,0,0,0-.54-1.89l3.12-3.12a11.06,11.06,0,0,0,6.8,3.06v4a3.69,3.69,0,1,0,1.8,0v-4a11.06,11.06,0,0,0,6.8-3.06l3.12,3.12a3.57,3.57,0,0,0-.54,1.89,3.7,3.7,0,1,0,3.7-3.7,3.57,3.57,0,0,0-1.89.54l-3.19-3.2A11.1,11.1,0,0,0,31.57,22.3Zm5.67-2.8a1.9,1.9,0,1,1-1.89,1.9A1.9,1.9,0,0,1,37.24,19.5Zm-2.79-13a1.9,1.9,0,0,1,0,3.79,1.85,1.85,0,0,1-1-.3,1,1,0,0,0-.21-.37.91.91,0,0,0-.37-.21,1.85,1.85,0,0,1-.3-1A1.9,1.9,0,0,1,34.45,6.46ZM18.57,3.7a1.9,1.9,0,1,1,1.9,1.89A1.9,1.9,0,0,1,18.57,3.7ZM4.6,8.35a1.9,1.9,0,0,1,3.79,0,1.94,1.94,0,0,1-.3,1,.85.85,0,0,0-.37.21.87.87,0,0,0-.21.37,1.88,1.88,0,0,1-1,.3A1.9,1.9,0,0,1,4.6,8.35Zm-.9,15a1.9,1.9,0,1,1,1.89-1.9h0A1.9,1.9,0,0,1,3.7,23.3ZM13,15.78a.89.89,0,0,0,.63-.26.87.87,0,0,0,.24-.76,9.33,9.33,0,0,1,13.15,0,.88.88,0,0,0,.25.75.86.86,0,0,0,.63.27,9.26,9.26,0,0,1,0,11.24.86.86,0,0,0-.63.27A.88.88,0,0,0,27,28l-.08.07V26.58c0-1.36-1.59-2.72-3.45-3.52a4.1,4.1,0,0,0,1.59-3.15V18.23A4.51,4.51,0,0,0,20.47,14a4.51,4.51,0,0,0-4.63,4.25v1.68a4.12,4.12,0,0,0,1.58,3.15c-1.85.8-3.44,2.16-3.44,3.52v1.53L13.89,28a.85.85,0,0,0-.24-.75A.9.9,0,0,0,13,27a9.26,9.26,0,0,1,0-11.24Zm7.45,15a9.23,9.23,0,0,1-4.69-1.28V26.58c0-.62,2.41-2.41,4.69-2.41s4.68,1.79,4.69,2.41v2.9A9.33,9.33,0,0,1,20.47,30.75ZM17.64,19.91V18.23a2.85,2.85,0,0,1,5.65,0v1.68a2.85,2.85,0,0,1-5.65,0ZM6.49,36.34a1.9,1.9,0,1,1,1-3.49.87.87,0,0,0,.21.37.85.85,0,0,0,.37.21,1.94,1.94,0,0,1,.3,1A1.9,1.9,0,0,1,6.49,36.34ZM22.36,40a1.9,1.9,0,1,1-1.89-1.9A1.89,1.89,0,0,1,22.36,40Zm14-5.59a1.9,1.9,0,0,1-3.79,0,1.85,1.85,0,0,1,.3-1,.91.91,0,0,0,.37-.21,1,1,0,0,0,.21-.37,1.85,1.85,0,0,1,1-.3A1.9,1.9,0,0,1,36.34,34.45Z"/></g></g></svg>