<svg xmlns="http://www.w3.org/2000/svg" viewBox="0 0 19.29 16.8"><defs><style>.e05fdad6-4084-46e9-87ec-df54a3f3b873{fill:#b0c1c0;}</style></defs><g id="a32f3c1f-c637-4b05-871e-1b2dbffd52ae" data-name="Layer 2"><g id="f3ab7219-e5f7-4029-8bbc-14ad6cce2384" data-name="Layer 2"><path class="e05fdad6-4084-46e9-87ec-df54a3f3b873" d="M9.65,16.8H.83A.83.83,0,0,1,0,16V.83A.83.83,0,0,1,.83,0H9.65a.83.83,0,0,1,.82.83V16a.82.82,0,0,1-.82.82m-8-1.65H8.82V1.65H1.65Z"/><rect class="e05fdad6-4084-46e9-87ec-df54a3f3b873" x="5.86" y="9.04" width="1.6" height="1.6"/><rect class="e05fdad6-4084-46e9-87ec-df54a3f3b873" x="5.86" y="11.61" width="1.6" height="1.6"/><rect class="e05fdad6-4084-46e9-87ec-df54a3f3b873" x="5.86" y="6.46" width="1.6" height="1.6"/><rect class="e05fdad6-4084-46e9-87ec-df54a3f3b873" x="5.86" y="3.89" width="1.6" height="1.6"/><rect class="e05fdad6-4084-46e9-87ec-df54a3f3b873" x="3" y="9.04" width="1.6" height="1.6"/><rect class="e05fdad6-4084-46e9-87ec-df54a3f3b873" x="3" y="11.61" width="1.6" height="1.6"/><rect class="e05fdad6-4084-46e9-87ec-df54a3f3b873" x="3" y="6.46" width="1.6" height="1.6"/><rect class="e05fdad6-4084-46e9-87ec-df54a3f3b873" x="3" y="3.89" width="1.6" height="1.6"/><path class="e05fdad6-4084-46e9-87ec-df54a3f3b873" d="M18.47,16.8H9.65A.83.83,0,0,1,8.82,16V6.25a.83.83,0,0,1,.83-.82h8.82a.82.82,0,0,1,.82.82V16a.82.82,0,0,1-.82.82m-8-1.65h7.17V7.08H10.47Z"/><rect class="e05fdad6-4084-46e9-87ec-df54a3f3b873" x="11.91" y="9.04" width="1.6" height="1.6"/><rect class="e05fdad6-4084-46e9-87ec-df54a3f3b873" x="14.69" y="9.04" width="1.6" height="1.6"/><rect class="e05fdad6-4084-46e9-87ec-df54a3f3b873" x="11.91" y="11.61" width="1.6" height="1.6"/><rect class="e05fdad6-4084-46e9-87ec-df54a3f3b873" x="14.69" y="11.61" width="1.6" height="1.6"/></g></g></svg>