<svg xmlns="http://www.w3.org/2000/svg" viewBox="0 0 19.18 17.09"><defs><style>.b74aeb88-a666-45d3-87ed-e2a44ac91937{fill:#b0c1c0;}</style></defs><g id="bc7664fb-7508-4ea7-ae59-8d93ed14d762" data-name="Layer 2"><g id="ece90e82-09a2-4e8b-8ea5-b4791b53cb7e" data-name="Layer 2"><path class="b74aeb88-a666-45d3-87ed-e2a44ac91937" d="M6.45,8A3.82,3.82,0,0,1,2.86,4,3.82,3.82,0,0,1,6.45,0,3.82,3.82,0,0,1,10,4,3.82,3.82,0,0,1,6.45,8m0-6.37A2.18,2.18,0,0,0,4.52,4,2.18,2.18,0,0,0,6.45,6.37,2.18,2.18,0,0,0,8.39,4,2.18,2.18,0,0,0,6.45,1.65"/><path class="b74aeb88-a666-45d3-87ed-e2a44ac91937" d="M11.7,17.09H1.06a.83.83,0,0,1-.82-.77L0,12.88A3.52,3.52,0,0,1,2.21,9.6a12.44,12.44,0,0,1,8.34,0,3.49,3.49,0,0,1,2.21,3.29l-.23,3.43a.83.83,0,0,1-.83.77M1.84,15.43h9.09l.18-2.66A1.87,1.87,0,0,0,10,11.15a10.81,10.81,0,0,0-7.21,0,1.87,1.87,0,0,0-1.12,1.61Z"/><path class="b74aeb88-a666-45d3-87ed-e2a44ac91937" d="M11.7,17.09H1.06a.83.83,0,0,1-.82-.77L0,12.88A3.52,3.52,0,0,1,2.21,9.6a12.44,12.44,0,0,1,8.34,0,3.49,3.49,0,0,1,2.21,3.29l-.23,3.43a.83.83,0,0,1-.83.77M1.84,15.43h9.09l.18-2.66A1.87,1.87,0,0,0,10,11.15a10.81,10.81,0,0,0-7.21,0,1.87,1.87,0,0,0-1.12,1.61Z"/><path class="b74aeb88-a666-45d3-87ed-e2a44ac91937" d="M18.14,17.09H13.9a.83.83,0,0,1,0-1.66h3.47l.15-2.19a1.51,1.51,0,0,0-.9-1.28,9.18,9.18,0,0,0-2.9-.53.83.83,0,0,1-.81-.84.81.81,0,0,1,.84-.81,10.83,10.83,0,0,1,3.43.62,3.14,3.14,0,0,1,2,2.95l-.2,3a.83.83,0,0,1-.83.77"/><path class="b74aeb88-a666-45d3-87ed-e2a44ac91937" d="M14.88,8.89a3.16,3.16,0,0,1-3-3.3,3.16,3.16,0,0,1,3-3.31,3.15,3.15,0,0,1,3,3.31,3.15,3.15,0,0,1-3,3.3m0-5a1.52,1.52,0,0,0-1.33,1.66,1.52,1.52,0,0,0,1.33,1.65,1.52,1.52,0,0,0,1.33-1.65,1.52,1.52,0,0,0-1.33-1.66"/></g></g></svg>