<svg xmlns="http://www.w3.org/2000/svg" viewBox="0 0 39.73 41.52"><defs><style>.fd83799d-8ced-442e-a9d3-f71689ce2d0d{fill:#728783;}</style></defs><g id="a96bc6f7-2d79-4f1f-ba2a-a40cf19e7459" data-name="Layer 2"><g id="b14ccab3-2463-4fa7-a509-e316db2b40ff" data-name="Layer 2"><path class="fd83799d-8ced-442e-a9d3-f71689ce2d0d" d="M25,28.59a.9.9,0,0,1,0-1.8,2.72,2.72,0,0,0,2.55-2.55V16.48c0-1.94-4.69-3.41-7.72-3.41s-7.72,1.47-7.72,3.41v7.76a2.71,2.71,0,0,0,2.54,2.55.9.9,0,0,1,0,1.8,4.52,4.52,0,0,1-4.35-4.35V16.48c0-3.63,6.31-5.21,9.53-5.21s9.52,1.58,9.52,5.21v7.76A4.52,4.52,0,0,1,25,28.59Z"/><path class="fd83799d-8ced-442e-a9d3-f71689ce2d0d" d="M35.39,30.32a.9.9,0,1,1,0-1.8c1,0,2.54-.53,2.54-1.69V19.07c0-1.95-4.16-3.41-6.85-3.41a7.33,7.33,0,0,0-.79,0,.9.9,0,0,1-.16-1.79c.34,0,.65-.05.95-.05,2.92,0,8.65,1.57,8.65,5.21v7.76C39.73,29.1,37.49,30.32,35.39,30.32Z"/><path class="fd83799d-8ced-442e-a9d3-f71689ce2d0d" d="M19.87,10.42a4.21,4.21,0,0,1-4.35-4.35V4.35A4.21,4.21,0,0,1,19.87,0a4.21,4.21,0,0,1,4.35,4.35V6.07A4.21,4.21,0,0,1,19.87,10.42Zm0-8.62a2.41,2.41,0,0,0-2.55,2.55V6.07a2.41,2.41,0,0,0,2.55,2.55,2.41,2.41,0,0,0,2.55-2.55V4.35A2.41,2.41,0,0,0,19.87,1.8Z"/><path class="fd83799d-8ced-442e-a9d3-f71689ce2d0d" d="M35.39,41.52a.9.9,0,0,1-.9-.9V20.79a.9.9,0,0,1,1.8,0V40.62A.9.9,0,0,1,35.39,41.52Z"/><path class="fd83799d-8ced-442e-a9d3-f71689ce2d0d" d="M25,41.52a.9.9,0,0,1-.9-.9V18.21a.9.9,0,0,1,1.8,0V40.62A.9.9,0,0,1,25,41.52Z"/><path class="fd83799d-8ced-442e-a9d3-f71689ce2d0d" d="M14.69,41.52a.9.9,0,0,1-.9-.9V18.21a.9.9,0,0,1,1.8,0V40.62A.9.9,0,0,1,14.69,41.52Z"/><path class="fd83799d-8ced-442e-a9d3-f71689ce2d0d" d="M19.87,41.52a.9.9,0,0,1-.9-.9V26.83a.9.9,0,1,1,1.8,0V40.62A.9.9,0,0,1,19.87,41.52Z"/><path class="fd83799d-8ced-442e-a9d3-f71689ce2d0d" d="M31.08,13.07a4.2,4.2,0,0,1-4.35-4.35V7a4.35,4.35,0,1,1,8.69,0V8.72A4.21,4.21,0,0,1,31.08,13.07Zm0-8.62A2.41,2.41,0,0,0,28.53,7V8.72a2.55,2.55,0,1,0,5.09,0V7A2.41,2.41,0,0,0,31.08,4.45Z"/><path class="fd83799d-8ced-442e-a9d3-f71689ce2d0d" d="M4.35,30.32C2.24,30.32,0,29.1,0,26.83V19.07c0-3.64,5.73-5.21,8.66-5.21.29,0,.61,0,.94.05a.9.9,0,0,1,.82,1,.91.91,0,0,1-1,.82,7.15,7.15,0,0,0-.78,0c-2.7,0-6.86,1.46-6.86,3.41v7.76c0,1.16,1.49,1.69,2.55,1.69a.9.9,0,0,1,0,1.8Z"/><path class="fd83799d-8ced-442e-a9d3-f71689ce2d0d" d="M4.35,41.52a.9.9,0,0,1-.9-.9V20.79a.9.9,0,1,1,1.8,0V40.62A.9.9,0,0,1,4.35,41.52Z"/><path class="fd83799d-8ced-442e-a9d3-f71689ce2d0d" d="M8.66,13.07A4.21,4.21,0,0,1,4.31,8.72V7A4.21,4.21,0,0,1,8.66,2.65,4.21,4.21,0,0,1,13,7V8.72A4.21,4.21,0,0,1,8.66,13.07Zm0-8.62A2.41,2.41,0,0,0,6.11,7V8.72a2.41,2.41,0,0,0,2.55,2.55,2.41,2.41,0,0,0,2.55-2.55V7A2.42,2.42,0,0,0,8.66,4.45Z"/></g></g></svg>