<svg xmlns="http://www.w3.org/2000/svg" viewBox="0 0 40.6 40.67"><defs><style>.ba67c13e-6860-4d9d-9fef-f64ee1148971{fill:#728783;}</style></defs><g id="a1c87319-29ae-4447-aa7e-81623ebe4e5f" data-name="Layer 2"><g id="af28e3e2-d374-42ba-a5c9-cd62faf89896" data-name="Layer 2"><path class="ba67c13e-6860-4d9d-9fef-f64ee1148971" d="M18.14,28.6a.9.9,0,0,1,0-1.8,2.72,2.72,0,0,0,2.55-2.55V16.49c0-2-4.13-3.41-6.86-3.41-3,0-7.72,1.46-7.72,3.41V26.83a.9.9,0,1,1-1.8,0V16.49c0-3.64,6.31-5.21,9.52-5.21,3.63,0,8.66,1.81,8.66,5.21v7.76A4.52,4.52,0,0,1,18.14,28.6Z"/><path class="ba67c13e-6860-4d9d-9fef-f64ee1148971" d="M13.83,10.42A4.21,4.21,0,0,1,9.48,6.07V4.35A4.21,4.21,0,0,1,13.83,0a4.21,4.21,0,0,1,4.35,4.35V6.07A4.21,4.21,0,0,1,13.83,10.42Zm0-8.62a2.41,2.41,0,0,0-2.54,2.55V6.07a2.41,2.41,0,0,0,2.54,2.55,2.41,2.41,0,0,0,2.55-2.55V4.35A2.41,2.41,0,0,0,13.83,1.8Z"/><path class="ba67c13e-6860-4d9d-9fef-f64ee1148971" d="M18.14,40.67a.91.91,0,0,1-.9-.9V18.21a.9.9,0,0,1,1.8,0V39.77A.9.9,0,0,1,18.14,40.67Z"/><path class="ba67c13e-6860-4d9d-9fef-f64ee1148971" d="M8.66,27.74a.9.9,0,0,1-.9-.9V18.21a.9.9,0,0,1,1.8,0v8.63A.9.9,0,0,1,8.66,27.74Z"/><path class="ba67c13e-6860-4d9d-9fef-f64ee1148971" d="M8.66,40.67a.9.9,0,0,1-.9-.9V34.59a.9.9,0,1,1,1.8,0v5.18A.9.9,0,0,1,8.66,40.67Z"/><path class="ba67c13e-6860-4d9d-9fef-f64ee1148971" d="M13.83,40.67a.91.91,0,0,1-.9-.9V26.83a.9.9,0,0,1,1.8,0V39.77A.9.9,0,0,1,13.83,40.67Z"/><path class="ba67c13e-6860-4d9d-9fef-f64ee1148971" d="M10.38,35.49H.9a.9.9,0,0,1-.9-.9V26.83a.9.9,0,0,1,.9-.9h9.48a.91.91,0,0,1,.91.9v7.76A.9.9,0,0,1,10.38,35.49ZM1.8,33.69H9.48v-6H1.8Z"/><path class="ba67c13e-6860-4d9d-9fef-f64ee1148971" d="M36.25,16.53a4.35,4.35,0,1,1,4.35-4.35A4.35,4.35,0,0,1,36.25,16.53Zm0-6.9a2.55,2.55,0,1,0,2.55,2.55A2.55,2.55,0,0,0,36.25,9.63Z"/><path class="ba67c13e-6860-4d9d-9fef-f64ee1148971" d="M36.25,26.87a4.35,4.35,0,1,1,4.35-4.35A4.35,4.35,0,0,1,36.25,26.87Zm0-6.89a2.55,2.55,0,1,0,2.55,2.54A2.55,2.55,0,0,0,36.25,20Z"/><path class="ba67c13e-6860-4d9d-9fef-f64ee1148971" d="M36.25,37.22a4.35,4.35,0,1,1,4.35-4.35A4.35,4.35,0,0,1,36.25,37.22Zm0-6.9a2.55,2.55,0,1,0,2.55,2.55A2.55,2.55,0,0,0,36.25,30.32Z"/><path class="ba67c13e-6860-4d9d-9fef-f64ee1148971" d="M32.8,23.42H24.18a.9.9,0,0,1,0-1.8H32.8a.9.9,0,1,1,0,1.8Z"/><path class="ba67c13e-6860-4d9d-9fef-f64ee1148971" d="M32.8,33.77H29.35A1.76,1.76,0,0,1,27.59,32V13a1.76,1.76,0,0,1,1.76-1.76H32.8a.9.9,0,0,1,0,1.8H29.35l0,18.93,3.41,0a.9.9,0,0,1,0,1.8Z"/></g></g></svg>