<svg xmlns="http://www.w3.org/2000/svg" viewBox="0 0 47.68 44.74"><defs><style>.a28c9b62-1a27-487a-b01f-d889de1326e2{fill:#728783;}</style></defs><g id="f9d67bef-f25f-4c69-8477-66d251c2381a" data-name="Layer 2"><g id="a32d34a3-ecd2-4741-97a9-62e23216209a" data-name="Layer 2"><path class="a28c9b62-1a27-487a-b01f-d889de1326e2" d="M31.45,44.74a.88.88,0,0,1-.44-.12l-6.74-3.77-6.74,3.77a.89.89,0,0,1-1-.06.91.91,0,0,1-.34-.93l1.71-7.39L12,30.85a.93.93,0,0,1-.24-1,.89.89,0,0,1,.8-.59l7.75-.51,3.09-7.38a.89.89,0,0,1,.83-.56.9.9,0,0,1,.83.56l3.09,7.38,7.75.51a.89.89,0,0,1,.79.59.91.91,0,0,1-.24,1l-5.88,5.39,1.71,7.39a.92.92,0,0,1-.33.93A.9.9,0,0,1,31.45,44.74Zm-7.18-5.82a.88.88,0,0,1,.44.12l5.4,3-1.37-5.92a.91.91,0,0,1,.27-.87L33.72,31l-6.2-.41a.91.91,0,0,1-.78-.55l-2.47-5.91L21.79,30a.88.88,0,0,1-.77.55L14.81,31l4.72,4.32a.91.91,0,0,1,.27.87l-1.38,5.92,5.41-3A.88.88,0,0,1,24.27,38.92Z"/><path class="a28c9b62-1a27-487a-b01f-d889de1326e2" d="M43.11,38.51a.87.87,0,0,1-.44-.11l-5.5-3.08-2.88,1.62a.9.9,0,0,1-.88-1.58l3.32-1.85a.87.87,0,0,1,.88,0l4.17,2.32-1.06-4.55a.91.91,0,0,1,.27-.87l3.63-3.33-4.77-.31a.88.88,0,0,1-.77-.55l-1.91-4.55-1.9,4.55a.9.9,0,0,1-.78.55L31.75,27a.9.9,0,0,1-.11-1.8L33.82,25l2.52-6A.9.9,0,0,1,38,19l2.52,6,6.32.41a.9.9,0,0,1,.79.6.9.9,0,0,1-.24,1l-4.8,4.4,1.4,6a.88.88,0,0,1-.34.92A.9.9,0,0,1,43.11,38.51Z"/><path class="a28c9b62-1a27-487a-b01f-d889de1326e2" d="M4.57,38.51a.9.9,0,0,1-.88-1.1l1.4-6L.29,27a.9.9,0,0,1-.24-1,.9.9,0,0,1,.79-.6L7.16,25l2.52-6a.9.9,0,0,1,1.66,0l2.52,6,2.18.14a.9.9,0,0,1-.11,1.8l-2.74-.18a.91.91,0,0,1-.78-.55l-1.9-4.55L8.6,26.22a.88.88,0,0,1-.77.55l-4.77.31,3.63,3.33a.91.91,0,0,1,.27.87l-1,4.55,4.16-2.32a.87.87,0,0,1,.88,0l3.32,1.85a.9.9,0,1,1-.88,1.58l-2.88-1.62L5,38.4A.87.87,0,0,1,4.57,38.51Z"/><path class="a28c9b62-1a27-487a-b01f-d889de1326e2" d="M31.54,23.79a.9.9,0,0,1-.9-.9V17.13c0-.73-3.2-2.76-6.44-2.76s-6.42,2-6.42,2.76v5.76a.91.91,0,0,1-1.81,0V17.13c0-2.35,4.64-4.56,8.23-4.56s8.24,2.21,8.24,4.56v5.76A.9.9,0,0,1,31.54,23.79Z"/><path class="a28c9b62-1a27-487a-b01f-d889de1326e2" d="M24.21,11.23c-2.76,0-5.09-2-5.09-4.3V4.29C19.12,2,21.45,0,24.21,0S29.3,2,29.3,4.29V6.93C29.3,9.26,27,11.23,24.21,11.23Zm0-9.43c-1.73,0-3.29,1.19-3.29,2.49V6.93c0,1.31,1.56,2.5,3.29,2.5s3.28-1.19,3.28-2.5V4.29C27.49,3,25.93,1.8,24.21,1.8Z"/></g></g></svg>