<svg xmlns="http://www.w3.org/2000/svg" viewBox="0 0 18.65 19.65"><defs><style>.e16e0036-1dd4-414a-acba-5af379932875{fill:#b0c1c0;}</style></defs><g id="eca1daed-a468-4340-8178-bc6aa42b8744" data-name="Layer 2"><g id="ab77ebbb-d9df-4ad8-ab86-39dd893b077c" data-name="Layer 2"><path class="e16e0036-1dd4-414a-acba-5af379932875" d="M9.32,19.65A45.74,45.74,0,0,1,2,19.07a2.37,2.37,0,0,1-1.82-2C.14,16.38.07,15.7,0,15a2.66,2.66,0,0,1,1.33-2.45A18.54,18.54,0,0,1,6.28,11l0-.19a2.18,2.18,0,0,1-.81-1.37c0-.16,0-.32-.05-.48a1.19,1.19,0,0,1-.71-1l-.2-1.92a1.12,1.12,0,0,1,.25-.86,1.26,1.26,0,0,1,.2-.2l-.06-.58a3.61,3.61,0,0,1,1-3.21A5,5,0,0,1,9.33,0a5,5,0,0,1,3.51,1.26,3.62,3.62,0,0,1,.94,3.19v.16c0,.14,0,.28,0,.42a1.19,1.19,0,0,1,.2.19,1.16,1.16,0,0,1,.25.88L14,8a1.19,1.19,0,0,1-.71,1l-.06.5a2.07,2.07,0,0,1-.8,1.35l0,.19a18,18,0,0,1,4.9,1.53A2.68,2.68,0,0,1,18.64,15l-.2,2a2.36,2.36,0,0,1-1.8,2,46.21,46.21,0,0,1-7.32.58M6.27,7.32l.11,0A.83.83,0,0,1,6.94,8L7.09,9.3a1,1,0,0,0,.37.39.8.8,0,0,1,.38.58L8,11.61a.83.83,0,0,1-.72.94,16.93,16.93,0,0,0-5.23,1.5,1,1,0,0,0-.42.81c.06.68.13,1.36.2,2a.7.7,0,0,0,.45.55,44.44,44.44,0,0,0,14.05,0,.7.7,0,0,0,.43-.55l.2-2a1,1,0,0,0-.45-.83,16.51,16.51,0,0,0-5.2-1.49.85.85,0,0,1-.72-.94l.2-1.35a.82.82,0,0,1,.37-.57.92.92,0,0,0,.37-.39L11.71,8a.83.83,0,0,1,.56-.69l.11,0,.1-.91a.57.57,0,0,1-.13-.08A.82.82,0,0,1,12,5.55V5.47c0-.34.09-.67.12-1l0-.17a2.06,2.06,0,0,0-.43-1.82,3.45,3.45,0,0,0-2.38-.82A3.44,3.44,0,0,0,7,2.44a2.07,2.07,0,0,0-.46,1.85l.15,1.27a.85.85,0,0,1-.36.78l-.13.07Z"/></g></g></svg>