<svg xmlns="http://www.w3.org/2000/svg" viewBox="0 0 19.2 19.2"><defs><style>.bdc07696-f28e-48dd-8b54-27d4dcb08a85{fill:#b0c1c0;}</style></defs><g id="f087ca3f-68eb-45b6-ba7d-f5ddef3647d6" data-name="Layer 2"><g id="f92a9576-98ba-43b3-be4a-1698a6979260" data-name="Layer 2"><path class="bdc07696-f28e-48dd-8b54-27d4dcb08a85" d="M15.15,19.2A15.1,15.1,0,0,1,4.71,14.55l-.06-.06h0A15,15,0,0,1,0,3.78V3.5l.17-.22c.27-.33.53-.63.8-.9A10.07,10.07,0,0,1,4.48.09,1.57,1.57,0,0,1,5,0c.45,0,1.45.23,1.71.93.45,1.25,1,2.89,1.43,4.45a2,2,0,0,1-.61,1.89l-1.46.92a1.1,1.1,0,0,0,.2.5,19.43,19.43,0,0,0,2,2.29,20,20,0,0,0,2.27,1.93.82.82,0,0,0,.45.17l.51-.7.47-.74A2,2,0,0,1,13.47,11a1.58,1.58,0,0,1,.32,0,20.69,20.69,0,0,1,4.54,1.47,2,2,0,0,1,.77,2.22,10,10,0,0,1-2.28,3.5,8.82,8.82,0,0,1-.91.8l-.21.17ZM1.65,4.09a13.62,13.62,0,0,0,4.17,9.23l.08.08a13.38,13.38,0,0,0,9.21,4.14l.55-.49a8.61,8.61,0,0,0,1.9-2.93s0-.11-.08-.19a19.33,19.33,0,0,0-4.05-1.29l-.2,0L12.4,14a2,2,0,0,1-2.87.25,22.2,22.2,0,0,1-2.46-2.09A22.72,22.72,0,0,1,5,9.67,2.36,2.36,0,0,1,4.5,7.86a1.59,1.59,0,0,1,.71-1.07L6.52,6a1,1,0,0,0,0-.23c-.36-1.35-.88-2.84-1.3-4A.64.64,0,0,0,5,1.65,8.53,8.53,0,0,0,2.15,3.54c-.17.17-.33.35-.5.55"/></g></g></svg>