<svg xmlns="http://www.w3.org/2000/svg" viewBox="0 0 42.08 34.41"><defs><style>.a7707299-6d11-44fe-94da-818b8004d932{fill:#728783;}</style></defs><g id="f8a66037-ffe3-40df-ac66-ffccb2bfca38" data-name="Layer 2"><g id="f3cf0071-c534-44ec-aeac-5fb27406e327" data-name="Layer 2"><path class="a7707299-6d11-44fe-94da-818b8004d932" d="M41.18,0H.9A.9.9,0,0,0,0,.9V33.51a.9.9,0,0,0,.9.9H41.18a.9.9,0,0,0,.9-.9V.9A.9.9,0,0,0,41.18,0Zm-.9,32.61H1.8V1.8H40.28Z"/><path class="a7707299-6d11-44fe-94da-818b8004d932" d="M30.63,15.23a3.78,3.78,0,1,0-3.78-3.78A3.79,3.79,0,0,0,30.63,15.23Zm0-5.76a2,2,0,1,1-2,2A2,2,0,0,1,30.63,9.47Z"/><path class="a7707299-6d11-44fe-94da-818b8004d932" d="M4.74,30.57h32.6a.9.9,0,0,0,.9-.9V4.74a.9.9,0,0,0-.9-.9H4.74a.9.9,0,0,0-.9.9V29.67A.9.9,0,0,0,4.74,30.57Zm31.7-1.8H5.64V27.15L16.27,15.63l9.89,9.88a.9.9,0,1,0,1.27-1.27l-2.72-2.72,2.11-2.11,9.62,8.74Zm0-23.13V25.72l-9-8.22a.89.89,0,0,0-1.24,0l-2.72,2.72-6.56-6.56a.91.91,0,0,0-1.3,0L5.64,24.49V5.64Z"/></g></g></svg>