<svg xmlns="http://www.w3.org/2000/svg" viewBox="0 0 19.53 19.53"><defs><style>.ff77c10e-0f74-4dcd-87a2-b7783f6a9561{fill:#b0c1c0;}</style></defs><g id="ba49280e-1cff-41b6-a007-44d10dccbdd7" data-name="Layer 2"><g id="acbc30e9-f664-4ad5-9dff-110dcfba5ff3" data-name="Layer 2"><path class="ff77c10e-0f74-4dcd-87a2-b7783f6a9561" d="M17,1.65a.9.9,0,0,1,.67.25c.83.83-.51,3.14-3.06,5.63l.69,1.56a.84.84,0,0,1,.54-.28.34.34,0,0,1,.25.11c.24.24,0,.68-.42,1l.74,1.69a.82.82,0,0,1,.53-.26.33.33,0,0,1,.25.1c.24.23.05.67-.41,1l.93,2.12.13,2.07-5.58-7-.15.13c-2,1.53-3.77,2.89-5.15,3.87l-.18,4.27L5,14.91a2.29,2.29,0,0,1-.66.32h0c0-.05.07-.29.31-.69l-3-1.74,4.26-.19c1-1.38,2.35-3.18,3.88-5.14l.12-.16-7-5.57,2.06.13,2.13.93a1,1,0,0,1,.75-.52.35.35,0,0,1,.25.1c.19.19.1.5-.16.79L9.6,3.9a1.07,1.07,0,0,1,.76-.53.35.35,0,0,1,.25.1c.19.19.1.51-.17.8L12,5c2-2,3.88-3.3,5-3.3M17,0C15.4,0,13.57,1.25,12,2.62a1.94,1.94,0,0,0-.26-.31,2,2,0,0,0-1.42-.59,2.38,2.38,0,0,0-.7.11,1.89,1.89,0,0,0-.42-.62A2,2,0,0,0,7.82.62a2.33,2.33,0,0,0-1,.25L5.61.34A1.83,1.83,0,0,0,5.05.21L3,.08H2.88a1.65,1.65,0,0,0-1,3L7.61,7.58C6.67,8.8,5.79,10,5.05,11l-3.47.15a1.65,1.65,0,0,0-.76,3.07l1.83,1.08a1.6,1.6,0,0,0,.47,1.08,1.74,1.74,0,0,0,1.12.51l1.07,1.83a1.67,1.67,0,0,0,1.43.82,1.9,1.9,0,0,0,.4-.05,1.65,1.65,0,0,0,1.25-1.54l.15-3.46c1-.75,2.2-1.63,3.41-2.56l4.55,5.75a1.67,1.67,0,0,0,1.3.63,1.71,1.71,0,0,0,.59-.11,1.65,1.65,0,0,0,1.06-1.65l-.13-2.06a1.59,1.59,0,0,0-.14-.56l-.52-1.2a2.31,2.31,0,0,0,.24-.83,2,2,0,0,0-.58-1.6,1.91,1.91,0,0,0-.63-.43,1.72,1.72,0,0,0,.11-.5,2,2,0,0,0-.57-1.61,2.1,2.1,0,0,0-.33-.26C18.27,6,19.52,4.14,19.53,2.58A2.58,2.58,0,0,0,18.8.73,2.57,2.57,0,0,0,17,0"/></g></g></svg>