<svg xmlns="http://www.w3.org/2000/svg" viewBox="0 0 42.98 46.01"><defs><style>.f333b0c2-7180-49ef-baad-b9adebdc036d{fill:#728783;}</style></defs><g id="be0e1652-c206-4e25-bbd7-bc1a7eea4c5f" data-name="Layer 2"><g id="ade50cd6-5ab0-437c-bb74-80402639b068" data-name="Layer 2"><path class="f333b0c2-7180-49ef-baad-b9adebdc036d" d="M7.12,33.16H7a6.53,6.53,0,0,1-5-3.5,7.8,7.8,0,0,1-.43-6.43A8.24,8.24,0,0,1,.3,16.11a6.72,6.72,0,0,1,3.64-4.52A8.32,8.32,0,0,1,6,6.14a6.49,6.49,0,0,1,4-2.22A6.33,6.33,0,0,1,16.09,0a6.24,6.24,0,0,1,6.32,6.44.9.9,0,0,1-1.8,0A4.43,4.43,0,0,0,16.09,1.8,4.54,4.54,0,0,0,11.54,5a.9.9,0,0,1-.84.65A4.65,4.65,0,0,0,7.35,7.33a6.58,6.58,0,0,0-1.59,4.79.9.9,0,0,1-.62.94A4.86,4.86,0,0,0,2,16.59a6.35,6.35,0,0,0,1.29,5.88.92.92,0,0,1,.14,1,5.85,5.85,0,0,0,.16,5.32,4.7,4.7,0,0,0,3.61,2.57.9.9,0,0,1,.78,1A.89.89,0,0,1,7.12,33.16Z"/><path class="f333b0c2-7180-49ef-baad-b9adebdc036d" d="M8,24a.91.91,0,0,1-.39-.08.89.89,0,0,1-.42-1.2c1.09-2.31,3-2.79,4.5-3.18C12.9,19.2,13.86,19,14.48,18a.9.9,0,1,1,1.52,1,5.62,5.62,0,0,1-3.86,2.32c-1.45.37-2.6.67-3.33,2.21A.9.9,0,0,1,8,24Z"/><path class="f333b0c2-7180-49ef-baad-b9adebdc036d" d="M9.49,22.25l-.21,0A4.69,4.69,0,0,1,5.6,17.9a.9.9,0,1,1,1.8,0,2.93,2.93,0,0,0,2.3,2.57.9.9,0,0,1-.21,1.78Z"/><path class="f333b0c2-7180-49ef-baad-b9adebdc036d" d="M26.22,13.61a.9.9,0,0,1-.71-1.46,8.17,8.17,0,0,0,.6-.85c1.11-1.8.81-3.17-.13-5.07a.9.9,0,0,1,1.62-.8c1.13,2.3,1.57,4.34,0,6.82a12.34,12.34,0,0,1-.71,1A.93.93,0,0,1,26.22,13.61Z"/><path class="f333b0c2-7180-49ef-baad-b9adebdc036d" d="M32.12,14.39a.9.9,0,0,1-.56-1.6,7.69,7.69,0,0,1,6.68-1.48.9.9,0,1,1-.34,1.77,6,6,0,0,0-5.21,1.11A.94.94,0,0,1,32.12,14.39Z"/><path class="f333b0c2-7180-49ef-baad-b9adebdc036d" d="M30.77,36.16a.93.93,0,0,1-.8-.48.91.91,0,0,1,.37-1.22,5.38,5.38,0,0,0,2.49-2.93.9.9,0,0,1,1-.59,4.64,4.64,0,0,0,3.41-1,6.57,6.57,0,0,0,2.34-4.43,7.28,7.28,0,0,0-.07-2.09.9.9,0,0,1,.22-.77,6.27,6.27,0,0,0,1.5-4.16c0-2.55-1.39-4.77-3.38-5.39a.9.9,0,0,1-.62-.94A6.58,6.58,0,0,0,35.6,7.33a4.69,4.69,0,0,0-3.36-1.67A.9.9,0,0,1,31.4,5,4.54,4.54,0,0,0,26.85,1.8a4.34,4.34,0,0,0-4.44,4.64.9.9,0,0,1-1.8,0A6.13,6.13,0,0,1,26.85,0a6.35,6.35,0,0,1,6.08,3.92,6.5,6.5,0,0,1,4,2.22A8.34,8.34,0,0,1,39,11.59a7.48,7.48,0,0,1,4,6.86,8.08,8.08,0,0,1-1.68,5,9.42,9.42,0,0,1,0,2.19,8.46,8.46,0,0,1-3,5.64,6.54,6.54,0,0,1-4.06,1.46,7.13,7.13,0,0,1-3.07,3.28A.91.91,0,0,1,30.77,36.16Z"/><path class="f333b0c2-7180-49ef-baad-b9adebdc036d" d="M19,46a1,1,0,0,1-.29,0,.9.9,0,0,1-.61-.93L19,34.7H13.11a.9.9,0,0,1-.74-1.41L23,17.87a.9.9,0,0,1,1.63.65L22.93,28.79h5.78a.9.9,0,0,1,.79.47.88.88,0,0,1,0,.91L19.8,45.59A.9.9,0,0,1,19,46ZM14.82,32.9H20a.92.92,0,0,1,.66.29,1,1,0,0,1,.24.69l-.62,7.64,6.85-10.93H21.87a.9.9,0,0,1-.88-1l1.18-7.35Z"/><path class="f333b0c2-7180-49ef-baad-b9adebdc036d" d="M21.51,14.14a.9.9,0,0,1-.9-.9V6a.9.9,0,0,1,1.8,0v7.2A.9.9,0,0,1,21.51,14.14Z"/><path class="f333b0c2-7180-49ef-baad-b9adebdc036d" d="M10.72,16.58a.9.9,0,0,1-.9-.88c-.07-4.22,2.11-4.93,3.7-5.45s2.23-.73,1.69-3.64A.9.9,0,0,1,17,6.28c.76,4.13-.94,5-2.9,5.68-1.46.48-2.51.82-2.46,3.71a.89.89,0,0,1-.89.91Z"/><path class="f333b0c2-7180-49ef-baad-b9adebdc036d" d="M34.56,27.13l-.17,0c-3.29-.63-4.47-4.22-4.4-5.61.09-1.76,3.19-3.79,6-3.95a.91.91,0,0,1,.95.85.9.9,0,0,1-.85,1c-2.34.13-4.23,1.75-4.33,2.25s.65,3.31,2.94,3.75a.88.88,0,0,1,.71,1A.9.9,0,0,1,34.56,27.13Z"/><path class="f333b0c2-7180-49ef-baad-b9adebdc036d" d="M6.5,13.79a.92.92,0,0,1-.36-.07L4.52,13a.9.9,0,0,1,.7-1.66l1.63.69a.89.89,0,0,1,.47,1.18A.87.87,0,0,1,6.5,13.79Z"/><path class="f333b0c2-7180-49ef-baad-b9adebdc036d" d="M40.34,24.11h0L37.73,24a.9.9,0,0,1-.85-.94.91.91,0,0,1,.95-.86l2.56.14a.9.9,0,0,1,0,1.8Z"/><path class="f333b0c2-7180-49ef-baad-b9adebdc036d" d="M33.67,32.74a.91.91,0,0,1-.53-.18l-1.87-1.37a.9.9,0,1,1,1.06-1.45l1.88,1.37a.9.9,0,0,1-.54,1.63Z"/><path class="f333b0c2-7180-49ef-baad-b9adebdc036d" d="M30.22,22.5a3.87,3.87,0,0,1-3.7-2.13.9.9,0,1,1,1.63-.74c.62,1.35,2.5,1,2.58,1a.9.9,0,0,1,.32,1.77A5,5,0,0,1,30.22,22.5Z"/><path class="f333b0c2-7180-49ef-baad-b9adebdc036d" d="M31.37,8.27a.87.87,0,0,1-.28,0,.9.9,0,0,1-.58-1.13l.9-2.77a.9.9,0,1,1,1.71.55l-.9,2.77A.9.9,0,0,1,31.37,8.27Z"/><path class="f333b0c2-7180-49ef-baad-b9adebdc036d" d="M11.65,8.27a.9.9,0,0,1-.85-.63L9.9,4.87a.9.9,0,1,1,1.71-.55l.9,2.77a.9.9,0,0,1-.58,1.13A.87.87,0,0,1,11.65,8.27Z"/><path class="f333b0c2-7180-49ef-baad-b9adebdc036d" d="M9.18,35.73a3.25,3.25,0,0,1-3-3.47,3.25,3.25,0,0,1,3-3.47.9.9,0,0,1,0,1.8c-.63,0-1.16.77-1.16,1.67s.53,1.67,1.16,1.67a.9.9,0,0,1,0,1.8Z"/></g></g></svg>