<svg xmlns="http://www.w3.org/2000/svg" viewBox="0 0 19.46 19.47"><defs><style>.b8397cba-d291-4efc-9fb4-a82af0c80159{fill:#b0c1c0;}</style></defs><g id="b691ae01-3dcf-4636-878a-4673e6d9c877" data-name="Layer 2"><g id="bc10c95b-6bb6-4d99-be75-6c82585cc801" data-name="Layer 2"><path class="b8397cba-d291-4efc-9fb4-a82af0c80159" d="M9.73,19.47A9.74,9.74,0,0,1,2.85,2.85,9.73,9.73,0,0,1,16.61,16.61a9.65,9.65,0,0,1-6.88,2.86m0-17.82A8.09,8.09,0,0,0,1.65,9.73,8.08,8.08,0,1,0,9.73,1.65"/><path class="b8397cba-d291-4efc-9fb4-a82af0c80159" d="M9.73,19.47h0a9.7,9.7,0,0,1-6.88-2.85c-.24-.25-.46-.49-.67-.75a.81.81,0,0,1-.08-.93A2.22,2.22,0,0,1,3,14.05a15.78,15.78,0,0,1,4-1.28,1.84,1.84,0,0,1-.67-1.19l0-.32a1.14,1.14,0,0,1-.61-.89L5.53,8.76a1.15,1.15,0,0,1,.38-1l0-.42a3.11,3.11,0,0,1,.85-2.8,4.28,4.28,0,0,1,3-1.07,4.33,4.33,0,0,1,3,1.09,3.16,3.16,0,0,1,.83,2.78l0,.42a1.1,1.1,0,0,1,.38,1l-.17,1.61a1.11,1.11,0,0,1-.61.89l0,.34a1.84,1.84,0,0,1-.65,1.17,15.61,15.61,0,0,1,4,1.27,2.16,2.16,0,0,1,.91.91.8.8,0,0,1-.08.92,6.68,6.68,0,0,1-.67.74,9.65,9.65,0,0,1-6.88,2.86M4,15.41l0,0a8.1,8.1,0,0,0,11.43,0l0,0a13.85,13.85,0,0,0-4.08-1.12.83.83,0,0,1-.55-.32.87.87,0,0,1-.17-.62l.17-1.13a.83.83,0,0,1,.37-.57.84.84,0,0,0,.26-.26l.12-1a.79.79,0,0,1,.56-.68h0l.06-.59,0,0a.84.84,0,0,1-.36-.78L12,7.22a1.59,1.59,0,0,0-.31-1.41,2.72,2.72,0,0,0-1.91-.65,2.74,2.74,0,0,0-1.88.62,1.62,1.62,0,0,0-.34,1.45l.12,1a.82.82,0,0,1-.36.78l0,0,.06.59h0a.82.82,0,0,1,.57.68L8,11.42a1.3,1.3,0,0,0,.25.22.85.85,0,0,1,.38.59l.16,1.12a.82.82,0,0,1-.17.62.8.8,0,0,1-.55.32A14.1,14.1,0,0,0,4,15.41"/></g></g></svg>