<svg xmlns="http://www.w3.org/2000/svg" viewBox="0 0 18.48 21.13"><defs><style>.f0acb8d9-29f6-4311-a24f-00261cc3c937{fill:#b0c1c0;}</style></defs><g id="b45864c1-d806-428f-90f0-4a8a364d863d" data-name="Layer 2"><g id="b3c2a40a-3ef5-43e3-849d-8a39a2c17a2c" data-name="Layer 2"><path class="f0acb8d9-29f6-4311-a24f-00261cc3c937" d="M9.24,21.13c-2.25,0-4.38-1.77-7.76-5.24A6.09,6.09,0,0,1,0,12.19V4A3.15,3.15,0,0,1,2.14,1.14a22.74,22.74,0,0,1,14.22,0A3.21,3.21,0,0,1,18.48,4v8.16A6.13,6.13,0,0,1,17,15.88c-3.39,3.48-5.52,5.25-7.77,5.25m0-19.48a20.91,20.91,0,0,0-6.6,1.06A1.5,1.5,0,0,0,1.65,4v8.16a4.6,4.6,0,0,0,1,2.55c3,3.07,4.93,4.74,6.58,4.74s3.58-1.67,6.58-4.75a4.54,4.54,0,0,0,1-2.55V4a1.56,1.56,0,0,0-1-1.32A21,21,0,0,0,9.24,1.65"/><path class="f0acb8d9-29f6-4311-a24f-00261cc3c937" d="M8.42,12.61a.83.83,0,0,1-.6-.26L6.47,10.93A.82.82,0,1,1,7.66,9.79l.72.75,2.39-2.93a.84.84,0,0,1,1.17-.11.82.82,0,0,1,.11,1.16l-3,3.65a.84.84,0,0,1-.61.3h0"/></g></g></svg>