<svg xmlns="http://www.w3.org/2000/svg" viewBox="0 0 19.46 19.46"><defs><style>.b4e232ec-958d-4c6a-a7f1-6c29f5747b82{fill:#b0c1c0;}</style></defs><g id="a0366d3f-0f62-4fff-83ae-cc74c5c200cb" data-name="Layer 2"><g id="b72d9feb-49eb-48f9-8682-0f6a46db2388" data-name="Layer 2"><path class="b4e232ec-958d-4c6a-a7f1-6c29f5747b82" d="M6.62,7.69A2.25,2.25,0,0,1,7,6.5a2.84,2.84,0,0,1,1.09-1,3.47,3.47,0,0,1,1.68-.39,3.7,3.7,0,0,1,1.57.32,2.55,2.55,0,0,1,1.06.9,2.19,2.19,0,0,1,.37,1.23,2,2,0,0,1-.21.92,3.15,3.15,0,0,1-.5.68l-1.05,1c-.14.12-.25.24-.34.33a1.7,1.7,0,0,0-.19.27,1.17,1.17,0,0,0-.09.24c0,.08-.06.22-.1.42a.68.68,0,0,1-.73.64A.73.73,0,0,1,9,11.82a.81.81,0,0,1-.22-.62A2.26,2.26,0,0,1,9,10.3a2.48,2.48,0,0,1,.42-.66c.18-.19.42-.42.72-.68s.45-.4.56-.52a1.85,1.85,0,0,0,.3-.39.94.94,0,0,0,.12-.47,1.07,1.07,0,0,0-.37-.83,1.34,1.34,0,0,0-.94-.34,1.36,1.36,0,0,0-1,.34,2.88,2.88,0,0,0-.54,1c-.14.46-.4.69-.79.69a.78.78,0,0,1-.58-.24A.74.74,0,0,1,6.62,7.69Zm3,6.74A.91.91,0,0,1,9,14.18a.83.83,0,0,1-.28-.68A.89.89,0,0,1,9,12.85a.92.92,0,0,1,1.58.65.84.84,0,0,1-.28.68A1,1,0,0,1,9.62,14.43Z"/><path class="b4e232ec-958d-4c6a-a7f1-6c29f5747b82" d="M9.73,19.46A9.73,9.73,0,0,1,2.85,2.85,9.73,9.73,0,0,1,16.62,16.61a9.68,9.68,0,0,1-6.89,2.85Zm0-17.81A8.08,8.08,0,0,0,4,15.45,8.08,8.08,0,0,0,15.45,4,8,8,0,0,0,9.73,1.65Z"/></g></g></svg>