<svg xmlns="http://www.w3.org/2000/svg" viewBox="0 0 18.88 19.2"><defs><style>.abf8151d-6ed4-4827-8706-2a383fbeb6d9{fill:#b0c1c0;}</style></defs><g id="a276b08a-d745-4fae-860f-7c9a3aa09bb3" data-name="Layer 2"><g id="b87d6f38-877a-4493-9b24-1d638f9d1904" data-name="Layer 2"><path class="abf8151d-6ed4-4827-8706-2a383fbeb6d9" d="M8.24,16.48a8.24,8.24,0,1,1,8.24-8.24,8.25,8.25,0,0,1-8.24,8.24m0-14.83a6.59,6.59,0,1,0,6.58,6.59A6.6,6.6,0,0,0,8.24,1.65"/><path class="abf8151d-6ed4-4827-8706-2a383fbeb6d9" d="M18.05,19.2a.82.82,0,0,1-.58-.24l-4.6-4.6A.83.83,0,1,1,14,13.19l4.6,4.6a.83.83,0,0,1,0,1.17.82.82,0,0,1-.59.24"/></g></g></svg>