<svg xmlns="http://www.w3.org/2000/svg" viewBox="0 0 19.42 19.42"><defs><style>.b3e07c90-a765-4b64-a0c6-02d188f6e7d4{fill:#b0c1c0;}</style></defs><g id="aef0d116-5cd8-443c-bef2-41ebbca9b127" data-name="Layer 2"><g id="a8e5b22e-4761-43a3-b7c2-7de8e1fb53e6" data-name="Layer 2"><path class="b3e07c90-a765-4b64-a0c6-02d188f6e7d4" d="M10.77,19.42H8.65A1.41,1.41,0,0,1,7.24,18V16.64l-.66-.25-1,.94a1.43,1.43,0,0,1-2,0l-1.51-1.5a1.43,1.43,0,0,1-.41-1,1.38,1.38,0,0,1,.42-1l1-1-.29-.65-1.37,0A1.41,1.41,0,0,1,0,10.77V8.65A1.41,1.41,0,0,1,1.41,7.24H2.78L3,6.58l-1-1a1.4,1.4,0,0,1,0-2l1.5-1.5a1.43,1.43,0,0,1,2,0l1,1,.64-.28,0-1.37A1.41,1.41,0,0,1,8.65,0h2.12a1.41,1.41,0,0,1,1.41,1.41V2.78l.66.26,1-1a1.41,1.41,0,0,1,1-.41h0a1.43,1.43,0,0,1,1,.41l1.5,1.51a1.39,1.39,0,0,1,.41,1,1.43,1.43,0,0,1-.41,1l-1,1,.28.64,1.38,0a1.41,1.41,0,0,1,1.4,1.41v2.12A1.41,1.41,0,0,1,18,12.18H16.64l-.25.66.94,1a1.41,1.41,0,0,1,.41,1,1.43,1.43,0,0,1-.41,1l-1.5,1.5a1.44,1.44,0,0,1-2,0l-1-1-.65.28,0,1.38a1.41,1.41,0,0,1-1.41,1.4ZM8.9,17.77h1.63V16.64a1.69,1.69,0,0,1,1.11-1.54l.57-.24a1.53,1.53,0,0,1,.65-.14,1.67,1.67,0,0,1,1.18.47l.79.8L16,14.83,15.19,14a1.7,1.7,0,0,1-.31-1.89l.23-.56a1.69,1.69,0,0,1,1.53-1.06h1.13V8.9H16.64a1.7,1.7,0,0,1-1.55-1.12l-.23-.57a1.66,1.66,0,0,1,.33-1.82l.79-.8L14.83,3.44,14,4.23a1.73,1.73,0,0,1-1.89.31l-.56-.23a1.69,1.69,0,0,1-1.06-1.53V1.65H8.9V2.78A1.69,1.69,0,0,1,7.78,4.33l-.56.23a1.57,1.57,0,0,1-.66.14,1.63,1.63,0,0,1-1.17-.47l-.8-.79L3.44,4.59l.79.8a1.68,1.68,0,0,1,.31,1.88l-.23.56A1.67,1.67,0,0,1,2.78,8.9H1.65v1.63H2.78a1.68,1.68,0,0,1,1.55,1.11l.23.57A1.68,1.68,0,0,1,4.24,14l-.8.79L4.59,16l.8-.8a1.73,1.73,0,0,1,1.88-.31l.57.23A1.66,1.66,0,0,1,8.9,16.64v1.13Zm.81-4.43a3.63,3.63,0,1,1,3.63-3.63,3.63,3.63,0,0,1-3.63,3.63Zm0-5.6a2,2,0,1,0,2,2,2,2,0,0,0-2-2Z"/></g></g></svg>