<svg xmlns="http://www.w3.org/2000/svg" viewBox="0 0 21.35 19.4"><defs><style>.efff8f51-462e-4235-b8c1-42246a1a1a7e{fill:#b0c1c0;}</style></defs><g id="ab5ca3fb-97b0-43f1-8959-b57d9a84b937" data-name="Layer 2"><g id="bf003e0c-c377-4bba-bb7a-36769e5aa81f" data-name="Layer 2"><path class="efff8f51-462e-4235-b8c1-42246a1a1a7e" d="M17.78,10.06a3.53,3.53,0,0,1-2.36-.92,3.57,3.57,0,0,1-2.37.92,3.53,3.53,0,0,1-2.37-.92,3.57,3.57,0,0,1-2.37.92,3.53,3.53,0,0,1-2.37-.92A3.55,3.55,0,0,1,0,6.49a.77.77,0,0,1,.06-.3L2.26.53A.83.83,0,0,1,3,0H17.91a.84.84,0,0,1,.75.48l2.61,5.66a.85.85,0,0,1,.08.35,3.57,3.57,0,0,1-3.57,3.57ZM15.42,7a.81.81,0,0,1,.71.41,1.89,1.89,0,0,0,1.65,1,1.92,1.92,0,0,0,1.91-1.74l-2.31-5H3.6l-1.94,5A1.91,1.91,0,0,0,3.57,8.4a1.89,1.89,0,0,0,1.65-1,.86.86,0,0,1,1.43,0,1.9,1.9,0,0,0,3.31,0,.86.86,0,0,1,1.43,0,1.9,1.9,0,0,0,3.31,0A.82.82,0,0,1,15.42,7Z"/><path class="efff8f51-462e-4235-b8c1-42246a1a1a7e" d="M18.25,19.4H3.1a.83.83,0,0,1-.83-.82V9.49a.83.83,0,1,1,1.66,0v8.26H17.42V9.49a.83.83,0,0,1,1.66,0v9.09a.83.83,0,0,1-.83.82Z"/><path class="efff8f51-462e-4235-b8c1-42246a1a1a7e" d="M15.49,18.58H5.85a.42.42,0,0,1-.42-.42V12.1a.42.42,0,0,1,.42-.41h9.64a.41.41,0,0,1,.41.41v6.06a.41.41,0,0,1-.41.42ZM7,18.23h7.28v-5H7v5Z"/></g></g></svg>