<svg xmlns="http://www.w3.org/2000/svg" viewBox="0 0 12.32 21.4"><defs><style>.f4d0eba3-49c6-492f-b408-090ee8d971e6{fill:#b0c1c0;}</style></defs><g id="ec5fa649-69a2-4ab1-a7a6-5edd9940784d" data-name="Layer 2"><g id="f19a30ea-e649-4312-a8c8-cee654265ecc" data-name="Layer 2"><path class="f4d0eba3-49c6-492f-b408-090ee8d971e6" d="M3,21.4a.94.94,0,0,1-.36-.08.83.83,0,0,1-.43-1l2-7.08H.83a.82.82,0,0,1-.74-.45A.83.83,0,0,1,.16,12L8.61.34a.84.84,0,0,1,1-.26.84.84,0,0,1,.44,1l-2,7.08h3.4a.82.82,0,0,1,.67,1.31L3.7,21.06A.82.82,0,0,1,3,21.4Zm-.58-9.78H5.31a.83.83,0,0,1,.8,1.05l-1,3.7L9.86,9.78H7a.82.82,0,0,1-.66-.33.83.83,0,0,1-.13-.72l1-3.7-4.8,6.59Z"/></g></g></svg>