<svg xmlns="http://www.w3.org/2000/svg" viewBox="0 0 18.71 17.87"><defs><style>.ff39a138-0b0b-4f1e-aec9-6f012e3d7cd9{fill:#b0c1c0;}</style></defs><g id="e265925e-f5e5-4a66-8293-c975c0a2fc15" data-name="Layer 2"><g id="babfd48a-3f36-4a6e-9cb1-973cf772bda8" data-name="Layer 2"><path class="ff39a138-0b0b-4f1e-aec9-6f012e3d7cd9" d="M.31,6.4a.71.71,0,0,1,.43-.14l5.61-.6L8.65.51A.75.75,0,0,1,9.36,0a.74.74,0,0,1,.7.51l2.31,5.15,5.6.6a.75.75,0,0,1,.71.51.74.74,0,0,1-.27.83l-4.19,3.78,1.17,5.52a.74.74,0,0,1-1.14.83L9.36,14.92,4.47,17.73a.74.74,0,0,1-1.14-.83l1.16-5.52L.31,7.6A.74.74,0,0,1,0,6.77.72.72,0,0,1,.31,6.4Zm7.12.75A.71.71,0,0,1,7,7.29L3,7.74,6,10.44a.75.75,0,0,1,.27.83l-.8,3.92,3.48-2a.74.74,0,0,1,.87,0l3.48,2-.8-3.92a.75.75,0,0,1,.27-.83l2.95-2.7-4-.45A.74.74,0,0,1,11,6.78L9.36,3.14,7.7,6.78a.72.72,0,0,1-.27.37Z"/></g></g></svg>