<svg xmlns="http://www.w3.org/2000/svg" viewBox="0 0 25.43 38.03"><defs><style>.b6244c53-6133-4f24-8716-4cc3b65af766{fill:#728783;}</style></defs><g id="ee56fe29-cdbf-4166-9d03-8f0c8a2f8376" data-name="Layer 2"><g id="a0c59270-d2da-4dae-a59b-e0cc213ea0ec" data-name="Layer 2"><path class="b6244c53-6133-4f24-8716-4cc3b65af766" d="M22.28,11.93V6.52H23a2.48,2.48,0,0,0,2.48-2.47V.9a.9.9,0,0,0-.9-.9H.9A.9.9,0,0,0,0,.9V4.05A2.48,2.48,0,0,0,2.47,6.52h.68v5.41a.94.94,0,0,0,.26.63L9.87,19,3.41,25.47a.9.9,0,0,0-.26.63v5.4H2.47A2.48,2.48,0,0,0,0,34v3.15a.9.9,0,0,0,.9.9H24.53a.9.9,0,0,0,.9-.9V34A2.48,2.48,0,0,0,23,31.5h-.67V26.1a.87.87,0,0,0-.27-.63L15.56,19,22,12.56A.9.9,0,0,0,22.28,11.93ZM2.47,4.73a.68.68,0,0,1-.67-.68V1.8H23.63V4.05a.69.69,0,0,1-.68.68H2.47ZM23,33.3a.69.69,0,0,1,.68.68v2.25H1.8V34a.68.68,0,0,1,.67-.68H23Zm-5.62-1.8H8.1V28.05l4.2-4.2h.83l4.2,4.2ZM13.65,18.38a.9.9,0,0,0,0,1.27l6.83,6.83v5H19.13V27.68a.91.91,0,0,0-.27-.64l-4.72-4.72a.91.91,0,0,0-.64-.27H11.93a.91.91,0,0,0-.64.27L6.56,27a.9.9,0,0,0-.26.64V31.5H5v-5l6.83-6.83a.91.91,0,0,0,0-1.27L5,11.55v-5H20.48v5Z"/></g></g></svg>