<svg xmlns="http://www.w3.org/2000/svg" viewBox="0 0 17.91 20.51"><defs><style>.f6ea94a9-eb2b-40d3-9dca-ea6e16efc027{fill:#b0c1c0;}</style></defs><g id="bb8d23f9-ad2c-4b12-99ad-abf0ca623d90" data-name="Layer 2"><g id="bbbf9d71-20dc-4ae0-8ec8-31c7d955e3de" data-name="Layer 2"><path class="f6ea94a9-eb2b-40d3-9dca-ea6e16efc027" d="M14.79,6.42a.8.8,0,0,1-.5-.17.83.83,0,0,1-.16-1.15L15.71,3a.82.82,0,0,1,1.15-.17A.83.83,0,0,1,17,4L15.45,6.1a.83.83,0,0,1-.66.32"/><path class="f6ea94a9-eb2b-40d3-9dca-ea6e16efc027" d="M9,20.51a9,9,0,1,1,9-9,9,9,0,0,1-9,9M9,4.26a7.3,7.3,0,1,0,7.3,7.3A7.31,7.31,0,0,0,9,4.26"/><path class="f6ea94a9-eb2b-40d3-9dca-ea6e16efc027" d="M9,12.39a.83.83,0,0,1-.82-.83V6.06a.83.83,0,1,1,1.65,0v5.5a.83.83,0,0,1-.83.83"/><path class="f6ea94a9-eb2b-40d3-9dca-ea6e16efc027" d="M11.2,1.65H6.71A.83.83,0,1,1,6.71,0H11.2a.83.83,0,1,1,0,1.65"/><path class="f6ea94a9-eb2b-40d3-9dca-ea6e16efc027" d="M9,4.26a.83.83,0,0,1-.82-.83V1.52a.83.83,0,1,1,1.65,0V3.43A.83.83,0,0,1,9,4.26"/></g></g></svg>