<svg xmlns="http://www.w3.org/2000/svg" viewBox="0 0 17.98 19.42"><defs><style>.ed3da6dc-0404-4421-a0f6-1e6af6e85bda{fill:#b0c1c0;}</style></defs><g id="a8a83038-ab2f-4f43-979a-ef488ffcd6a7" data-name="Layer 2"><g id="f7678005-88c3-4723-a62f-1702223d8034" data-name="Layer 2"><path class="ed3da6dc-0404-4421-a0f6-1e6af6e85bda" d="M17.15,17H.83A.83.83,0,0,1,0,16.19V5.79A5.8,5.8,0,0,1,5.79,0h6.4A5.8,5.8,0,0,1,18,5.79v10.4a.83.83,0,0,1-.83.82M1.65,15.36H16.32V5.79a4.14,4.14,0,0,0-4.13-4.14H5.79A4.15,4.15,0,0,0,1.65,5.79Z"/><path class="ed3da6dc-0404-4421-a0f6-1e6af6e85bda" d="M4.17,19.42c-1.56,0-2.48-.5-2.48-1.35V16.94a.83.83,0,0,1,1.65,0v.74a3.23,3.23,0,0,0,.83.09A3.2,3.2,0,0,0,5,17.68v-.74a.83.83,0,0,1,1.66,0v1.13c0,.85-.93,1.35-2.48,1.35"/><path class="ed3da6dc-0404-4421-a0f6-1e6af6e85bda" d="M13.81,19.42c-1.55,0-2.48-.5-2.48-1.35V16.94a.83.83,0,0,1,1.65,0v.74a3.83,3.83,0,0,0,1.65,0v-.74a.83.83,0,0,1,1.66,0v1.13c0,.85-.93,1.35-2.48,1.35"/><path class="ed3da6dc-0404-4421-a0f6-1e6af6e85bda" d="M5.06,11.58A1.24,1.24,0,1,0,6.3,12.82a1.24,1.24,0,0,0-1.24-1.24"/><path class="ed3da6dc-0404-4421-a0f6-1e6af6e85bda" d="M12.91,11.58a1.24,1.24,0,1,0,1.24,1.24,1.23,1.23,0,0,0-1.24-1.24"/><path class="ed3da6dc-0404-4421-a0f6-1e6af6e85bda" d="M14.67,10.52H3.31A1.23,1.23,0,0,1,2.07,9.28V5.67A1.23,1.23,0,0,1,3.31,4.43H14.67a1.24,1.24,0,0,1,1.24,1.24V9.28a1.24,1.24,0,0,1-1.24,1.24M3.82,5.91a.31.31,0,0,0-.33.29V8.75A.31.31,0,0,0,3.82,9H14a.32.32,0,0,0,.34-.29V6.2A.32.32,0,0,0,14,5.91H3.82Z"/></g></g></svg>