<svg xmlns="http://www.w3.org/2000/svg" viewBox="0 0 41.46 33.7"><defs><style>.eabe8bc9-6de4-4b86-860e-c702da8d4185{fill:#728783;}</style></defs><g id="a9da747c-92e9-46ac-b611-596474128fc4" data-name="Layer 2"><g id="ff0258ba-ca52-47e4-a74f-9aab1f9e96a9" data-name="Layer 2"><path class="eabe8bc9-6de4-4b86-860e-c702da8d4185" d="M26.76,19a4.35,4.35,0,1,1,4.35-4.35A4.35,4.35,0,0,1,26.76,19Zm0-6.89a2.55,2.55,0,1,0,2.55,2.54A2.55,2.55,0,0,0,26.76,12.15Z"/><path class="eabe8bc9-6de4-4b86-860e-c702da8d4185" d="M35.1,26.77a.84.84,0,0,1-.58-.22l-2.84-2.42a.9.9,0,1,1,1.17-1.37l2.2,1.88L36.71,23l-1.88-2.2a.89.89,0,0,1-.08-1.06A9.54,9.54,0,0,0,36,16.79a.89.89,0,0,1,.8-.69l2.89-.23V13.52l-2.89-.23a.89.89,0,0,1-.8-.69,9.54,9.54,0,0,0-1.22-2.93.89.89,0,0,1,.08-1.06l1.88-2.2L35.05,4.75l-2.2,1.88a.92.92,0,0,1-1.07.07,9.36,9.36,0,0,0-2.92-1.21.91.91,0,0,1-.7-.8L27.94,1.8H25.59l-.23,2.89a.88.88,0,0,1-.7.8A9.56,9.56,0,0,0,21.74,6.7a.9.9,0,0,1-1.06-.07l-2.2-1.88L16.82,6.41l1.88,2.2a.9.9,0,0,1,.07,1.06,9.76,9.76,0,0,0-1.21,2.93.89.89,0,0,1-.81.69L15,13.43a.9.9,0,1,1-.14-1.79L16,11.55a11.47,11.47,0,0,1,.94-2.26L14.91,7a.91.91,0,0,1,0-1.23l2.84-2.83A.89.89,0,0,1,19,2.84l2.35,2a11.47,11.47,0,0,1,2.26-.94L23.86.83a.9.9,0,0,1,.9-.83h4a.9.9,0,0,1,.9.83l.24,3.07a11.73,11.73,0,0,1,2.26.94l2.35-2a.87.87,0,0,1,1.21.05l2.84,2.83a.89.89,0,0,1,0,1.22l-2,2.35a11.09,11.09,0,0,1,.93,2.26l3.08.24a.9.9,0,0,1,.83.9v4a.9.9,0,0,1-.83.9l-3.08.24a11.09,11.09,0,0,1-.93,2.26l2,2.34a.9.9,0,0,1,0,1.23L35.74,26.5A.9.9,0,0,1,35.1,26.77Z"/><path class="eabe8bc9-6de4-4b86-860e-c702da8d4185" d="M8.66,20.77a4.38,4.38,0,0,1-4.35-4.6V14.94a4.36,4.36,0,1,1,8.7,0v1.23A4.38,4.38,0,0,1,8.66,20.77Zm0-8.62a2.59,2.59,0,0,0-2.55,2.79v1.23a2.56,2.56,0,1,0,5.1,0V14.94A2.59,2.59,0,0,0,8.66,12.15Z"/><path class="eabe8bc9-6de4-4b86-860e-c702da8d4185" d="M.9,33.7H.79a.89.89,0,0,1-.78-1s.57-4.83.86-6.91c.37-2.61,2-4.23,4.34-4.23H6.94a.92.92,0,0,1,.67.31l5.75,6.59h4.77a.91.91,0,0,1,.89.8,4.77,4.77,0,0,1-.94,3.41,3.29,3.29,0,0,1-2.54,1H10.38a.9.9,0,0,1-.69-.32L5.38,28.2a.9.9,0,0,1,1.38-1.15l4,4.85h4.74a1.48,1.48,0,0,0,1.19-.44,2.3,2.3,0,0,0,.48-1.21H13a.91.91,0,0,1-.68-.31L6.53,23.35H5.21c-2,0-2.44,1.87-2.56,2.68-.29,2.06-.85,6.83-.86,6.88A.9.9,0,0,1,.9,33.7Z"/><path class="eabe8bc9-6de4-4b86-860e-c702da8d4185" d="M24.18,31.11H19.87a.9.9,0,1,1,0-1.8h3.8l4.09-6.82h-10l-3.18,4.77a.9.9,0,0,1-1.5-1l3.45-5.18a.91.91,0,0,1,.75-.4H29.35a.91.91,0,0,1,.78.46.88.88,0,0,1,0,.9L25,30.68A.9.9,0,0,1,24.18,31.11Z"/><path class="eabe8bc9-6de4-4b86-860e-c702da8d4185" d="M31.07,33.7h-25a.9.9,0,0,1,0-1.8h25a.9.9,0,1,1,0,1.8Z"/></g></g></svg>