<svg xmlns="http://www.w3.org/2000/svg" viewBox="0 0 17.15 19.63"><defs><style>.b96bffc0-615d-40d1-b187-f5efc08a15c8{fill:#b0c1c0;}</style></defs><g id="bd651d77-f2f1-498c-abcb-0608183467be" data-name="Layer 2"><g id="e03ff666-f153-4b78-9217-a5b0d41df04b" data-name="Layer 2"><path class="b96bffc0-615d-40d1-b187-f5efc08a15c8" d="M8.58,12.19a3.62,3.62,0,1,1,3.61-3.62,3.62,3.62,0,0,1-3.61,3.62m0-5.58a2,2,0,1,0,2,2,2,2,0,0,0-2-2"/><path class="b96bffc0-615d-40d1-b187-f5efc08a15c8" d="M8.58,17.15a8.58,8.58,0,1,1,8.57-8.58,8.59,8.59,0,0,1-8.57,8.58m0-15.5A6.93,6.93,0,1,0,15.5,8.57,6.94,6.94,0,0,0,8.58,1.65"/><path class="b96bffc0-615d-40d1-b187-f5efc08a15c8" d="M13.1,19.63h-9a.82.82,0,0,1-.7-.39.81.81,0,0,1,0-.81l1.52-3.06A.84.84,0,0,1,5.94,15a6.93,6.93,0,0,0,5.31,0,.82.82,0,0,1,1.06.39l1.53,3.08a.81.81,0,0,1,0,.81.82.82,0,0,1-.7.39M5.43,18h6.34l-.61-1.23a8.6,8.6,0,0,1-5.12,0Z"/></g></g></svg>