<svg xmlns="http://www.w3.org/2000/svg" viewBox="0 0 16.52 19.31"><defs><style>.e8c819ce-b8b6-4864-8b5f-7fa8aa7b4cfa{fill:#b0c1c0;}</style></defs><g id="a69332ff-730c-4df4-b961-512448b23eaa" data-name="Layer 2"><g id="b5e0d21c-160e-4814-afe2-9afcdd6aa006" data-name="Layer 2"><path class="e8c819ce-b8b6-4864-8b5f-7fa8aa7b4cfa" d="M9.53,16.52A9.53,9.53,0,0,1,0,7,9.48,9.48,0,0,1,2.79.24.83.83,0,0,1,4,1.41,7.88,7.88,0,0,0,4,12.56a7.88,7.88,0,0,0,11.15,0,.82.82,0,0,1,1.17,0,.83.83,0,0,1,0,1.17,9.48,9.48,0,0,1-6.75,2.79Z"/><path class="e8c819ce-b8b6-4864-8b5f-7fa8aa7b4cfa" d="M9.53,13.86A6.88,6.88,0,1,1,16.41,7a6.88,6.88,0,0,1-6.88,6.88Zm0-12.1A5.23,5.23,0,1,0,14.76,7,5.22,5.22,0,0,0,9.53,1.76Z"/><path class="e8c819ce-b8b6-4864-8b5f-7fa8aa7b4cfa" d="M11.94,19.31H7.12a.83.83,0,0,1,0-1.65h4.82a.83.83,0,1,1,0,1.65Z"/><path class="e8c819ce-b8b6-4864-8b5f-7fa8aa7b4cfa" d="M9.53,18.57a.82.82,0,0,1-.82-.82V15.69a.83.83,0,0,1,1.65,0v2.06a.83.83,0,0,1-.83.82Z"/></g></g></svg>