<svg xmlns="http://www.w3.org/2000/svg" viewBox="0 0 23.63 23.63"><defs><style>.ade3dd6b-b19c-47d4-b048-e882ce3f7346{fill:#fff;}</style></defs><g id="b477786e-bf46-47ca-8ca4-4a92fd315cfd" data-name="Layer 2"><g id="a9661544-1e60-48b7-854d-4be0ceb64d21" data-name="Layer 7"><path class="ade3dd6b-b19c-47d4-b048-e882ce3f7346" d="M20.52,2a1.09,1.09,0,0,1,.81.3c1,1-.62,3.8-3.7,6.82L18.46,11a1,1,0,0,1,.66-.33.42.42,0,0,1,.3.12c.29.29,0,.82-.52,1.22l.91,2.05a1,1,0,0,1,.64-.32.45.45,0,0,1,.31.12c.28.29,0,.82-.51,1.21l1.13,2.58.16,2.49-6.75-8.52-.19.15c-2.37,1.86-4.56,3.5-6.22,4.69l-.23,5.17L6.05,18a2.55,2.55,0,0,1-.8.4h0c0-.06.09-.36.38-.84L2,15.47l5.17-.22C8.36,13.58,10,11.39,11.86,9L12,8.84,3.49,2.09,6,2.25,8.55,3.37a1.29,1.29,0,0,1,.91-.62.42.42,0,0,1,.3.12c.23.23.13.61-.2.95l2,.9a1.33,1.33,0,0,1,.92-.64.47.47,0,0,1,.31.12c.23.23.12.62-.21,1L14.51,6c2.42-2.46,4.69-4,6-4m0-2c-1.89,0-4.1,1.51-6,3.17a1.91,1.91,0,0,0-.31-.38,2.48,2.48,0,0,0-2.56-.57,2.36,2.36,0,0,0-.51-.76A2.41,2.41,0,0,0,9.46.75a2.69,2.69,0,0,0-1.23.3L6.79.41A2.32,2.32,0,0,0,6.11.25L3.61.09H3.48A2,2,0,0,0,2.24,3.66l7,5.51C8.07,10.65,7,12.06,6.11,13.3l-4.2.18A2,2,0,0,0,.06,15,2,2,0,0,0,1,17.2L3.2,18.5a1.92,1.92,0,0,0,.57,1.3,2.07,2.07,0,0,0,1.36.62l1.29,2.22a2,2,0,0,0,1.73,1,2,2,0,0,0,.48-.06,2,2,0,0,0,1.52-1.86l.18-4.19c1.25-.91,2.66-2,4.12-3.1l5.52,7a2,2,0,0,0,1.57.76,2,2,0,0,0,2-2.13l-.16-2.49a2.34,2.34,0,0,0-.17-.68l-.64-1.45a2.62,2.62,0,0,0,.3-1,2.41,2.41,0,0,0-.7-1.93,2.45,2.45,0,0,0-.76-.52,2.55,2.55,0,0,0,.13-.61,2.45,2.45,0,0,0-.7-1.94,2.37,2.37,0,0,0-.39-.32C22.1,7.21,23.61,5,23.63,3.12A3.08,3.08,0,0,0,22.74.88,3,3,0,0,0,20.52,0Z"/></g></g></svg>