<svg xmlns="http://www.w3.org/2000/svg" viewBox="0 0 13.91 13.91"><defs><style>.a2ed6b9e-ae4b-49ab-9bcd-0c53d7eedbc9{fill:#b0c1c0;}</style></defs><g id="a668f127-14da-47ab-a053-ecca78c3c7af" data-name="Layer 2"><g id="fc404da8-f7b8-4e6e-b2af-8f37a9195828" data-name="Layer 2"><path class="a2ed6b9e-ae4b-49ab-9bcd-0c53d7eedbc9" d="M7,13.91a7,7,0,1,1,7-7,7,7,0,0,1-7,7M7,1.23A5.73,5.73,0,1,0,12.67,7,5.73,5.73,0,0,0,7,1.23"/><path class="a2ed6b9e-ae4b-49ab-9bcd-0c53d7eedbc9" d="M6.59,10a.62.62,0,0,1-.44-1L8.1,7,6.15,5a.62.62,0,0,1,0-.87.63.63,0,0,1,.88,0L9.41,6.52a.62.62,0,0,1,0,.87L7,9.77a.62.62,0,0,1-.44.18"/><path class="a2ed6b9e-ae4b-49ab-9bcd-0c53d7eedbc9" d="M8.32,7.57H4.05A.61.61,0,0,1,3.44,7a.61.61,0,0,1,.61-.61H8.32A.61.61,0,0,1,8.94,7a.62.62,0,0,1-.62.62"/></g></g></svg>