<svg xmlns="http://www.w3.org/2000/svg" viewBox="0 0 24.83 23.5"><defs><style>.ad546744-992c-46d2-999a-bf4c695a5139{fill:#fff;}</style></defs><g id="e7657410-aa2a-4720-96d6-77f0bfa5e340" data-name="Layer 2"><g id="e25825a6-801a-413e-8c66-19ba335e9709" data-name="MY NEXUS"><path class="ad546744-992c-46d2-999a-bf4c695a5139" d="M23.83,23.5H18.5a1,1,0,0,1-1-1V1a1,1,0,0,1,1-1h5.33a1,1,0,0,1,1,1V22.5a1,1,0,0,1-1,1Zm-4.33-2h3.33V2H19.5V21.5Z"/><path class="ad546744-992c-46d2-999a-bf4c695a5139" d="M15.08,23.5H9.75a1,1,0,0,1-1-1V13.33a1,1,0,0,1,1-1h5.33a1,1,0,0,1,1,1V22.5a1,1,0,0,1-1,1Zm-4.33-2h3.33V14.33H10.75V21.5Z"/><path class="ad546744-992c-46d2-999a-bf4c695a5139" d="M6.33,23.5H1a1,1,0,0,1-1-1V8.83a1,1,0,0,1,1-1H6.33a1,1,0,0,1,1,1V22.5a1,1,0,0,1-1,1ZM2,21.5H5.33V9.83H2V21.5Z"/></g></g></svg>