<svg xmlns="http://www.w3.org/2000/svg" viewBox="0 0 115.18 115.18"><defs><style>.b13c865f-7178-42d6-9b37-83b5b9771e24{fill:#c0cccc;}.b79eab37-517e-42d9-a51b-d89702e86395{fill:#fff;}</style></defs><g id="b5a9c162-2ff4-43b3-be0c-4b0e61073d77" data-name="Layer 2"><g id="e743fd1f-e40b-4a7f-80c0-563909697506" data-name="welcome board"><path class="b13c865f-7178-42d6-9b37-83b5b9771e24" d="M0,0A47.82,47.82,0,0,1,33.8,14l67.38,67.38a47.82,47.82,0,0,1,14,33.8V53.39A53.39,53.39,0,0,0,61.79,0Z"/><path class="b79eab37-517e-42d9-a51b-d89702e86395" d="M75.22,42a1,1,0,0,1-.7-1.71L90,24.78a1,1,0,0,1,1.41,0,1,1,0,0,1,0,1.42L75.93,41.67a1,1,0,0,1-.71.29Z"/><path class="b79eab37-517e-42d9-a51b-d89702e86395" d="M90.69,42a1,1,0,0,1-.7-.29L74.52,26.2a1,1,0,0,1,0-1.42,1,1,0,0,1,1.41,0L91.4,40.25a1,1,0,0,1,0,1.42,1,1,0,0,1-.71.29Z"/></g></g></svg>