<svg xmlns="http://www.w3.org/2000/svg" viewBox="0 0 23.66 21.66"><defs><style>.e278940b-e60e-41cb-b08d-31ccdefe7423{fill:#728783;}</style></defs><g id="abc81688-7228-441c-8c47-db4f149b3a46" data-name="Layer 2"><g id="b61945fb-13d1-4520-aeac-a6946a764c05" data-name="Layer 7"><path class="e278940b-e60e-41cb-b08d-31ccdefe7423" d="M21.56,21.66H2.1A2.1,2.1,0,0,1,0,19.56V6a2.1,2.1,0,0,1,2.1-2.1H21.56A2.11,2.11,0,0,1,23.66,6V19.56a2.11,2.11,0,0,1-2.1,2.1ZM2.1,5.88A.09.09,0,0,0,2,6V19.56a.1.1,0,0,0,.1.1H21.56a.11.11,0,0,0,.1-.1V6a.1.1,0,0,0-.1-.1Z"/><path class="e278940b-e60e-41cb-b08d-31ccdefe7423" d="M15.82,5.58a1,1,0,0,1-1-1V2.1a.11.11,0,0,0-.1-.1H8.94a.09.09,0,0,0-.1.1V4.58a1,1,0,0,1-2,0V2.1A2.1,2.1,0,0,1,8.94,0h5.78a2.1,2.1,0,0,1,2.1,2.1V4.58a1,1,0,0,1-1,1Z"/></g></g></svg>