<svg xmlns="http://www.w3.org/2000/svg" viewBox="0 0 53.41 53.41"><defs><style>.a31e4b23-1619-4cf4-851b-7d8f4272fed8{fill:#c0cccc;}.b262241b-bd4e-4c55-b724-91823c1e1465{fill:#fff;}</style></defs><g id="a76e3795-752d-4f12-9ea0-e63bc6d247fb" data-name="Layer 2"><g id="f5b6d421-5a2e-41fb-bd21-ab194883123c" data-name="Completion"><rect class="a31e4b23-1619-4cf4-851b-7d8f4272fed8" width="53.41" height="53.41" rx="26.71"/><path class="b262241b-bd4e-4c55-b724-91823c1e1465" d="M26.7,14.93a11.77,11.77,0,1,1-8.33,3.45,11.67,11.67,0,0,1,8.33-3.45Zm0,21.55a9.78,9.78,0,1,0-6.91-16.69,9.8,9.8,0,0,0,0,13.83,9.7,9.7,0,0,0,6.91,2.86Z"/><path class="b262241b-bd4e-4c55-b724-91823c1e1465" d="M29.12,20.87a1,1,0,0,1,.71.29,1,1,0,0,1,0,1.41L25.7,26.71l4.13,4.13a1,1,0,1,1-1.41,1.41l-4.84-4.84a1,1,0,0,1-.3-.7,1,1,0,0,1,.3-.71l4.84-4.84a1,1,0,0,1,.7-.29Z"/></g></g></svg>