<svg xmlns="http://www.w3.org/2000/svg" viewBox="0 0 53.41 53.41"><defs><style>.a1103202-c5ad-4124-ac2f-58e80ed793ae{fill:#ff7800;}.b4c693ba-2879-491e-83dc-d5ab19032817{fill:#fff;}</style></defs><g id="fca03609-b357-476e-a9e1-003aa344d31f" data-name="Layer 2"><g id="af68210f-fa75-47c6-adbc-007a050d419d" data-name="Completion"><rect class="a1103202-c5ad-4124-ac2f-58e80ed793ae" width="53.41" height="53.41" rx="26.71"/><path class="b4c693ba-2879-491e-83dc-d5ab19032817" d="M26.2,38.48a11.78,11.78,0,1,1,8.33-20.1,11.79,11.79,0,0,1,0,16.65,11.67,11.67,0,0,1-8.33,3.45Zm0-21.55a9.78,9.78,0,1,0,6.91,2.86,9.74,9.74,0,0,0-6.91-2.86Z"/><path class="b4c693ba-2879-491e-83dc-d5ab19032817" d="M23.78,32.55a1,1,0,0,1-.7-.3,1,1,0,0,1,0-1.41l4.13-4.13-4.13-4.14a1,1,0,0,1,1.41-1.41L29.33,26a1,1,0,0,1,.3.71,1,1,0,0,1-.3.7l-4.84,4.84a1,1,0,0,1-.71.3Z"/></g></g></svg>