<svg xmlns="http://www.w3.org/2000/svg" viewBox="0 0 60.31 54.65"><defs><style>.ff68cf2d-4435-4a3a-9360-80a281fda6cd{fill:none;stroke:#0081a0;stroke-linecap:round;stroke-linejoin:round;stroke-width:2.51px;}</style></defs><g id="b095a641-a545-46df-88e6-4370cb9674c2" data-name="Layer 2"><g id="b197fbb0-0d10-4ef8-bebe-544888b22127" data-name="Welcome board 2"><path class="ff68cf2d-4435-4a3a-9360-80a281fda6cd" d="M36.43,38.32H49a10,10,0,0,0,0-20.1,9.8,9.8,0,0,0-1.33.1,10,10,0,0,0-10-8.9,10.16,10.16,0,0,0-3.5.64,11.61,11.61,0,0,0-22.88,2.82c0,.19,0,.37,0,.56a12.56,12.56,0,0,0,2.48,24.88H23.87"/><line class="ff68cf2d-4435-4a3a-9360-80a281fda6cd" x1="30.15" y1="24.5" x2="30.15" y2="53.4"/><polyline class="ff68cf2d-4435-4a3a-9360-80a281fda6cd" points="21.36 44.6 30.15 53.4 38.95 44.6"/></g></g></svg>