<svg xmlns="http://www.w3.org/2000/svg" viewBox="0 0 43.18 46.21"><defs><style>.ae932c68-01ab-4415-867d-d869e0b5d806{fill:none;stroke:#728783;stroke-linecap:round;stroke-linejoin:round;stroke-width:2px;}</style></defs><g id="ef7d14ef-93a6-4e99-b9a3-7b5ff028db19" data-name="Layer 2"><g id="b85b2cf6-fd65-41b0-8314-7dc7ec09a920" data-name="Layer 7"><path class="ae932c68-01ab-4415-867d-d869e0b5d806" d="M21.61,6.54A5.33,5.33,0,0,0,16.19,1a5.44,5.44,0,0,0-5.42,3.86C7.1,5,4.65,8.84,5,12.3.85,13.6-.36,19.73,2.75,23.17,1,26.75,3,31.85,7.22,32.36"/><path class="ae932c68-01ab-4415-867d-d869e0b5d806" d="M8.1,23.17c1.69-3.58,5.5-1.84,7.24-4.62"/><path class="ae932c68-01ab-4415-867d-d869e0b5d806" d="M9.59,21.45a3.82,3.82,0,0,1-3-3.45"/><path class="ae932c68-01ab-4415-867d-d869e0b5d806" d="M26.89,5.93c1,2.06,1.42,3.79.08,6-.2.32-.42.63-.65.93"/><path class="ae932c68-01ab-4415-867d-d869e0b5d806" d="M32.22,13.59a6.85,6.85,0,0,1,6-1.29"/><path class="ae932c68-01ab-4415-867d-d869e0b5d806" d="M21.61,6.54A5.26,5.26,0,0,1,26.94,1a5.44,5.44,0,0,1,5.42,3.86c3.68.12,6.13,4,5.81,7.44,2.31.73,4,3.25,4,6.25a7.08,7.08,0,0,1-1.74,4.76,8.06,8.06,0,0,1,.08,2.36c-.43,3.84-3.45,6.64-6.75,6.27a6.31,6.31,0,0,1-2.9,3.42"/><polygon class="ae932c68-01ab-4415-867d-d869e0b5d806" points="21.97 29.79 23.8 18.48 13.21 33.9 20.05 33.9 19.14 45.22 28.81 29.79 21.97 29.79"/><line class="ae932c68-01ab-4415-867d-d869e0b5d806" x1="21.61" y1="6.14" x2="21.61" y2="13.34"/><path class="ae932c68-01ab-4415-867d-d869e0b5d806" d="M16.19,6.54c1.35,7.28-5.49,2-5.37,9.24"/><path class="ae932c68-01ab-4415-867d-d869e0b5d806" d="M36.17,18.55c-2.62.15-5.13,2-5.18,3.09s.9,4.16,3.67,4.69"/><line class="ae932c68-01ab-4415-867d-d869e0b5d806" x1="4.97" y1="12.3" x2="6.59" y2="12.99"/><line class="ae932c68-01ab-4415-867d-d869e0b5d806" x1="40.44" y1="23.31" x2="37.88" y2="23.17"/><line class="ae932c68-01ab-4415-867d-d869e0b5d806" x1="33.77" y1="31.94" x2="31.89" y2="30.56"/><path class="ae932c68-01ab-4415-867d-d869e0b5d806" d="M31,21.64s-2.63.49-3.56-1.54"/><line class="ae932c68-01ab-4415-867d-d869e0b5d806" x1="32.36" y1="4.7" x2="31.47" y2="7.47"/><line class="ae932c68-01ab-4415-867d-d869e0b5d806" x1="10.86" y1="4.7" x2="11.75" y2="7.47"/><path class="ae932c68-01ab-4415-867d-d869e0b5d806" d="M9.27,34.93a2.36,2.36,0,0,1-2-2.57,2.36,2.36,0,0,1,2.05-2.57"/></g></g></svg>