<svg xmlns="http://www.w3.org/2000/svg" viewBox="0 0 62.55 49.41"><defs><style>.afcce6e1-9696-48e0-9e5b-788c2105017c{fill:none;stroke:#fff;stroke-linecap:round;stroke-linejoin:round;stroke-width:2.5px;}</style></defs><g id="ac70d2fb-4fc5-4310-a656-37a73cea0d51" data-name="Layer 2"><g id="a110f2dd-e48c-4a8f-97fe-2715ba09daf2" data-name="MY NEXUS"><circle class="afcce6e1-9696-48e0-9e5b-788c2105017c" cx="19.97" cy="27.75" r="5.31"/><path class="afcce6e1-9696-48e0-9e5b-788c2105017c" d="M4,24.11C3,30.07,1.86,38.19,1.41,41c-.67,4.17.91,6.09,2.65,6.62A6,6,0,0,0,10.69,45c.91-1.34,4-6.68,5.3-9.28"/><line class="afcce6e1-9696-48e0-9e5b-788c2105017c" x1="21.29" y1="11.85" x2="41.17" y2="11.85"/><line class="afcce6e1-9696-48e0-9e5b-788c2105017c" x1="25.27" y1="27.76" x2="35.87" y2="27.76"/><path class="afcce6e1-9696-48e0-9e5b-788c2105017c" d="M16,3.9a2.49,2.49,0,0,0-2.27-2.65H10.31A2.48,2.48,0,0,0,8,3.9"/><line class="afcce6e1-9696-48e0-9e5b-788c2105017c" x1="12.01" y1="21.13" x2="12.01" y2="13.18"/><line class="afcce6e1-9696-48e0-9e5b-788c2105017c" x1="8.04" y1="17.16" x2="15.99" y2="17.16"/><path class="afcce6e1-9696-48e0-9e5b-788c2105017c" d="M21.13,22.57a10.62,10.62,0,1,0-6.46,4.85"/><path class="afcce6e1-9696-48e0-9e5b-788c2105017c" d="M37.21,27.75a5.31,5.31,0,1,0,5.31-5.3A5.31,5.31,0,0,0,37.21,27.75Z"/><path class="afcce6e1-9696-48e0-9e5b-788c2105017c" d="M58.49,24.11c1,6,2.19,14.4,2.65,17.23.67,4.17-.91,6.09-2.65,6.63a6.06,6.06,0,0,1-6.63-2.66c-.92-1.34-4-6.68-5.3-9.27"/><path class="afcce6e1-9696-48e0-9e5b-788c2105017c" d="M46.5,3.9a2.49,2.49,0,0,1,2.27-2.65h3.41A2.48,2.48,0,0,1,54.45,3.9"/><line class="afcce6e1-9696-48e0-9e5b-788c2105017c" x1="50.45" y1="21.13" x2="50.45" y2="18.48"/><line class="afcce6e1-9696-48e0-9e5b-788c2105017c" x1="50.45" y1="15.83" x2="50.45" y2="13.18"/><line class="afcce6e1-9696-48e0-9e5b-788c2105017c" x1="49.13" y1="17.16" x2="46.48" y2="17.16"/><line class="afcce6e1-9696-48e0-9e5b-788c2105017c" x1="51.78" y1="17.16" x2="54.43" y2="17.16"/><path class="afcce6e1-9696-48e0-9e5b-788c2105017c" d="M41.36,22.57a10.6,10.6,0,1,1,9.12,5.19,10.93,10.93,0,0,1-2.65-.33"/></g></g></svg>