<?xml version="1.0" encoding="utf-8"?>
<!-- Generator: Adobe Illustrator 24.1.2, SVG Export Plug-In . SVG Version: 6.00 Build 0)  -->
<svg version="1.1" id="Layer_1" xmlns="http://www.w3.org/2000/svg" xmlns:xlink="http://www.w3.org/1999/xlink" x="0px" y="0px"
	 viewBox="0 0 17.5 17.5" style="enable-background:new 0 0 17.5 17.5;" xml:space="preserve">
<style type="text/css">
	.st0{fill:#B0C1C0;}
</style>
<g id="b70ad353-8389-47b5-9226-9aa8ae6dffce">
	<g id="b46fe5cf-c202-471f-a10e-ab4016a4e797">
		<path class="st0" d="M3,15.2c-0.4,0-0.7-0.3-0.7-0.7c0-0.2,0.1-0.4,0.2-0.5L14,2.4c0.3-0.3,0.8-0.3,1.1,0c0.3,0.3,0.3,0.8,0,1.1
			L3.5,15C3.4,15.2,3.2,15.2,3,15.2z"/>
		<path class="st0" d="M14.5,15.2c-0.2,0-0.4-0.1-0.5-0.2L2.4,3.5c-0.3-0.3-0.3-0.8,0-1.1s0.8-0.3,1.1,0L15,14
			c0.3,0.3,0.3,0.8,0,1.1c0,0,0,0,0,0C14.9,15.2,14.7,15.2,14.5,15.2z"/>
	</g>
</g>
</svg>
