<?xml version="1.0" encoding="utf-8"?>
<!-- Generator: Adobe Illustrator 24.1.2, SVG Export Plug-In . SVG Version: 6.00 Build 0)  -->
<svg version="1.1" id="Layer_1" xmlns="http://www.w3.org/2000/svg" xmlns:xlink="http://www.w3.org/1999/xlink" x="0px" y="0px"
	 viewBox="0 0 17.5 17.5" style="enable-background:new 0 0 17.5 17.5;" xml:space="preserve">
<style type="text/css">
	.st0{fill:#FFFFFF;}
</style>
<g id="af27e156-8f66-46a6-86d9-38d5ca83dd12">
	<g id="ef7f5c75-3219-40e7-b824-8fd5b7b61667">
		<path class="st0" d="M3,15.2c-0.4,0-0.7-0.3-0.7-0.7c0-0.2,0.1-0.4,0.2-0.5L14,2.4c0.3-0.3,0.8-0.3,1.1,0s0.3,0.8,0,1.1L3.5,15
			C3.4,15.2,3.2,15.2,3,15.2z"/>
		<path class="st0" d="M14.5,15.2c-0.2,0-0.4-0.1-0.5-0.2L2.4,3.5c-0.3-0.3-0.3-0.8,0-1.1s0.8-0.3,1.1,0L15,14
			c0.3,0.3,0.3,0.8,0,1.1c0,0,0,0,0,0C14.9,15.2,14.7,15.2,14.5,15.2z"/>
	</g>
</g>
</svg>
