<svg xmlns="http://www.w3.org/2000/svg" viewBox="0 0 14.5 14.5"><defs><style>.f93fba1e-8dd4-4f78-84dc-874dc8dfa6aa{fill:#b0c1c0;}.bb18c785-3519-4da4-a497-49e41623ca5e{fill:#ebf2f2;}</style></defs><g id="ab043a4f-9565-4625-81fa-ca52d19eab01" data-name="Layer 2"><g id="a10bad4c-88c1-491b-81a3-de885d59de36" data-name="Layer 2"><path class="f93fba1e-8dd4-4f78-84dc-874dc8dfa6aa" d="M7.25,14.5A7.25,7.25,0,0,1,2.12,2.12a7.27,7.27,0,0,1,10.26,0,7.28,7.28,0,0,1,0,10.26A7.2,7.2,0,0,1,7.25,14.5"/><path class="bb18c785-3519-4da4-a497-49e41623ca5e" d="M7.25,10a.62.62,0,0,1-.44-.18l-3-3a.62.62,0,0,1,.87-.87L7.25,8.49,9.79,5.94a.63.63,0,0,1,.88,0,.62.62,0,0,1,0,.87l-3,3a.58.58,0,0,1-.43.18"/></g></g></svg>