<svg xmlns="http://www.w3.org/2000/svg" viewBox="0 0 25.28 23.77"><defs><style>.a001f529-b041-491f-a978-ff706e0195bf{fill:#728783;}</style></defs><g id="a657457c-a006-46cf-8875-1d4a3f3111a9" data-name="Layer 2"><g id="af984f55-7210-4d54-8071-81f58fbb6dbb" data-name="Layer 7"><path class="a001f529-b041-491f-a978-ff706e0195bf" d="M5.19,23.35a2.85,2.85,0,0,1-2-.8c-1.24-1.25-1-3.42.5-4.95l4.91-4.91a1,1,0,0,1,1.42,0l3,3a1,1,0,0,1,.29.71,1,1,0,0,1-.29.7L8.12,22.05a4.26,4.26,0,0,1-2.93,1.3Zm4.1-8.54L5.08,19c-.77.78-.88,1.74-.49,2.12a.82.82,0,0,0,.6.22,2.23,2.23,0,0,0,1.51-.72l4.21-4.2L9.29,14.81Z"/><path class="a001f529-b041-491f-a978-ff706e0195bf" d="M21.61,6.54A2.43,2.43,0,0,1,19.89,2.4L21.56.73A1,1,0,0,1,23,.73l2,2a1,1,0,0,1,.29.71,1,1,0,0,1-.29.71L23.32,5.83a2.43,2.43,0,0,1-1.71.71Zm.66-3.69-1,1a.42.42,0,0,0,0,.6.36.36,0,0,0,.6,0l1-1-.6-.6Z"/><path class="a001f529-b041-491f-a978-ff706e0195bf" d="M15.1,11.61a1,1,0,0,1-.71-1.7l5.5-5.5a1,1,0,0,1,1.42,0,1,1,0,0,1,0,1.41l-5.5,5.5a1,1,0,0,1-.71.29Z"/><path class="a001f529-b041-491f-a978-ff706e0195bf" d="M19.91,23.77h0a3.83,3.83,0,0,1-2.72-1.13L7.62,13.07a6.57,6.57,0,0,1-7.2-8.8,1,1,0,0,1,.72-.62,1,1,0,0,1,.92.27L4.75,6.61l1.47-.39.39-1.46-2.7-2.7a1,1,0,0,1-.27-.92A1,1,0,0,1,4.27.42a6.58,6.58,0,0,1,7,1.5,6.65,6.65,0,0,1,1.84,5.71l9.57,9.57a3.85,3.85,0,0,1-2.73,6.57ZM8,11a1,1,0,0,1,.71.3l10,10a1.89,1.89,0,0,0,2.61,0,1.82,1.82,0,0,0,0-2.61L11.27,8.66a1,1,0,0,1-.26-1A4.57,4.57,0,0,0,6.68,2L8.43,3.75a1,1,0,0,1,.26,1L8,7.29A1,1,0,0,1,7.29,8l-2.58.69a1,1,0,0,1-1-.26L2,6.68A4.57,4.57,0,0,0,7.71,11L8,11Z"/><path class="a001f529-b041-491f-a978-ff706e0195bf" d="M19.77,18.87a.83.83,0,1,0,0,1.66.83.83,0,0,0,0-1.66Z"/></g></g></svg>