<svg xmlns="http://www.w3.org/2000/svg" viewBox="0 0 56.14 40.29"><defs><style>.b3ed227e-b7f7-4c53-8277-a3e5e55a3244{fill:none;stroke:#728783;stroke-linecap:round;stroke-linejoin:round;stroke-width:2px;}</style></defs><g id="b7732cf2-d2a7-4200-a72c-f24d0ce4c83e" data-name="Layer 2"><g id="fc611db6-e9d1-4c27-92c3-28c6d297d01e" data-name="MY NEXUS"><path class="b3ed227e-b7f7-4c53-8277-a3e5e55a3244" d="M54.43,18.07a3.44,3.44,0,0,1,0,4.16c-3.72,5-14,17.06-26.27,17.06S5.48,27.18,1.71,22.22a3.44,3.44,0,0,1,0-4.16C5.41,13.09,15.73,1,28,1S50.66,13.11,54.43,18.07Z"/><path class="b3ed227e-b7f7-4c53-8277-a3e5e55a3244" d="M28.26,12a8.43,8.43,0,0,0-3.55.79,3.72,3.72,0,0,1-4.56,5.63A8.12,8.12,0,0,0,20,20.15,8.3,8.3,0,1,0,28.26,12Z"/><path class="b3ed227e-b7f7-4c53-8277-a3e5e55a3244" d="M36.54,33.63c4.38-2.42,7.27-7.72,7.27-13.3S40.92,9.41,36.54,7"/><path class="b3ed227e-b7f7-4c53-8277-a3e5e55a3244" d="M19.59,7c-4.37,2.43-7.27,7.78-7.27,13.35s2.9,10.88,7.27,13.3"/></g></g></svg>