<svg xmlns="http://www.w3.org/2000/svg" viewBox="0 0 52.5 71.64"><defs><style>.aeccbc7a-3ee2-49e0-a700-6ef4e4af84b3{fill:none;stroke:#0081a0;stroke-linecap:round;stroke-linejoin:round;stroke-width:2.5px;}</style></defs><g id="e99a9c2b-e922-4118-93c9-0dd27d48da1b" data-name="Layer 2"><g id="b358b396-6f46-460f-9068-09fcb2d5a527" data-name="welcome board"><path class="aeccbc7a-3ee2-49e0-a700-6ef4e4af84b3" d="M29,50.36A33.17,33.17,0,0,1,5.94,65"/><path class="aeccbc7a-3ee2-49e0-a700-6ef4e4af84b3" d="M34.06,32.5a32.72,32.72,0,0,1-2.28,12"/><path class="aeccbc7a-3ee2-49e0-a700-6ef4e4af84b3" d="M49.69,46.56V32.5A23.37,23.37,0,0,0,46.08,20"/><path class="aeccbc7a-3ee2-49e0-a700-6ef4e4af84b3" d="M11,14.67a23.44,23.44,0,0,1,31.15.64"/><path class="aeccbc7a-3ee2-49e0-a700-6ef4e4af84b3" d="M2.81,34.06V32.5A23.29,23.29,0,0,1,7.14,18.93"/><path class="aeccbc7a-3ee2-49e0-a700-6ef4e4af84b3" d="M20.44,27.28A7.81,7.81,0,0,1,34.06,32.5"/><path class="aeccbc7a-3ee2-49e0-a700-6ef4e4af84b3" d="M1.25,49.69A17.19,17.19,0,0,0,18.43,33"/><path class="aeccbc7a-3ee2-49e0-a700-6ef4e4af84b3" d="M51.25,54.38A9.37,9.37,0,0,1,41.88,45V32.5a15.57,15.57,0,0,0-2.45-8.4"/><path class="aeccbc7a-3ee2-49e0-a700-6ef4e4af84b3" d="M20,18.44a13.65,13.65,0,0,1,6.25-1.56A15.54,15.54,0,0,1,35.62,20"/><path class="aeccbc7a-3ee2-49e0-a700-6ef4e4af84b3" d="M1.25,41.87a9.37,9.37,0,0,0,9.38-9.37,15.78,15.78,0,0,1,4.68-10.94"/><path class="aeccbc7a-3ee2-49e0-a700-6ef4e4af84b3" d="M36.27,54c3,4.61,6.65,7.94,11.85,9"/><path class="aeccbc7a-3ee2-49e0-a700-6ef4e4af84b3" d="M41.88,69.39a32.83,32.83,0,0,1-7.15-4.78,6.4,6.4,0,0,0-8.14-.33,31.08,31.08,0,0,1-12.84,6.11"/><path class="aeccbc7a-3ee2-49e0-a700-6ef4e4af84b3" d="M19.41,49.69A24.92,24.92,0,0,0,26.25,32.5V30.94"/><path class="aeccbc7a-3ee2-49e0-a700-6ef4e4af84b3" d="M1.25,57.5a24.88,24.88,0,0,0,13.16-3.74"/><path class="aeccbc7a-3ee2-49e0-a700-6ef4e4af84b3" d="M17.27,2.69a31,31,0,0,1,9-1.44A31.17,31.17,0,0,1,50,12.19"/><path class="aeccbc7a-3ee2-49e0-a700-6ef4e4af84b3" d="M2.5,12.19a32.22,32.22,0,0,1,9.34-7.64"/></g></g></svg>