<svg xmlns="http://www.w3.org/2000/svg" viewBox="0 0 17.75 23.67"><defs><style>.a9855cfa-d3c1-424d-b825-434d6da4fd59{fill:none;}.a55eacb9-c616-4668-a310-6083b63bce0d{fill:#fff;}</style></defs><g id="bb613288-a959-45d1-a0a1-d8a17800fd21" data-name="Layer 2"><g id="a8b9fc9d-0cac-4976-bbfe-3897a95cded0" data-name="OPPORTUNITIES"><path class="a9855cfa-d3c1-424d-b825-434d6da4fd59" d="M12.83,11.2a1,1,0,0,1,0-.75,10.08,10.08,0,0,1,1.11-2.16A8.7,8.7,0,0,0,15,6.1a6.48,6.48,0,0,1-2.48.48A10.64,10.64,0,0,1,8.46,5.07,9.23,9.23,0,0,0,5.23,3.8,4.87,4.87,0,0,0,2,5.06v9.13a6.5,6.5,0,0,1,3.23-.83,10.51,10.51,0,0,1,4,1.5,9,9,0,0,0,3.24,1.27,4.75,4.75,0,0,0,2.93-1,13.39,13.39,0,0,0-.9-1.2A10.51,10.51,0,0,1,12.83,11.2Z"/><path class="a55eacb9-c616-4668-a310-6083b63bce0d" d="M16.61,13.51a10.49,10.49,0,0,1-1.79-2.75A24,24,0,0,1,16.1,8,20.28,20.28,0,0,0,17.71,4a1,1,0,0,0-.44-1.12,1,1,0,0,0-.52-.15,1,1,0,0,0-.68.27,5,5,0,0,1-3.55,1.54A9.2,9.2,0,0,1,9.28,3.31a10.54,10.54,0,0,0-4-1.51A6.51,6.51,0,0,0,2,2.64V1A1,1,0,0,0,0,1V22.67a1,1,0,0,0,2,0v-6a4.84,4.84,0,0,1,3.23-1.29,9.23,9.23,0,0,1,3.23,1.27,10.64,10.64,0,0,0,4.06,1.51A7,7,0,0,0,17.44,16a1,1,0,0,0,.15-1.26A11.69,11.69,0,0,0,16.61,13.51Zm-4.09,2.62a9,9,0,0,1-3.24-1.27,10.51,10.51,0,0,0-4-1.5A6.5,6.5,0,0,0,2,14.19V5.06A4.87,4.87,0,0,1,5.23,3.8,9.23,9.23,0,0,1,8.46,5.07a10.64,10.64,0,0,0,4.06,1.51A6.48,6.48,0,0,0,15,6.1a8.7,8.7,0,0,1-1.08,2.19,10.08,10.08,0,0,0-1.11,2.16,1,1,0,0,0,0,.75,10.51,10.51,0,0,0,1.72,2.71,13.39,13.39,0,0,1,.9,1.2A4.75,4.75,0,0,1,12.52,16.13Z"/></g></g></svg>