<svg xmlns="http://www.w3.org/2000/svg" viewBox="0 0 17.75 23.67"><defs><style>.ebc4ea0a-a4a0-4969-abbe-922fd4004e65{fill:none;}.b7b825fa-a41e-458c-9b4e-d0a2fa789aa3{fill:#b0c1c0;}</style></defs><g id="b38acabe-5229-467a-a57d-c3041334709e" data-name="Layer 2"><g id="e1b5a22b-4823-44f2-b555-20508a1a186a" data-name="OPPORTUNITIES"><path class="ebc4ea0a-a4a0-4969-abbe-922fd4004e65" d="M12.83,11.2a1,1,0,0,1,0-.75,10.08,10.08,0,0,1,1.11-2.16A8.7,8.7,0,0,0,15,6.1a6.48,6.48,0,0,1-2.48.48A10.64,10.64,0,0,1,8.46,5.07,9.23,9.23,0,0,0,5.23,3.8,4.87,4.87,0,0,0,2,5.06v9.13a6.5,6.5,0,0,1,3.23-.83,10.51,10.51,0,0,1,4,1.5,9,9,0,0,0,3.24,1.27,4.75,4.75,0,0,0,2.93-1,13.39,13.39,0,0,0-.9-1.2A10.51,10.51,0,0,1,12.83,11.2Z"/><path class="b7b825fa-a41e-458c-9b4e-d0a2fa789aa3" d="M16.61,13.51a10.49,10.49,0,0,1-1.79-2.75A24,24,0,0,1,16.1,8,20.28,20.28,0,0,0,17.71,4a1,1,0,0,0-.44-1.12,1,1,0,0,0-.52-.15,1,1,0,0,0-.68.27,5,5,0,0,1-3.55,1.54A9.2,9.2,0,0,1,9.28,3.31a10.54,10.54,0,0,0-4-1.51A6.51,6.51,0,0,0,2,2.64V1A1,1,0,0,0,0,1V22.67a1,1,0,0,0,2,0v-6a4.84,4.84,0,0,1,3.23-1.29,9.23,9.23,0,0,1,3.23,1.27,10.64,10.64,0,0,0,4.06,1.51A7,7,0,0,0,17.44,16a1,1,0,0,0,.15-1.26A11.69,11.69,0,0,0,16.61,13.51Zm-4.09,2.62a9,9,0,0,1-3.24-1.27,10.51,10.51,0,0,0-4-1.5A6.5,6.5,0,0,0,2,14.19V5.06A4.87,4.87,0,0,1,5.23,3.8,9.23,9.23,0,0,1,8.46,5.07a10.64,10.64,0,0,0,4.06,1.51A6.48,6.48,0,0,0,15,6.1a8.7,8.7,0,0,1-1.08,2.19,10.08,10.08,0,0,0-1.11,2.16,1,1,0,0,0,0,.75,10.51,10.51,0,0,0,1.72,2.71,13.39,13.39,0,0,1,.9,1.2A4.75,4.75,0,0,1,12.52,16.13Z"/></g></g></svg>