<svg xmlns="http://www.w3.org/2000/svg" viewBox="0 0 26.14 22.91"><defs><style>.adf5b5cc-835b-499c-bb4f-185e49dfdd1b{fill:#fff;}</style></defs><g id="e8286837-11c9-4ff9-9531-6b9aff56059d" data-name="Layer 2"><g id="b356de65-c522-4e6a-9f77-6f9649da989b" data-name="OPPORTUNITIES"><path class="adf5b5cc-835b-499c-bb4f-185e49dfdd1b" d="M13,22.91a1.19,1.19,0,0,1-.8-.4l-12-16A1,1,0,0,1,.37,5.18L6.4.23A1,1,0,0,1,7,0H19.11a1,1,0,0,1,.63.23l6,4.95a1,1,0,0,1,.16,1.38l-12.16,16a1,1,0,0,1-.79.4ZM2.37,6.12,13,20.25,23.76,6.11,18.75,2H7.39l-5,4.12Z"/><path class="adf5b5cc-835b-499c-bb4f-185e49dfdd1b" d="M25.14,6.45H1a.5.5,0,0,1-.32-.88l6-5A.52.52,0,0,1,7,.5H19.11a.51.51,0,0,1,.31.11l6,5a.5.5,0,0,1-.32.88ZM2.4,5.45H23.74L18.93,1.5H7.21l-4.81,4Z"/><path class="adf5b5cc-835b-499c-bb4f-185e49dfdd1b" d="M13.07,22.54a.5.5,0,0,1-.48-.37L6.74,1.42A.51.51,0,0,1,7.09.8a.49.49,0,0,1,.61.35L13.07,20.2l5.37-19A.5.5,0,0,1,19.05.8a.51.51,0,0,1,.35.62L13.55,22.17a.5.5,0,0,1-.48.37Z"/><path class="adf5b5cc-835b-499c-bb4f-185e49dfdd1b" d="M13.07,6.42a.51.51,0,0,1-.31-.11L6.91,1.68A.51.51,0,0,1,6.83,1a.5.5,0,0,1,.7-.08l5.54,4.39L18.61.89a.5.5,0,0,1,.7.08.51.51,0,0,1-.08.71L13.38,6.31a.51.51,0,0,1-.31.11Z"/></g></g></svg>