<svg xmlns="http://www.w3.org/2000/svg" viewBox="0 0 55.28 56.54"><defs><style>.b212b7fe-29a9-4ed5-b4c0-4679950c2475{fill:none;stroke:#0081a0;stroke-linecap:round;stroke-linejoin:round;stroke-width:2.51px;}</style></defs><g id="b5c05877-44ea-4122-bea5-f9f43d53974d" data-name="Layer 2"><g id="a45e8998-23c9-4c59-b6b9-620a69210f3c" data-name="Welcome board 2"><path class="b212b7fe-29a9-4ed5-b4c0-4679950c2475" d="M7.54,25.13H3.77a2.66,2.66,0,0,0-2.51,2.79v7a2.66,2.66,0,0,0,2.51,2.79H7.54V20.52c0-9.25,9.29-19.26,20.73-19.26S49,11.27,49,20.52v9.63"/><path class="b212b7fe-29a9-4ed5-b4c0-4679950c2475" d="M49,25.13h2.51A2.66,2.66,0,0,1,54,27.92v7a2.66,2.66,0,0,1-2.51,2.79H49"/><path class="b212b7fe-29a9-4ed5-b4c0-4679950c2475" d="M44,30.15v3.77c0,4.54-2.33,10.38-6.28,13.35"/><path class="b212b7fe-29a9-4ed5-b4c0-4679950c2475" d="M20.1,10.05c0,8.8,17.51,20.1,26.39,20.1"/><path class="b212b7fe-29a9-4ed5-b4c0-4679950c2475" d="M21.36,15.08c-3.77,1.57-8.8,8.56-8.8,13.82v5c0,5.52,3.86,12.23,10.15,15.07"/><path class="b212b7fe-29a9-4ed5-b4c0-4679950c2475" d="M33.92,52.77a2.51,2.51,0,0,1-2.51,2.51H27.64a2.51,2.51,0,0,1-2.51-2.51h0a2.51,2.51,0,0,1,2.51-2.52h3.77a2.51,2.51,0,0,1,2.51,2.52Z"/><path class="b212b7fe-29a9-4ed5-b4c0-4679950c2475" d="M32.67,52.77h1.48A14.85,14.85,0,0,0,49,37.92v-4"/></g></g></svg>