<svg xmlns="http://www.w3.org/2000/svg" viewBox="0 0 23.17 23.16"><defs><style>.be716040-3036-4bc7-86fb-6c02fb046ee6{fill:#728783;}</style></defs><g id="f0425871-ab49-409c-9c04-a2840aa80306" data-name="Layer 2"><g id="b04267f3-954d-4be3-8159-2171a0758100" data-name="Layer 7"><path class="be716040-3036-4bc7-86fb-6c02fb046ee6" d="M7.67,14.5A7.68,7.68,0,0,1,0,6.83V1A1,1,0,0,1,2,1V6.83a5.67,5.67,0,1,0,11.33,0V1a1,1,0,0,1,2,0V6.83A7.68,7.68,0,0,1,7.67,14.5Z"/><path class="be716040-3036-4bc7-86fb-6c02fb046ee6" d="M13.78,23.16A7.16,7.16,0,0,1,6.63,16v-2.3a1,1,0,0,1,2,0V16a5.15,5.15,0,0,0,10.3,0v-2.3a1,1,0,0,1,2,0V16a7.16,7.16,0,0,1-7.15,7.15Z"/><path class="be716040-3036-4bc7-86fb-6c02fb046ee6" d="M19.85,13.71a3.32,3.32,0,1,1,3.32-3.31,3.32,3.32,0,0,1-3.32,3.31Zm0-4.63a1.32,1.32,0,1,0,1.32,1.32,1.32,1.32,0,0,0-1.32-1.32Z"/><path class="be716040-3036-4bc7-86fb-6c02fb046ee6" d="M2.12,2H1A1,1,0,0,1,1,0H2.12a1,1,0,0,1,0,2Z"/><path class="be716040-3036-4bc7-86fb-6c02fb046ee6" d="M14.33,2H13.21a1,1,0,0,1,0-2h1.12a1,1,0,0,1,0,2Z"/></g></g></svg>