<svg xmlns="http://www.w3.org/2000/svg" viewBox="0 0 41.14 43.93"><defs><style>.ffaec8ae-42d5-4ca9-8852-bdd6c56a5a2f{fill:none;stroke:#fff;stroke-linecap:round;stroke-linejoin:round;stroke-width:2px;}</style></defs><g id="e5a1e66b-877a-4585-b8d8-b2586f5f426d" data-name="Layer 2"><g id="b3a31fb2-ace4-4018-a025-8dbf11ec725a" data-name="Layer 7"><circle class="ffaec8ae-42d5-4ca9-8852-bdd6c56a5a2f" cx="20.57" cy="21.5" r="10.25" transform="translate(-7.18 32.24) rotate(-67.42)"/><path class="ffaec8ae-42d5-4ca9-8852-bdd6c56a5a2f" d="M23.36,3.8A2.8,2.8,0,1,1,20.57,1,2.79,2.79,0,0,1,23.36,3.8Z"/><circle class="ffaec8ae-42d5-4ca9-8852-bdd6c56a5a2f" cx="20.57" cy="40.14" r="2.8"/><path class="ffaec8ae-42d5-4ca9-8852-bdd6c56a5a2f" d="M37.34,8.45a2.8,2.8,0,1,1-2.79-2.79A2.79,2.79,0,0,1,37.34,8.45Z"/><path class="ffaec8ae-42d5-4ca9-8852-bdd6c56a5a2f" d="M40.14,21.5a2.8,2.8,0,1,1-2.8-2.8A2.81,2.81,0,0,1,40.14,21.5Z"/><path class="ffaec8ae-42d5-4ca9-8852-bdd6c56a5a2f" d="M37.34,34.55a2.8,2.8,0,1,1-2.79-2.8A2.79,2.79,0,0,1,37.34,34.55Z"/><line class="ffaec8ae-42d5-4ca9-8852-bdd6c56a5a2f" x1="20.57" y1="6.59" x2="20.57" y2="11.25"/><line class="ffaec8ae-42d5-4ca9-8852-bdd6c56a5a2f" x1="20.57" y1="31.75" x2="20.57" y2="37.34"/><line class="ffaec8ae-42d5-4ca9-8852-bdd6c56a5a2f" x1="32.68" y1="10.32" x2="28.02" y2="14.98"/><line class="ffaec8ae-42d5-4ca9-8852-bdd6c56a5a2f" x1="32.68" y1="32.68" x2="28.02" y2="28.02"/><line class="ffaec8ae-42d5-4ca9-8852-bdd6c56a5a2f" x1="30.82" y1="21.5" x2="34.55" y2="21.5"/><path class="ffaec8ae-42d5-4ca9-8852-bdd6c56a5a2f" d="M3.8,8.45A2.8,2.8,0,1,0,6.59,5.66,2.79,2.79,0,0,0,3.8,8.45Z"/><path class="ffaec8ae-42d5-4ca9-8852-bdd6c56a5a2f" d="M1,21.5a2.8,2.8,0,1,0,2.8-2.8A2.8,2.8,0,0,0,1,21.5Z"/><path class="ffaec8ae-42d5-4ca9-8852-bdd6c56a5a2f" d="M3.8,34.55a2.8,2.8,0,1,0,2.79-2.8A2.79,2.79,0,0,0,3.8,34.55Z"/><line class="ffaec8ae-42d5-4ca9-8852-bdd6c56a5a2f" x1="8.45" y1="10.32" x2="13.11" y2="14.98"/><line class="ffaec8ae-42d5-4ca9-8852-bdd6c56a5a2f" x1="8.45" y1="32.68" x2="13.11" y2="28.02"/><line class="ffaec8ae-42d5-4ca9-8852-bdd6c56a5a2f" x1="10.32" y1="21.5" x2="6.59" y2="21.5"/><path class="ffaec8ae-42d5-4ca9-8852-bdd6c56a5a2f" d="M26.16,29.89V26.68c0-1.35-3.08-3.32-5.59-3.32S15,25.33,15,26.68v3.21"/><path class="ffaec8ae-42d5-4ca9-8852-bdd6c56a5a2f" d="M20.57,15a3.64,3.64,0,0,0-3.73,3.35V20a3.75,3.75,0,0,0,7.46,0V18.33A3.64,3.64,0,0,0,20.57,15Z"/></g></g></svg>