<svg xmlns="http://www.w3.org/2000/svg" viewBox="0 0 46.56 43.65"><defs><style>.f86f6978-d9a0-49d2-8a94-df4cf3ee6173{fill:none;stroke:#728783;stroke-linecap:round;stroke-linejoin:round;stroke-width:2px;}</style></defs><g id="abde3088-53fa-474e-b3ba-167e9b555a77" data-name="Layer 2"><g id="a6961b83-2e52-451a-badf-fd1adfc38410" data-name="Layer 7"><path class="f86f6978-d9a0-49d2-8a94-df4cf3ee6173" d="M39.75,34.9H35.87V24.25A2.9,2.9,0,0,0,33,21.34h0a2.91,2.91,0,0,0-2.91,2.91V34.9H26.19V24.25a2.91,2.91,0,0,0-2.91-2.91h0a2.91,2.91,0,0,0-2.91,2.91V34.9H16.5V24.25a2.91,2.91,0,0,0-2.91-2.91h0a2.9,2.9,0,0,0-2.9,2.91V34.9H6.81"/><polyline class="f86f6978-d9a0-49d2-8a94-df4cf3ee6173" points="7.78 21.34 2.94 21.34 2.94 17.47 43.62 17.47 43.62 21.34 38.78 21.34"/><polyline class="f86f6978-d9a0-49d2-8a94-df4cf3ee6173" points="15.53 5.84 1 5.84 1 10.69 1.97 11.66 1.97 13.59 6.81 13.59 6.81 11.77 23.28 1 39.75 11.77 39.75 13.59 44.59 13.59 44.59 11.66 45.56 10.69 45.56 5.84 31.03 5.84"/><polyline class="f86f6978-d9a0-49d2-8a94-df4cf3ee6173" points="3.91 39.75 3.91 21.34 7.78 21.34"/><polyline class="f86f6978-d9a0-49d2-8a94-df4cf3ee6173" points="42.65 39.75 42.65 21.34 38.78 21.34"/><circle class="f86f6978-d9a0-49d2-8a94-df4cf3ee6173" cx="23.28" cy="9.72" r="2.91"/><line class="f86f6978-d9a0-49d2-8a94-df4cf3ee6173" x1="6.81" y1="38.78" x2="39.75" y2="38.78"/><line class="f86f6978-d9a0-49d2-8a94-df4cf3ee6173" x1="2.94" y1="42.65" x2="43.62" y2="42.65"/></g></g></svg>