<svg xmlns="http://www.w3.org/2000/svg" viewBox="0 0 46.56 43.65"><defs><style>.a1cd3fd8-57c2-45b8-a31d-eb579ed3da29{fill:none;stroke:#fff;stroke-linecap:round;stroke-linejoin:round;stroke-width:2px;}</style></defs><g id="eee6ea18-f25e-4ad6-95f7-34d2098b5efe" data-name="Layer 2"><g id="e538a502-e59f-498a-81d4-2db1ef5e098f" data-name="Layer 7"><path class="a1cd3fd8-57c2-45b8-a31d-eb579ed3da29" d="M39.75,34.9H35.87V24.25A2.9,2.9,0,0,0,33,21.34h0a2.91,2.91,0,0,0-2.91,2.91V34.9H26.19V24.25a2.91,2.91,0,0,0-2.91-2.91h0a2.91,2.91,0,0,0-2.91,2.91V34.9H16.5V24.25a2.91,2.91,0,0,0-2.91-2.91h0a2.9,2.9,0,0,0-2.9,2.91V34.9H6.81"/><polyline class="a1cd3fd8-57c2-45b8-a31d-eb579ed3da29" points="7.78 21.34 2.94 21.34 2.94 17.47 43.62 17.47 43.62 21.34 38.78 21.34"/><polyline class="a1cd3fd8-57c2-45b8-a31d-eb579ed3da29" points="15.53 5.84 1 5.84 1 10.69 1.97 11.66 1.97 13.59 6.81 13.59 6.81 11.77 23.28 1 39.75 11.77 39.75 13.59 44.59 13.59 44.59 11.66 45.56 10.69 45.56 5.84 31.03 5.84"/><polyline class="a1cd3fd8-57c2-45b8-a31d-eb579ed3da29" points="3.91 39.75 3.91 21.34 7.78 21.34"/><polyline class="a1cd3fd8-57c2-45b8-a31d-eb579ed3da29" points="42.65 39.75 42.65 21.34 38.78 21.34"/><circle class="a1cd3fd8-57c2-45b8-a31d-eb579ed3da29" cx="23.28" cy="9.72" r="2.91"/><line class="a1cd3fd8-57c2-45b8-a31d-eb579ed3da29" x1="6.81" y1="38.78" x2="39.75" y2="38.78"/><line class="a1cd3fd8-57c2-45b8-a31d-eb579ed3da29" x1="2.94" y1="42.65" x2="43.62" y2="42.65"/></g></g></svg>