<svg xmlns="http://www.w3.org/2000/svg" viewBox="0 0 85.01 85"><defs><style>.e1a095a4-fd0d-409e-af8c-8fd7ff6a0b5c{fill:none;stroke:#fff;stroke-linecap:round;stroke-linejoin:round;stroke-width:2px;}</style></defs><g id="f9741559-adb2-4b9f-a98c-97c13c36ca8f" data-name="Layer 2"><g id="f9c662ff-1b59-42fd-a555-1c21e9f9a506" data-name="OPPORTUNITIES"><rect class="e1a095a4-fd0d-409e-af8c-8fd7ff6a0b5c" x="1" y="1" width="83.01" height="83" rx="28.5"/><line class="e1a095a4-fd0d-409e-af8c-8fd7ff6a0b5c" x1="41.28" y1="43.28" x2="41.28" y2="57.68"/><line class="e1a095a4-fd0d-409e-af8c-8fd7ff6a0b5c" x1="45.39" y1="40.2" x2="45.39" y2="52.54"/><path class="e1a095a4-fd0d-409e-af8c-8fd7ff6a0b5c" d="M48.4,44.55l3.16.79V40.2l-4.11-4.11V25.8a10.36,10.36,0,0,0-4.12-7.19,10.38,10.38,0,0,0-4.11,7.19V36.09L35.11,40.2v5.14l3.13-.78"/><line class="e1a095a4-fd0d-409e-af8c-8fd7ff6a0b5c" x1="43.33" y1="25.8" x2="43.33" y2="27.86"/><path class="e1a095a4-fd0d-409e-af8c-8fd7ff6a0b5c" d="M25.12,65.91a7.44,7.44,0,0,1-.3-2.06,7.2,7.2,0,0,1,11.31-5.91"/><path class="e1a095a4-fd0d-409e-af8c-8fd7ff6a0b5c" d="M31.09,56.72a6.62,6.62,0,0,1-.1-1.1,6.18,6.18,0,0,1,6.17-6.17"/><line class="e1a095a4-fd0d-409e-af8c-8fd7ff6a0b5c" x1="49.5" y1="55.84" x2="49.5" y2="48.43"/><path class="e1a095a4-fd0d-409e-af8c-8fd7ff6a0b5c" d="M52.15,63.19a5.14,5.14,0,0,1,8.66,3.74"/><path class="e1a095a4-fd0d-409e-af8c-8fd7ff6a0b5c" d="M46,58.71A5.65,5.65,0,0,1,56.7,61.28a6.08,6.08,0,0,1,0,.61"/></g></g></svg>