<svg xmlns="http://www.w3.org/2000/svg" viewBox="0 0 60.75 57.02"><defs><style>.e1040b52-e8e5-4dab-ab18-c43e07657f14{fill:none;stroke:#fff;stroke-linecap:round;stroke-linejoin:round;stroke-width:2.5px;}</style></defs><g id="a10cee17-60ff-4ff5-953e-d8496f52d6f9" data-name="Layer 2"><g id="ab5f1dcd-78b6-40b3-8586-37249be857bc" data-name="MY NEXUS"><polygon class="e1040b52-e8e5-4dab-ab18-c43e07657f14" points="30.92 27.72 35.12 37.75 45.67 38.43 37.71 45.73 40.03 55.77 30.92 50.67 21.8 55.77 24.13 45.73 16.17 38.43 26.72 37.75 30.92 27.72"/><polyline class="e1040b52-e8e5-4dab-ab18-c43e07657f14" points="40.35 33.18 43.83 32.96 47.3 24.66 50.78 32.96 59.5 33.52 52.92 39.56 54.84 47.86 47.3 43.65 43.09 46.01"/><polyline class="e1040b52-e8e5-4dab-ab18-c43e07657f14" points="20.4 33.18 16.92 32.96 13.45 24.66 9.98 32.96 1.25 33.52 7.83 39.56 5.91 47.86 13.45 43.65 17.67 46.01"/><path class="e1040b52-e8e5-4dab-ab18-c43e07657f14" d="M40.15,29.17V21.86c0-2-5.13-4.66-9.31-4.66s-9.31,2.64-9.31,4.66v7.31"/><path class="e1040b52-e8e5-4dab-ab18-c43e07657f14" d="M30.84,1.25c-2.75,0-5.32,1.93-5.32,4.31V8.91c0,2.38,2.57,4.31,5.32,4.31s5.32-1.93,5.32-4.31V5.56C36.16,3.18,33.59,1.25,30.84,1.25Z"/></g></g></svg>