<svg xmlns="http://www.w3.org/2000/svg" viewBox="0 0 27.46 27.46"><defs><style>.ea77f53e-df2a-46bb-bb40-9aeca64b7fa9{fill:#fff;}</style></defs><g id="f9962b0a-bd13-4210-9139-6afde19056aa" data-name="Layer 2"><g id="f3510e74-e02a-43c2-ad01-6d3fa32bce3b" data-name="OPPORTUNITIES"><path class="ea77f53e-df2a-46bb-bb40-9aeca64b7fa9" d="M5.75,18.47a1,1,0,0,1-1.42,0l-4-4A1,1,0,0,1,.29,13l4-4A1,1,0,0,1,5.75,9a1,1,0,0,1,0,1.41L2.41,13.72l3.34,3.33a1,1,0,0,1,0,1.42Z"/><path class="ea77f53e-df2a-46bb-bb40-9aeca64b7fa9" d="M11,14.44a1,1,0,0,1-.71.29H1a1,1,0,0,1,0-2h9.27A1,1,0,0,1,11,14.44Z"/><path class="ea77f53e-df2a-46bb-bb40-9aeca64b7fa9" d="M18.47,5.75a1,1,0,0,1-1.42,0L13.72,2.41,10.39,5.75A1,1,0,0,1,9,5.75,1,1,0,0,1,9,4.33l4-4a1,1,0,0,1,1.41,0l4,4a1,1,0,0,1,0,1.42Z"/><path class="ea77f53e-df2a-46bb-bb40-9aeca64b7fa9" d="M14.44,11a1,1,0,0,1-1.71-.71V1a1,1,0,0,1,2,0v9.27a1,1,0,0,1-.29.71Z"/><path class="ea77f53e-df2a-46bb-bb40-9aeca64b7fa9" d="M18.48,23.12l-4,4a1,1,0,0,1-1.42,0l-4-4a1,1,0,1,1,1.41-1.41L13.73,25l3.33-3.33a1,1,0,0,1,1.42,0,1,1,0,0,1,0,1.41Z"/><path class="ea77f53e-df2a-46bb-bb40-9aeca64b7fa9" d="M14.44,27.16a1,1,0,0,1-.71.3,1,1,0,0,1-1-1V17.18a1,1,0,0,1,2,0v9.27a1,1,0,0,1-.29.71Z"/><path class="ea77f53e-df2a-46bb-bb40-9aeca64b7fa9" d="M27.16,14.44l-4,4a1,1,0,0,1-1.41,0,1,1,0,0,1,0-1.42L25,13.73,21.71,10.4A1,1,0,1,1,23.12,9l4,4a1,1,0,0,1,0,1.42Z"/><path class="ea77f53e-df2a-46bb-bb40-9aeca64b7fa9" d="M27.16,14.44a1,1,0,0,1-.71.29H17.19a1,1,0,0,1-1-1,1,1,0,0,1,1-1h9.27a1,1,0,0,1,1,1,1,1,0,0,1-.3.71Z"/></g></g></svg>