<svg xmlns="http://www.w3.org/2000/svg" viewBox="0 0 40.8 40.8"><defs><style>.f56a925f-2237-4899-be88-97401288b3ba{fill:none;stroke:#fff;stroke-linecap:round;stroke-linejoin:round;stroke-width:2px;}</style></defs><g id="b2e6859f-d537-4467-8ae0-5ff7c1c0a5f3" data-name="Layer 2"><g id="f3bedad4-bb46-4766-bae1-3c457bde7cf5" data-name="Layer 7"><path class="f56a925f-2237-4899-be88-97401288b3ba" d="M18.24,27.73a3.64,3.64,0,0,0,3.45-3.45V16.52c0-2.85-4.76-4.31-7.76-4.31s-8.62,1.46-8.62,4.31V26.86"/><path class="f56a925f-2237-4899-be88-97401288b3ba" d="M13.93,9.62a3.31,3.31,0,0,0,3.45-3.45V4.45A3.31,3.31,0,0,0,13.93,1a3.31,3.31,0,0,0-3.45,3.45V6.17A3.31,3.31,0,0,0,13.93,9.62Z"/><line class="f56a925f-2237-4899-be88-97401288b3ba" x1="18.24" y1="39.8" x2="18.24" y2="18.24"/><line class="f56a925f-2237-4899-be88-97401288b3ba" x1="8.76" y1="18.24" x2="8.76" y2="26.86"/><line class="f56a925f-2237-4899-be88-97401288b3ba" x1="8.76" y1="34.62" x2="8.76" y2="39.8"/><line class="f56a925f-2237-4899-be88-97401288b3ba" x1="13.93" y1="26.86" x2="13.93" y2="39.8"/><rect class="f56a925f-2237-4899-be88-97401288b3ba" x="1" y="26.86" width="9.48" height="7.76"/><circle class="f56a925f-2237-4899-be88-97401288b3ba" cx="36.35" cy="12.21" r="3.45"/><circle class="f56a925f-2237-4899-be88-97401288b3ba" cx="36.35" cy="22.55" r="3.45"/><circle class="f56a925f-2237-4899-be88-97401288b3ba" cx="36.35" cy="32.9" r="3.45"/><line class="f56a925f-2237-4899-be88-97401288b3ba" x1="32.9" y1="22.55" x2="24.28" y2="22.55"/><path class="f56a925f-2237-4899-be88-97401288b3ba" d="M32.9,32.9H29.45a.86.86,0,0,1-.86-.86v-19a.85.85,0,0,1,.86-.86H32.9"/></g></g></svg>