<svg xmlns="http://www.w3.org/2000/svg" viewBox="0 0 39.93 41.66"><defs><style>.f1aab9da-5e3d-4cbd-9248-b8a4e0e05377{fill:none;stroke:#728783;stroke-linecap:round;stroke-linejoin:round;stroke-width:2px;}</style></defs><g id="a5355fd1-057b-4eef-9d8d-983a9534e10c" data-name="Layer 2"><g id="a3d8c006-1917-4f51-b40e-1136f5fc5e59" data-name="Layer 7"><path class="f1aab9da-5e3d-4cbd-9248-b8a4e0e05377" d="M25.14,27.73a3.65,3.65,0,0,0,3.45-3.45V16.52c0-2.85-5.63-4.31-8.62-4.31s-8.62,1.46-8.62,4.31v7.76a3.64,3.64,0,0,0,3.44,3.45"/><path class="f1aab9da-5e3d-4cbd-9248-b8a4e0e05377" d="M35.49,29.45c1.67,0,3.44-.91,3.44-2.59V19.1c0-2.84-5.06-4.31-7.76-4.31-.26,0-.55,0-.86.05"/><path class="f1aab9da-5e3d-4cbd-9248-b8a4e0e05377" d="M20,9.62a3.31,3.31,0,0,0,3.45-3.45V4.45A3.31,3.31,0,0,0,20,1a3.31,3.31,0,0,0-3.45,3.45V6.17A3.31,3.31,0,0,0,20,9.62Z"/><line class="f1aab9da-5e3d-4cbd-9248-b8a4e0e05377" x1="35.49" y1="40.66" x2="35.49" y2="20.83"/><line class="f1aab9da-5e3d-4cbd-9248-b8a4e0e05377" x1="25.14" y1="40.66" x2="25.14" y2="18.24"/><line class="f1aab9da-5e3d-4cbd-9248-b8a4e0e05377" x1="14.79" y1="18.24" x2="14.79" y2="40.66"/><line class="f1aab9da-5e3d-4cbd-9248-b8a4e0e05377" x1="19.97" y1="26.86" x2="19.97" y2="40.66"/><path class="f1aab9da-5e3d-4cbd-9248-b8a4e0e05377" d="M31.17,12.21a3.31,3.31,0,0,0,3.45-3.45V7a3.45,3.45,0,0,0-6.89,0V8.76A3.31,3.31,0,0,0,31.17,12.21Z"/><path class="f1aab9da-5e3d-4cbd-9248-b8a4e0e05377" d="M4.45,29.45C2.77,29.45,1,28.54,1,26.86V19.1c0-2.84,5.06-4.31,7.76-4.31.27,0,.56,0,.86.05"/><line class="f1aab9da-5e3d-4cbd-9248-b8a4e0e05377" x1="4.45" y1="40.66" x2="4.45" y2="20.83"/><path class="f1aab9da-5e3d-4cbd-9248-b8a4e0e05377" d="M8.76,12.21A3.31,3.31,0,0,1,5.31,8.76V7A3.3,3.3,0,0,1,8.76,3.59,3.3,3.3,0,0,1,12.21,7V8.76A3.31,3.31,0,0,1,8.76,12.21Z"/></g></g></svg>