<svg xmlns="http://www.w3.org/2000/svg" viewBox="0 0 14.24 14.24"><defs><style>.fd5161f3-e5c7-4ed6-818a-6012a55f206b{fill:#fff;}.a0119aa0-9339-4547-a67a-e3466ac69e9d{fill:#ff7800;}</style></defs><g id="b6c14c7e-8c90-4436-adf0-c0251ed47dea" data-name="Layer 2"><g id="e1020f40-1adf-48ca-9a84-3108fc0ecbac" data-name="Layer 7"><circle class="fd5161f3-e5c7-4ed6-818a-6012a55f206b" cx="7.12" cy="7.12" r="7.12"/><path class="a0119aa0-9339-4547-a67a-e3466ac69e9d" d="M4.69,10.55A1,1,0,0,1,4,10.26,1,1,0,0,1,4,8.85L8.85,4a1,1,0,0,1,1.41,0,1,1,0,0,1,0,1.42L5.4,10.26a1,1,0,0,1-.71.29Z"/><path class="a0119aa0-9339-4547-a67a-e3466ac69e9d" d="M9.55,10.55a1,1,0,0,1-.7-.29L4,5.4A1,1,0,0,1,5.4,4l4.86,4.87a1,1,0,0,1,0,1.41,1,1,0,0,1-.71.29Z"/></g></g></svg>