<svg xmlns="http://www.w3.org/2000/svg" viewBox="0 0 23.67 20.06"><defs><style>.a6526efa-60ec-408e-89ba-200e257f096a{fill:#fff;}</style></defs><g id="a7a4aece-7816-435a-b432-561a349340cb" data-name="Layer 2"><g id="becc421c-c79f-46a9-bb8d-0036b2e69152" data-name="UPDATES"><path class="a6526efa-60ec-408e-89ba-200e257f096a" d="M22.67,20.06H1a1,1,0,0,1-1-1V1A1,1,0,0,1,1,0H22.67a1,1,0,0,1,1,1V19.06a1,1,0,0,1-1,1ZM2,18.06H21.67V2H2V18.06Z"/><path class="a6526efa-60ec-408e-89ba-200e257f096a" d="M22,16.44a1,1,0,0,1-.65-.24l-4-3.44-5,3.33L6,9.27,1.72,13.68A1,1,0,0,1,.28,12.29L6,6.36l6.63,7.12,4.84-3.23,5.17,4.43a1,1,0,0,1,.11,1.41,1,1,0,0,1-.76.35Z"/><path class="a6526efa-60ec-408e-89ba-200e257f096a" d="M13,9.92a3.59,3.59,0,1,1,3.59-3.59A3.59,3.59,0,0,1,13,9.92Zm0-5.17a1.59,1.59,0,1,0,1.59,1.58A1.58,1.58,0,0,0,13,4.75Z"/></g></g></svg>