<svg xmlns="http://www.w3.org/2000/svg" viewBox="0 0 9.09 9.09"><defs><style>.fe91829f-cc94-4291-8dfb-c68e2a867b79{fill:#fff;}.ac2aa9a2-f21f-46f8-905f-09e56e7e53a0{fill:#4d5b59;}</style></defs><g id="a8943597-7200-45d0-aee2-d0ed8525fd3f" data-name="Layer 2"><g id="fba59841-0944-4e62-a20e-7bbd21017e3f" data-name="Layer 2"><circle class="fe91829f-cc94-4291-8dfb-c68e2a867b79" cx="4.55" cy="4.55" r="4.55"/><path class="ac2aa9a2-f21f-46f8-905f-09e56e7e53a0" d="M1.9,5a.68.68,0,0,1-.19-.45.64.64,0,0,1,.64-.64H6.74a.64.64,0,1,1,0,1.27H2.35A.67.67,0,0,1,1.9,5Z"/><path class="ac2aa9a2-f21f-46f8-905f-09e56e7e53a0" d="M4.1,7.19a.6.6,0,0,1-.19-.45V2.35a.64.64,0,1,1,1.27,0V6.74a.64.64,0,0,1-.63.64.6.6,0,0,1-.45-.19Z"/></g></g></svg>