<svg xmlns="http://www.w3.org/2000/svg" viewBox="0 0 47.24 47.24"><defs><style>.b910a603-e24f-41be-bac8-fdba232d2458{fill:none;stroke:#728783;stroke-linecap:round;stroke-linejoin:round;stroke-width:2px;}</style></defs><g id="b1cb3c76-018a-4721-85e7-b1cde3d1cdf6" data-name="Layer 2"><g id="ae5ed3c4-853e-4be6-bd14-6e4e3d6688bc" data-name="Layer 7"><polyline class="b910a603-e24f-41be-bac8-fdba232d2458" points="27.73 5.11 23.62 1 19.51 5.11"/><line class="b910a603-e24f-41be-bac8-fdba232d2458" x1="23.62" y1="1" x2="23.62" y2="18.48"/><polyline class="b910a603-e24f-41be-bac8-fdba232d2458" points="27.73 42.13 23.62 46.24 19.51 42.13"/><line class="b910a603-e24f-41be-bac8-fdba232d2458" x1="23.62" y1="46.24" x2="23.62" y2="28.76"/><polyline class="b910a603-e24f-41be-bac8-fdba232d2458" points="42.13 27.73 46.24 23.62 42.13 19.51"/><line class="b910a603-e24f-41be-bac8-fdba232d2458" x1="46.24" y1="23.62" x2="28.76" y2="23.62"/><polyline class="b910a603-e24f-41be-bac8-fdba232d2458" points="5.11 27.73 1 23.62 5.11 19.51"/><line class="b910a603-e24f-41be-bac8-fdba232d2458" x1="1" y1="23.62" x2="18.48" y2="23.62"/><line class="b910a603-e24f-41be-bac8-fdba232d2458" x1="27.73" y1="19.51" x2="25.68" y2="21.57"/><polyline class="b910a603-e24f-41be-bac8-fdba232d2458" points="33.9 18.48 33.9 13.34 28.76 13.34"/><line class="b910a603-e24f-41be-bac8-fdba232d2458" x1="33.9" y1="13.34" x2="29.79" y2="17.45"/><line class="b910a603-e24f-41be-bac8-fdba232d2458" x1="19.51" y1="19.51" x2="21.57" y2="21.57"/><polyline class="b910a603-e24f-41be-bac8-fdba232d2458" points="13.34 18.48 13.34 13.34 18.48 13.34"/><line class="b910a603-e24f-41be-bac8-fdba232d2458" x1="13.34" y1="13.34" x2="17.45" y2="17.45"/><line class="b910a603-e24f-41be-bac8-fdba232d2458" x1="27.73" y1="27.73" x2="25.68" y2="25.68"/><polyline class="b910a603-e24f-41be-bac8-fdba232d2458" points="33.9 28.76 33.9 33.9 28.76 33.9"/><line class="b910a603-e24f-41be-bac8-fdba232d2458" x1="33.9" y1="33.9" x2="29.79" y2="29.79"/><line class="b910a603-e24f-41be-bac8-fdba232d2458" x1="19.51" y1="27.73" x2="21.57" y2="25.68"/><polyline class="b910a603-e24f-41be-bac8-fdba232d2458" points="13.34 28.76 13.34 33.9 18.48 33.9"/><line class="b910a603-e24f-41be-bac8-fdba232d2458" x1="13.34" y1="33.9" x2="17.45" y2="29.79"/></g></g></svg>