<svg xmlns="http://www.w3.org/2000/svg" viewBox="0 0 11.43 11.69"><defs><style>.bd78aaea-46b4-4dd3-85ce-347f973a8430{fill:#b0c1c0;}</style></defs><g id="ef2c0526-273e-47f8-b662-8d09e0b75ad8" data-name="Layer 2"><g id="b8b6ea44-013b-4507-9e99-2d3de2238b99" data-name="Layer 2"><path class="bd78aaea-46b4-4dd3-85ce-347f973a8430" d="M5.05,10.1a5.05,5.05,0,1,1,5.05-5,5.06,5.06,0,0,1-5,5.05Zm0-8.76A3.71,3.71,0,1,0,8.76,5.05,3.72,3.72,0,0,0,5.05,1.34Z"/><path class="bd78aaea-46b4-4dd3-85ce-347f973a8430" d="M10.74,11.69a.69.69,0,0,1-.48-.2L8,9.22a.68.68,0,0,1,1-1l2.27,2.26a.7.7,0,0,1,0,1,.71.71,0,0,1-.49.2Z"/></g></g></svg>