<svg xmlns="http://www.w3.org/2000/svg" viewBox="0 0 41.66 33.9"><defs><style>.eaa864b1-c1d5-4005-9e70-9a6260816fd4{fill:none;stroke:#fff;stroke-linecap:round;stroke-linejoin:round;stroke-width:2px;}</style></defs><g id="adaca4cb-7483-4851-947d-5e73ba274dfd" data-name="Layer 2"><g id="ad002f8e-1abb-4da4-8200-6e6a8d68d0fe" data-name="Layer 7"><path class="eaa864b1-c1d5-4005-9e70-9a6260816fd4" d="M23.42,14.79a3.45,3.45,0,1,0,3.44-3.44A3.44,3.44,0,0,0,23.42,14.79Z"/><path class="eaa864b1-c1d5-4005-9e70-9a6260816fd4" d="M32.36,23.55,35.2,26,38,23.13l-2.42-2.84a10.16,10.16,0,0,0,1.32-3.2l3.72-.29v-4l-3.72-.29a10.31,10.31,0,0,0-1.32-3.21L38,6.46,35.2,3.62,32.36,6a10.42,10.42,0,0,0-3.2-1.33L28.87,1h-4l-.3,3.71A10.52,10.52,0,0,0,21.36,6L18.53,3.62,15.69,6.46l2.42,2.83a10.58,10.58,0,0,0-1.33,3.21L15,12.64"/><path class="eaa864b1-c1d5-4005-9e70-9a6260816fd4" d="M8.76,20a3.5,3.5,0,0,1-3.45-3.7V15a3.46,3.46,0,1,1,6.9,0v1.23A3.5,3.5,0,0,1,8.76,20Z"/><path class="eaa864b1-c1d5-4005-9e70-9a6260816fd4" d="M1,32.9s.57-4.8.86-6.9,1.55-3.45,3.45-3.45H7l6,6.9h5.18s.38,3.45-2.59,3.45H10.48L6.17,27.73"/><polyline class="eaa864b1-c1d5-4005-9e70-9a6260816fd4" points="13.93 26.86 17.38 21.69 29.45 21.69 24.28 30.31 19.97 30.31"/><line class="eaa864b1-c1d5-4005-9e70-9a6260816fd4" x1="6.17" y1="32.9" x2="31.17" y2="32.9"/></g></g></svg>