<svg xmlns="http://www.w3.org/2000/svg" viewBox="0 0 37.99 50.33"><defs><style>.b4ca08fe-13ef-4a27-8316-afd59f3acf6f{fill:none;stroke:#728783;stroke-linecap:round;stroke-linejoin:round;stroke-width:2px;}</style></defs><g id="b74f2526-62f5-4de5-be36-be1c7d3cedf8" data-name="Layer 2"><g id="fb84c7b6-e69a-4113-aafa-4d0501d2b528" data-name="Layer 7"><line class="b4ca08fe-13ef-4a27-8316-afd59f3acf6f" x1="17.45" y1="25.68" x2="17.45" y2="40.07"/><line class="b4ca08fe-13ef-4a27-8316-afd59f3acf6f" x1="21.57" y1="22.59" x2="21.57" y2="34.93"/><path class="b4ca08fe-13ef-4a27-8316-afd59f3acf6f" d="M24.58,26.94l3.15.79V22.59l-4.11-4.11V8.2A10.39,10.39,0,0,0,19.51,1,10.39,10.39,0,0,0,15.4,8.2V18.48l-4.12,4.11v5.14L14.42,27"/><line class="b4ca08fe-13ef-4a27-8316-afd59f3acf6f" x1="19.51" y1="8.2" x2="19.51" y2="10.25"/><path class="b4ca08fe-13ef-4a27-8316-afd59f3acf6f" d="M1.3,48.3A7,7,0,0,1,1,46.24a7.21,7.21,0,0,1,11.31-5.91"/><path class="b4ca08fe-13ef-4a27-8316-afd59f3acf6f" d="M7.27,39.11A5.67,5.67,0,0,1,7.17,38a6.17,6.17,0,0,1,6.17-6.17"/><line class="b4ca08fe-13ef-4a27-8316-afd59f3acf6f" x1="25.68" y1="38.23" x2="25.68" y2="30.82"/><path class="b4ca08fe-13ef-4a27-8316-afd59f3acf6f" d="M28.32,45.58A5.15,5.15,0,0,1,37,49.33"/><path class="b4ca08fe-13ef-4a27-8316-afd59f3acf6f" d="M22.18,41.1a5.66,5.66,0,0,1,10.7,2.57c0,.21,0,.42,0,.62"/></g></g></svg>