<svg xmlns="http://www.w3.org/2000/svg" viewBox="0 0 19.55 18.67"><defs><style>.a7ebef99-d3d6-4f65-833d-c178c67a5760{fill:#fff;}</style></defs><g id="f66d32a1-712f-43ff-8399-a1592d74df7d" data-name="Layer 2"><g id="b0c38281-2038-4b53-aa34-4dd9b227d7f4" data-name="OPPORTUNITIES"><path class="a7ebef99-d3d6-4f65-833d-c178c67a5760" d="M.32,6.69a.81.81,0,0,1,.45-.15l5.87-.62L9,.53A.79.79,0,0,1,9.78,0a.78.78,0,0,1,.73.53l2.41,5.39,5.86.62a.78.78,0,0,1,.74.54.77.77,0,0,1-.28.86l-4.38,4,1.22,5.77a.77.77,0,0,1-.28.86.78.78,0,0,1-.91,0L9.78,15.59,4.67,18.52a.77.77,0,0,1-1.19-.86l1.21-5.77L.32,7.94A.75.75,0,0,1,0,7.08a.75.75,0,0,1,.28-.39Zm7.45.78a.75.75,0,0,1-.46.15l-4.15.47,3.08,2.82a.77.77,0,0,1,.28.87l-.83,4.09,3.63-2.06a.77.77,0,0,1,.91,0l3.64,2.06L13,11.78a.79.79,0,0,1,.28-.87L16.4,8.09l-4.16-.47a.78.78,0,0,1-.73-.53L9.78,3.28,8.05,7.09a.82.82,0,0,1-.28.38Z"/></g></g></svg>