<svg xmlns="http://www.w3.org/2000/svg" viewBox="0 0 37.99 50.33"><defs><style>.a508e8b9-6401-4440-bc01-f59a316fd7c1{fill:none;stroke:#728783;stroke-linecap:round;stroke-linejoin:round;stroke-width:2px;}</style></defs><g id="a82031d6-f61e-4b05-b563-fdc7d02ce16a" data-name="Layer 2"><g id="a6b742b3-69a6-410a-9480-1ad931eb7d6a" data-name="Layer 7"><line class="a508e8b9-6401-4440-bc01-f59a316fd7c1" x1="17.45" y1="25.68" x2="17.45" y2="40.07"/><line class="a508e8b9-6401-4440-bc01-f59a316fd7c1" x1="21.57" y1="22.59" x2="21.57" y2="34.93"/><path class="a508e8b9-6401-4440-bc01-f59a316fd7c1" d="M24.58,26.94l3.15.79V22.59l-4.11-4.11V8.2A10.39,10.39,0,0,0,19.51,1,10.39,10.39,0,0,0,15.4,8.2V18.48l-4.12,4.11v5.14L14.42,27"/><line class="a508e8b9-6401-4440-bc01-f59a316fd7c1" x1="19.51" y1="8.2" x2="19.51" y2="10.25"/><path class="a508e8b9-6401-4440-bc01-f59a316fd7c1" d="M1.3,48.3A7,7,0,0,1,1,46.24a7.21,7.21,0,0,1,11.31-5.91"/><path class="a508e8b9-6401-4440-bc01-f59a316fd7c1" d="M7.27,39.11A5.67,5.67,0,0,1,7.17,38a6.17,6.17,0,0,1,6.17-6.17"/><line class="a508e8b9-6401-4440-bc01-f59a316fd7c1" x1="25.68" y1="38.23" x2="25.68" y2="30.82"/><path class="a508e8b9-6401-4440-bc01-f59a316fd7c1" d="M28.32,45.58A5.15,5.15,0,0,1,37,49.33"/><path class="a508e8b9-6401-4440-bc01-f59a316fd7c1" d="M22.18,41.1a5.66,5.66,0,0,1,10.7,2.57c0,.21,0,.42,0,.62"/></g></g></svg>