<svg xmlns="http://www.w3.org/2000/svg" viewBox="0 0 43 43.93"><defs><style>.fd377ec2-2d8c-4a52-bf8b-4341657a64b1{fill:none;stroke:#728783;stroke-linecap:round;stroke-linejoin:round;stroke-width:2px;}</style></defs><g id="a688d556-10a6-483d-b9e7-141bfd6b05a4" data-name="Layer 2"><g id="a00805ba-21bd-49d3-b685-2bdc1f1480af" data-name="Layer 7"><path class="fd377ec2-2d8c-4a52-bf8b-4341657a64b1" d="M31.76,5.66a18.14,18.14,0,0,1,9.31,12.92"/><path class="fd377ec2-2d8c-4a52-bf8b-4341657a64b1" d="M11.25,5.66A18.08,18.08,0,0,0,1.94,18.58"/><path class="fd377ec2-2d8c-4a52-bf8b-4341657a64b1" d="M30.25,40.76a18.73,18.73,0,0,1-17.5,0"/><path class="fd377ec2-2d8c-4a52-bf8b-4341657a64b1" d="M7.52,29c2.94,0,6.53,2,6.53,3.32v3.21a10.7,10.7,0,0,1-6.53,1.86A10.67,10.67,0,0,1,1,35.48V32.27C1,30.92,4.59,29,7.52,29Z"/><path class="fd377ec2-2d8c-4a52-bf8b-4341657a64b1" d="M7.52,19.64A3.64,3.64,0,0,1,11.25,23V25.6A3.64,3.64,0,0,1,7.52,29,3.64,3.64,0,0,1,3.8,25.6V23A3.64,3.64,0,0,1,7.52,19.64Z"/><path class="fd377ec2-2d8c-4a52-bf8b-4341657a64b1" d="M21.5,10.32c2.94,0,6.52,2,6.52,3.31v3.21A10,10,0,0,1,21.5,18.7,10,10,0,0,1,15,16.84V13.63C15,12.29,18.56,10.32,21.5,10.32Z"/><path class="fd377ec2-2d8c-4a52-bf8b-4341657a64b1" d="M21.5,1a3.64,3.64,0,0,1,3.73,3.36V7a3.75,3.75,0,0,1-7.46,0V4.36A3.64,3.64,0,0,1,21.5,1Z"/><path class="fd377ec2-2d8c-4a52-bf8b-4341657a64b1" d="M35.48,29c2.93,0,6.52,2,6.52,3.32v3.21a10.67,10.67,0,0,1-6.52,1.86A10.7,10.7,0,0,1,29,35.48V32.27C29,30.92,32.54,29,35.48,29Z"/><path class="fd377ec2-2d8c-4a52-bf8b-4341657a64b1" d="M35.48,19.64A3.64,3.64,0,0,1,39.2,23V25.6a3.75,3.75,0,0,1-7.45,0V23A3.64,3.64,0,0,1,35.48,19.64Z"/></g></g></svg>