<svg xmlns="http://www.w3.org/2000/svg" viewBox="0 0 28.18 21.46"><defs><style>.b20c0ea9-6311-4b60-8af3-13f95db664eb{fill:#728783;}</style></defs><g id="fe032edf-cf6f-4137-97c0-95bb84ef3888" data-name="Layer 2"><g id="ac3c354e-e8c5-4a93-ad82-c81225ec555b" data-name="Layer 7"><path class="b20c0ea9-6311-4b60-8af3-13f95db664eb" d="M25.85,2.34V12H13.65V2.34h12.2M28.18,0H11.31V14.32H28.18V0Z"/><path class="b20c0ea9-6311-4b60-8af3-13f95db664eb" d="M18.63,18.05h-6.4a1.17,1.17,0,1,1,0-2.33h6.4a1.17,1.17,0,1,1,0,2.33Z"/><path class="b20c0ea9-6311-4b60-8af3-13f95db664eb" d="M23.63,17.51a1,1,0,1,1-1,1,1,1,0,0,1,1-1m0-2a3,3,0,1,0,3,3,3,3,0,0,0-3-3Z"/><path class="b20c0ea9-6311-4b60-8af3-13f95db664eb" d="M7.44,7v5a6.49,6.49,0,0,0-5.1,2.48V11.75L4.78,7H7.44M9.78,4.62H3.35L0,11.19v6.87H3.3A4.2,4.2,0,0,1,9.78,15V4.62Z"/><path class="b20c0ea9-6311-4b60-8af3-13f95db664eb" d="M7.46,17.51a1,1,0,1,1-1,1,1,1,0,0,1,1-1m0-2a3,3,0,1,0,3,3,3,3,0,0,0-3-3Z"/></g></g></svg>