<svg xmlns="http://www.w3.org/2000/svg" viewBox="0 0 28.18 21.46"><defs><style>.aa286b98-05bf-432c-be7c-890233428555{fill:#fff;}</style></defs><g id="eefa4801-7afa-42d8-8234-32f7410c2e49" data-name="Layer 2"><g id="a9559abb-63eb-4895-a108-705f89cc932b" data-name="Layer 7"><path class="aa286b98-05bf-432c-be7c-890233428555" d="M25.85,2.34V12H13.65V2.34h12.2M28.18,0H11.31V14.32H28.18V0Z"/><path class="aa286b98-05bf-432c-be7c-890233428555" d="M18.63,18.05h-6.4a1.17,1.17,0,1,1,0-2.33h6.4a1.17,1.17,0,1,1,0,2.33Z"/><path class="aa286b98-05bf-432c-be7c-890233428555" d="M23.63,17.51a1,1,0,1,1-1,1,1,1,0,0,1,1-1m0-2a3,3,0,1,0,3,3,3,3,0,0,0-3-3Z"/><path class="aa286b98-05bf-432c-be7c-890233428555" d="M7.44,7v5a6.49,6.49,0,0,0-5.1,2.48V11.75L4.78,7H7.44M9.78,4.62H3.35L0,11.19v6.87H3.3A4.2,4.2,0,0,1,9.78,15V4.62Z"/><path class="aa286b98-05bf-432c-be7c-890233428555" d="M7.46,17.51a1,1,0,1,1-1,1,1,1,0,0,1,1-1m0-2a3,3,0,1,0,3,3,3,3,0,0,0-3-3Z"/></g></g></svg>