<svg xmlns="http://www.w3.org/2000/svg" viewBox="0 0 97.7 55.41"><defs><style>.a47d8274-c7dc-4cc8-b068-f197bec0de4e{fill:#293688;}.ff000731-8a3d-409c-96c3-195706a7a308{fill:#fff;}.af759c9d-01cb-4e06-9401-66181b658879{fill:#f7981d;}</style></defs><g id="ae90dfbb-af07-411c-9d5c-6e26cce0a44f" data-name="Layer 2"><g id="a16c2e43-6572-43df-bf0f-358993a70c50" data-name="Subscription"><rect class="a47d8274-c7dc-4cc8-b068-f197bec0de4e" width="97.7" height="55.41" rx="7.5"/><polygon class="ff000731-8a3d-409c-96c3-195706a7a308" points="37.43 37.71 40.95 17.92 46.45 17.92 43.04 37.71 37.43 37.71"/><path class="ff000731-8a3d-409c-96c3-195706a7a308" d="M62.94,18.14a13.85,13.85,0,0,0-5-.88c-5.5,0-9.46,2.75-9.46,6.71,0,3,2.75,4.51,5,5.5s2.86,1.64,2.86,2.52c0,1.32-1.76,2-3.3,2a12,12,0,0,1-5.28-1.1l-.77-.33-.77,4.51a17.84,17.84,0,0,0,6.27,1.1c5.83,0,9.68-2.75,9.68-6.93,0-2.3-1.43-4.06-4.73-5.49-2-1-3.19-1.54-3.19-2.53s1-1.76,3.19-1.76a10.09,10.09,0,0,1,4.18.77l.55.22.87-4.29Z"/><path class="ff000731-8a3d-409c-96c3-195706a7a308" d="M72.4,17.92c-1.32,0-2.31.11-2.86,1.43L61.3,37.71h5.93l1.1-3.3h7l.66,3.3h5.28L76.69,17.92ZM69.87,31.11c.33-1,2.2-5.82,2.2-5.82s.44-1.21.77-2l.33,1.87s1.1,4.94,1.32,6H69.87Z"/><path class="ff000731-8a3d-409c-96c3-195706a7a308" d="M27.32,31.77l-.55-2.85a16,16,0,0,0-7.7-8.69L24,37.82H30L38.86,18H32.93Z"/><path class="af759c9d-01cb-4e06-9401-66181b658879" d="M26.72,28.68a1.12,1.12,0,0,0,.05.13l-.2-.85-1.78-8.39c-.33-1.32-1.32-1.65-2.53-1.65h-8a.33.33,0,0,0-.1.64l1.41.43h0a20.9,20.9,0,0,1,10,7.41,14.33,14.33,0,0,1,1.25,2.51Z"/></g></g></svg>