<svg xmlns="http://www.w3.org/2000/svg" viewBox="0 0 24.24 25.89"><defs><style>.a827e776-596f-4db4-931a-cde4bb0c3803{fill:#fff;}</style></defs><g id="e68bc137-37c3-4688-8c1f-492075ace35a" data-name="Layer 2"><g id="ff20f07c-755f-42e9-9d73-ec0118467667" data-name="Subscription"><path class="a827e776-596f-4db4-931a-cde4bb0c3803" d="M7.67,13.54a.92.92,0,1,1-.92-.92A.92.92,0,0,1,7.67,13.54Z"/><path class="a827e776-596f-4db4-931a-cde4bb0c3803" d="M14.56,10.91A5.46,5.46,0,1,1,20,5.46a5.46,5.46,0,0,1-5.45,5.45Zm0-8.91A3.46,3.46,0,1,0,18,5.46,3.46,3.46,0,0,0,14.56,2Z"/><path class="a827e776-596f-4db4-931a-cde4bb0c3803" d="M17.87,25.89h-1.5a2.24,2.24,0,0,1-2.19-1.78,13.23,13.23,0,0,1-3.77.06,2.25,2.25,0,0,1-2.18,1.72H6.73a2.25,2.25,0,0,1-2.24-2.24v-2a8.79,8.79,0,0,1-2.35-3.05A2.25,2.25,0,0,1,0,16.37v-1.5a2.25,2.25,0,0,1,2.14-2.24A8.76,8.76,0,0,1,4.49,9.58V8.05A1,1,0,0,1,5,7.21a3.08,3.08,0,0,1,3.37.3A12.65,12.65,0,0,1,10.79,7L11,8.93a10.45,10.45,0,0,0-2.54.57,1,1,0,0,1-1.07-.3,1.19,1.19,0,0,0-1-.46V10A1,1,0,0,1,6,10.8,6.62,6.62,0,0,0,3.7,13.89a1,1,0,0,1-.9.65H2.24a.33.33,0,0,0-.33.33v1.5a.33.33,0,0,0,.33.33H2.8a1,1,0,0,1,.9.65A6.57,6.57,0,0,0,6,20.44a1,1,0,0,1,.37.76v2.45a.33.33,0,0,0,.33.33h1.5a.33.33,0,0,0,.33-.33v-.6a1,1,0,0,1,.36-.75,1,1,0,0,1,.8-.18,11.07,11.07,0,0,0,5.12-.1,1,1,0,0,1,.82.17.94.94,0,0,1,.38.75v.71a.33.33,0,0,0,.33.33h1.5a.33.33,0,0,0,.33-.33V20.86a.94.94,0,0,1,.33-.72,6,6,0,0,0,2.23-4.52A1.11,1.11,0,0,1,21,15a.94.94,0,0,1-.34-.54,7,7,0,0,0-3.91-4.53l.85-1.71A9.59,9.59,0,0,1,21.73,12a.93.93,0,0,1,.52-.88.94.94,0,0,1,1.11.18,3.07,3.07,0,0,1,.88,2.16,3.1,3.1,0,0,1-1.6,2.7,7.82,7.82,0,0,1-2.54,5.08v2.37a2.24,2.24,0,0,1-2.23,2.24Z"/></g></g></svg>