<svg xmlns="http://www.w3.org/2000/svg" viewBox="0 0 21.67 24.82"><defs><style>.bf1b8545-fa87-4309-9cec-9a9e3bdc2792{fill:#fff;}</style></defs><g id="e4cc913f-4e7e-43cc-ab7e-b3902adb34ff" data-name="Layer 2"><g id="a6f9d721-398f-4eeb-811a-fc3324b0e686" data-name="Subscription"><path class="bf1b8545-fa87-4309-9cec-9a9e3bdc2792" d="M17.9,7.77a1,1,0,0,1-.6-.2,1,1,0,0,1-.2-1.4L19,3.65a1,1,0,1,1,1.59,1.2L18.7,7.37a1,1,0,0,1-.8.4Z"/><path class="bf1b8545-fa87-4309-9cec-9a9e3bdc2792" d="M10.83,24.82A10.84,10.84,0,1,1,21.67,14,10.84,10.84,0,0,1,10.83,24.82Zm0-19.67A8.84,8.84,0,1,0,19.67,14a8.84,8.84,0,0,0-8.84-8.84Z"/><path class="bf1b8545-fa87-4309-9cec-9a9e3bdc2792" d="M10.83,15a1,1,0,0,1-1-1V7.33a1,1,0,0,1,2,0V14a1,1,0,0,1-1,1Z"/><path class="bf1b8545-fa87-4309-9cec-9a9e3bdc2792" d="M13.55,2H8.11a1,1,0,1,1,0-2h5.44a1,1,0,0,1,0,2Z"/><path class="bf1b8545-fa87-4309-9cec-9a9e3bdc2792" d="M10.83,5.15a1,1,0,0,1-1-1V1.83a1,1,0,0,1,2,0V4.15a1,1,0,0,1-1,1Z"/></g></g></svg>