<svg xmlns="http://www.w3.org/2000/svg" viewBox="0 0 23.67 18.63"><defs><style>.b61607cf-ab21-4e36-8299-4cafc04c761f{fill:#fff;}</style></defs><g id="ef6e39c2-dc0f-40d8-9c55-923a0c4b4cbf" data-name="Layer 2"><g id="ac6f7481-4318-481e-8511-1e71dd341bc9" data-name="Subscription"><path class="b61607cf-ab21-4e36-8299-4cafc04c761f" d="M19.08,14.75a1,1,0,0,1-1-1V8.25a6.25,6.25,0,1,0-12.5,0v5.5a1,1,0,0,1-2,0V8.25a8.25,8.25,0,1,1,16.5,0v5.5a1,1,0,0,1-1,1Z"/><path class="b61607cf-ab21-4e36-8299-4cafc04c761f" d="M19.25,14.75a1,1,0,0,1,0-2,2.31,2.31,0,0,0,2.42-2.17,2.31,2.31,0,0,0-2.42-2.16,1,1,0,0,1,0-2,4.3,4.3,0,0,1,4.42,4.16,4.3,4.3,0,0,1-4.42,4.17Z"/><path class="b61607cf-ab21-4e36-8299-4cafc04c761f" d="M4.42,14.75A4.3,4.3,0,0,1,0,10.58,4.3,4.3,0,0,1,4.42,6.42a1,1,0,0,1,0,2A2.3,2.3,0,0,0,2,10.58a2.3,2.3,0,0,0,2.42,2.17,1,1,0,1,1,0,2Z"/><path class="b61607cf-ab21-4e36-8299-4cafc04c761f" d="M14.94,18.13h-.28a1,1,0,0,1,.05-2,3.61,3.61,0,0,0,2.79-.78,2,2,0,0,0,.58-1.26,1,1,0,0,1,1-1h0a1,1,0,0,1,1,1,4,4,0,0,1-1.18,2.72,5.45,5.45,0,0,1-4,1.36Z"/><path class="b61607cf-ab21-4e36-8299-4cafc04c761f" d="M14.34,15.44A1.59,1.59,0,1,0,15.94,17a1.59,1.59,0,0,0-1.6-1.59Z"/></g></g></svg>