<svg xmlns="http://www.w3.org/2000/svg" viewBox="0 0 22.36 25.57"><defs><style>.f760ec33-e6e5-4766-9325-3c1e92d8a549{fill:#fff;}</style></defs><g id="af91ab76-d6b2-4c95-9448-bacb4c8a2e46" data-name="Layer 2"><g id="ba9164c5-10f7-4834-8fa3-f114100acc72" data-name="Subscription"><path class="f760ec33-e6e5-4766-9325-3c1e92d8a549" d="M11.18,25.57c-2.72,0-5.3-2.14-9.39-6.35A7.35,7.35,0,0,1,0,14.75V4.88a3.81,3.81,0,0,1,2.58-3.5,27.52,27.52,0,0,1,17.21,0,3.88,3.88,0,0,1,2.57,3.5v9.86a7.4,7.4,0,0,1-1.78,4.48c-4.1,4.21-6.68,6.35-9.4,6.35ZM11.18,2a25.45,25.45,0,0,0-8,1.29A1.82,1.82,0,0,0,2,4.88v9.87a5.49,5.49,0,0,0,1.22,3.09c3.62,3.71,6,5.73,8,5.73s4.34-2,8-5.74a5.5,5.5,0,0,0,1.22-3.09V4.88a1.89,1.89,0,0,0-1.19-1.6,25.55,25.55,0,0,0-8-1.29Z"/><path class="f760ec33-e6e5-4766-9325-3c1e92d8a549" d="M10.19,15.26A1,1,0,0,1,9.46,15L7.82,13.23a1,1,0,0,1,0-1.42,1,1,0,0,1,1.41,0l.86.9L13,9.21a1,1,0,1,1,1.54,1.27L11,14.89a1,1,0,0,1-.73.37Z"/></g></g></svg>