<svg xmlns="http://www.w3.org/2000/svg" viewBox="0 0 23.83 23.83"><defs><style>.ae24a5cc-f469-42a1-a31e-45eaad04c440{fill:#fff;}</style></defs><g id="abebd16d-4a1f-41be-af5b-cad25c25b521" data-name="Layer 2"><g id="e34f441e-758b-479d-9d56-4810c9b5fcb7" data-name="UPDATES"><path class="ae24a5cc-f469-42a1-a31e-45eaad04c440" d="M5,19.68a1,1,0,0,1-.71-.3A1,1,0,0,1,4,18.62l.26-4.4a1,1,0,0,1,.29-.65L17.61.46a1,1,0,0,1,.71-.29h0a1,1,0,0,1,.7.29L23.16,4.6a1,1,0,0,1,.3.71,1,1,0,0,1-.3.7L10.05,19.13a1,1,0,0,1-.65.29L5,19.68Zm1.23-5L6,17.61l2.9-.17L21,5.31,18.32,2.58,6.18,14.72Z"/><path class="ae24a5cc-f469-42a1-a31e-45eaad04c440" d="M22.83,23.83H1a1,1,0,0,1-1-1V1A1,1,0,0,1,1,0H11.83a1,1,0,0,1,0,2H2V21.83H21.83V12a1,1,0,0,1,2,0V22.83a1,1,0,0,1-1,1Z"/></g></g></svg>